<?xml version="1.0" encoding="UTF-8" standalone="yes"?><svg xmlns="http://www.w3.org/2000/svg" xmlns:xlink="http://www.w3.org/1999/xlink" height="579pt" style="width:2203px;height:579px;" version="1.1" viewBox="0 0 2203 579" width="2203pt"><defs><filter height="300%" id="f1" width="300%" x="-1" y="-1"><feGaussianBlur result="blurOut" stdDeviation="2.0"/><feColorMatrix in="blurOut" result="blurOut2" type="matrix" values="0 0 0 0 0 0 0 0 0 0 0 0 0 0 0 0 0 0 .4 0"/><feOffset dx="4.0" dy="4.0" in="blurOut2" result="blurOut3"/><feBlend in="SourceGraphic" in2="blurOut3" mode="normal"/></filter></defs><g><polygon fill="#FFFFFF" filter="url(#f1)" points="196,24,372,24,379,46.2969,383,46.2969,383,124,196,124,196,24" style="stroke: #000000; stroke-width: 2.0;"/><line style="stroke: #000000; stroke-width: 2.0;" x1="196" x2="379" y1="46.2969" y2="46.2969"/><text fill="#000000" font-family="sans-serif" font-size="14" font-weight="bold" lengthAdjust="spacingAndGlyphs" textLength="170" x="199" y="39.9951">io.sphere.sdk.models</text><polygon fill="#FFFFFF" filter="url(#f1)" points="22,148,173,148,180,170.2969,184,170.2969,184,248,22,248,22,148" style="stroke: #000000; stroke-width: 2.0;"/><line style="stroke: #000000; stroke-width: 2.0;" x1="22" x2="180" y1="170.2969" y2="170.2969"/><text fill="#000000" font-family="sans-serif" font-size="14" font-weight="bold" lengthAdjust="spacingAndGlyphs" textLength="145" x="25" y="163.9951">io.sphere.sdk.http</text><polygon fill="#FFFFFF" filter="url(#f1)" points="208,148,360,148,367,170.2969,371,170.2969,371,248,208,248,208,148" style="stroke: #000000; stroke-width: 2.0;"/><line style="stroke: #000000; stroke-width: 2.0;" x1="208" x2="367" y1="170.2969" y2="170.2969"/><text fill="#000000" font-family="sans-serif" font-size="14" font-weight="bold" lengthAdjust="spacingAndGlyphs" textLength="146" x="211" y="163.9951">io.sphere.sdk.json</text><polygon fill="#FFFFFF" filter="url(#f1)" points="395,148,557,148,564,170.2969,2196,170.2969,2196,572,395,572,395,148" style="stroke: #000000; stroke-width: 2.0;"/><line style="stroke: #000000; stroke-width: 2.0;" x1="395" x2="564" y1="170.2969" y2="170.2969"/><text fill="#000000" font-family="sans-serif" font-size="14" font-weight="bold" lengthAdjust="spacingAndGlyphs" textLength="156" x="398" y="163.9951">io.sphere.sdk.client</text><rect fill="#FEFECE" filter="url(#f1)" height="48" style="stroke: #A80036; stroke-width: 1.5;" width="138" x="220" y="60"/><ellipse cx="235" cy="76" fill="#ADD1B2" rx="11" ry="11" style="stroke: #A80036; stroke-width: 1.0;"/><path d="M237.9688,81.6406 Q237.3906,81.9375 236.75,82.0859 Q236.1094,82.2344 235.4063,82.2344 Q232.9063,82.2344 231.5859,80.5859 Q230.2656,78.9375 230.2656,75.8125 Q230.2656,72.6875 231.5859,71.0313 Q232.9063,69.375 235.4063,69.375 Q236.1094,69.375 236.7578,69.5313 Q237.4063,69.6875 237.9688,69.9844 L237.9688,72.7031 Q237.3438,72.125 236.75,71.8516 Q236.1563,71.5781 235.5313,71.5781 Q234.1875,71.5781 233.5,72.6484 Q232.8125,73.7188 232.8125,75.8125 Q232.8125,77.9063 233.5,78.9766 Q234.1875,80.0469 235.5313,80.0469 Q236.1563,80.0469 236.75,79.7734 Q237.3438,79.5 237.9688,78.9219 L237.9688,81.6406 Z "/><text fill="#000000" font-family="sans-serif" font-size="12" lengthAdjust="spacingAndGlyphs" textLength="106" x="249" y="80.1543">SphereException</text><line style="stroke: #A80036; stroke-width: 1.5;" x1="221" x2="357" y1="92" y2="92"/><line style="stroke: #A80036; stroke-width: 1.5;" x1="221" x2="357" y1="100" y2="100"/><rect fill="#FEFECE" filter="url(#f1)" height="48" style="stroke: #A80036; stroke-width: 1.5;" width="120" x="48" y="184"/><ellipse cx="63" cy="200" fill="#ADD1B2" rx="11" ry="11" style="stroke: #A80036; stroke-width: 1.0;"/><path d="M65.9688,205.6406 Q65.3906,205.9375 64.75,206.0859 Q64.1094,206.2344 63.4063,206.2344 Q60.9063,206.2344 59.5859,204.5859 Q58.2656,202.9375 58.2656,199.8125 Q58.2656,196.6875 59.5859,195.0313 Q60.9063,193.375 63.4063,193.375 Q64.1094,193.375 64.7578,193.5313 Q65.4063,193.6875 65.9688,193.9844 L65.9688,196.7031 Q65.3438,196.125 64.75,195.8516 Q64.1563,195.5781 63.5313,195.5781 Q62.1875,195.5781 61.5,196.6484 Q60.8125,197.7188 60.8125,199.8125 Q60.8125,201.9063 61.5,202.9766 Q62.1875,204.0469 63.5313,204.0469 Q64.1563,204.0469 64.75,203.7734 Q65.3438,203.5 65.9688,202.9219 L65.9688,205.6406 Z "/><text fill="#000000" font-family="sans-serif" font-size="12" lengthAdjust="spacingAndGlyphs" textLength="88" x="77" y="204.1543">HttpException</text><line style="stroke: #A80036; stroke-width: 1.5;" x1="49" x2="167" y1="216" y2="216"/><line style="stroke: #A80036; stroke-width: 1.5;" x1="49" x2="167" y1="224" y2="224"/><rect fill="#FEFECE" filter="url(#f1)" height="48" style="stroke: #A80036; stroke-width: 1.5;" width="119" x="230" y="184"/><ellipse cx="245" cy="200" fill="#ADD1B2" rx="11" ry="11" style="stroke: #A80036; stroke-width: 1.0;"/><path d="M247.9688,205.6406 Q247.3906,205.9375 246.75,206.0859 Q246.1094,206.2344 245.4063,206.2344 Q242.9063,206.2344 241.5859,204.5859 Q240.2656,202.9375 240.2656,199.8125 Q240.2656,196.6875 241.5859,195.0313 Q242.9063,193.375 245.4063,193.375 Q246.1094,193.375 246.7578,193.5313 Q247.4063,193.6875 247.9688,193.9844 L247.9688,196.7031 Q247.3438,196.125 246.75,195.8516 Q246.1563,195.5781 245.5313,195.5781 Q244.1875,195.5781 243.5,196.6484 Q242.8125,197.7188 242.8125,199.8125 Q242.8125,201.9063 243.5,202.9766 Q244.1875,204.0469 245.5313,204.0469 Q246.1563,204.0469 246.75,203.7734 Q247.3438,203.5 247.9688,202.9219 L247.9688,205.6406 Z "/><text fill="#000000" font-family="sans-serif" font-size="12" lengthAdjust="spacingAndGlyphs" textLength="87" x="259" y="204.1543">JsonException</text><line style="stroke: #A80036; stroke-width: 1.5;" x1="231" x2="348" y1="216" y2="216"/><line style="stroke: #A80036; stroke-width: 1.5;" x1="231" x2="348" y1="224" y2="224"/><rect fill="#FEFECE" filter="url(#f1)" height="48" style="stroke: #A80036; stroke-width: 1.5;" width="183" x="757" y="184"/><ellipse cx="772" cy="200" fill="#ADD1B2" rx="11" ry="11" style="stroke: #A80036; stroke-width: 1.0;"/><path d="M774.9688,205.6406 Q774.3906,205.9375 773.75,206.0859 Q773.1094,206.2344 772.4063,206.2344 Q769.9063,206.2344 768.5859,204.5859 Q767.2656,202.9375 767.2656,199.8125 Q767.2656,196.6875 768.5859,195.0313 Q769.9063,193.375 772.4063,193.375 Q773.1094,193.375 773.7578,193.5313 Q774.4063,193.6875 774.9688,193.9844 L774.9688,196.7031 Q774.3438,196.125 773.75,195.8516 Q773.1563,195.5781 772.5313,195.5781 Q771.1875,195.5781 770.5,196.6484 Q769.8125,197.7188 769.8125,199.8125 Q769.8125,201.9063 770.5,202.9766 Q771.1875,204.0469 772.5313,204.0469 Q773.1563,204.0469 773.75,203.7734 Q774.3438,203.5 774.9688,202.9219 L774.9688,205.6406 Z "/><text fill="#000000" font-family="sans-serif" font-size="12" lengthAdjust="spacingAndGlyphs" textLength="151" x="786" y="204.1543">SphereServiceException</text><line style="stroke: #A80036; stroke-width: 1.5;" x1="758" x2="939" y1="216" y2="216"/><line style="stroke: #A80036; stroke-width: 1.5;" x1="758" x2="939" y1="224" y2="224"/><rect fill="#FEFECE" filter="url(#f1)" height="48" style="stroke: #A80036; stroke-width: 1.5;" width="159" x="769" y="292"/><ellipse cx="784" cy="308" fill="#ADD1B2" rx="11" ry="11" style="stroke: #A80036; stroke-width: 1.0;"/><path d="M786.9688,313.6406 Q786.3906,313.9375 785.75,314.0859 Q785.1094,314.2344 784.4063,314.2344 Q781.9063,314.2344 780.5859,312.5859 Q779.2656,310.9375 779.2656,307.8125 Q779.2656,304.6875 780.5859,303.0313 Q781.9063,301.375 784.4063,301.375 Q785.1094,301.375 785.7578,301.5313 Q786.4063,301.6875 786.9688,301.9844 L786.9688,304.7031 Q786.3438,304.125 785.75,303.8516 Q785.1563,303.5781 784.5313,303.5781 Q783.1875,303.5781 782.5,304.6484 Q781.8125,305.7188 781.8125,307.8125 Q781.8125,309.9063 782.5,310.9766 Q783.1875,312.0469 784.5313,312.0469 Q785.1563,312.0469 785.75,311.7734 Q786.3438,311.5 786.9688,310.9219 L786.9688,313.6406 Z "/><text fill="#000000" font-family="sans-serif" font-size="12" lengthAdjust="spacingAndGlyphs" textLength="127" x="798" y="312.1543">ClientErrorException</text><line style="stroke: #A80036; stroke-width: 1.5;" x1="770" x2="927" y1="324" y2="324"/><line style="stroke: #A80036; stroke-width: 1.5;" x1="770" x2="927" y1="332" y2="332"/><rect fill="#FEFECE" filter="url(#f1)" height="48" style="stroke: #A80036; stroke-width: 1.5;" width="169" x="411" y="400"/><ellipse cx="426" cy="416" fill="#ADD1B2" rx="11" ry="11" style="stroke: #A80036; stroke-width: 1.0;"/><path d="M428.9688,421.6406 Q428.3906,421.9375 427.75,422.0859 Q427.1094,422.2344 426.4063,422.2344 Q423.9063,422.2344 422.5859,420.5859 Q421.2656,418.9375 421.2656,415.8125 Q421.2656,412.6875 422.5859,411.0313 Q423.9063,409.375 426.4063,409.375 Q427.1094,409.375 427.7578,409.5313 Q428.4063,409.6875 428.9688,409.9844 L428.9688,412.7031 Q428.3438,412.125 427.75,411.8516 Q427.1563,411.5781 426.5313,411.5781 Q425.1875,411.5781 424.5,412.6484 Q423.8125,413.7188 423.8125,415.8125 Q423.8125,417.9063 424.5,418.9766 Q425.1875,420.0469 426.5313,420.0469 Q427.1563,420.0469 427.75,419.7734 Q428.3438,419.5 428.9688,418.9219 L428.9688,421.6406 Z "/><text fill="#000000" font-family="sans-serif" font-size="12" lengthAdjust="spacingAndGlyphs" textLength="137" x="440" y="420.1543">BadRequestException</text><line style="stroke: #A80036; stroke-width: 1.5;" x1="412" x2="579" y1="432" y2="432"/><line style="stroke: #A80036; stroke-width: 1.5;" x1="412" x2="579" y1="440" y2="440"/><rect fill="#FEFECE" filter="url(#f1)" height="48" style="stroke: #A80036; stroke-width: 1.5;" width="186" x="411" y="508"/><ellipse cx="426" cy="524" fill="#ADD1B2" rx="11" ry="11" style="stroke: #A80036; stroke-width: 1.0;"/><path d="M428.9688,529.6406 Q428.3906,529.9375 427.75,530.0859 Q427.1094,530.2344 426.4063,530.2344 Q423.9063,530.2344 422.5859,528.5859 Q421.2656,526.9375 421.2656,523.8125 Q421.2656,520.6875 422.5859,519.0313 Q423.9063,517.375 426.4063,517.375 Q427.1094,517.375 427.7578,517.5313 Q428.4063,517.6875 428.9688,517.9844 L428.9688,520.7031 Q428.3438,520.125 427.75,519.8516 Q427.1563,519.5781 426.5313,519.5781 Q425.1875,519.5781 424.5,520.6484 Q423.8125,521.7188 423.8125,523.8125 Q423.8125,525.9063 424.5,526.9766 Q425.1875,528.0469 426.5313,528.0469 Q427.1563,528.0469 427.75,527.7734 Q428.3438,527.5 428.9688,526.9219 L428.9688,529.6406 Z "/><text fill="#000000" font-family="sans-serif" font-size="12" lengthAdjust="spacingAndGlyphs" textLength="154" x="440" y="528.1543">ErrorResponseException</text><line style="stroke: #A80036; stroke-width: 1.5;" x1="412" x2="596" y1="540" y2="540"/><line style="stroke: #A80036; stroke-width: 1.5;" x1="412" x2="596" y1="548" y2="548"/><rect fill="#FEFECE" filter="url(#f1)" height="48" style="stroke: #A80036; stroke-width: 1.5;" width="238" x="614" y="400"/><ellipse cx="629" cy="416" fill="#ADD1B2" rx="11" ry="11" style="stroke: #A80036; stroke-width: 1.0;"/><path d="M631.9688,421.6406 Q631.3906,421.9375 630.75,422.0859 Q630.1094,422.2344 629.4063,422.2344 Q626.9063,422.2344 625.5859,420.5859 Q624.2656,418.9375 624.2656,415.8125 Q624.2656,412.6875 625.5859,411.0313 Q626.9063,409.375 629.4063,409.375 Q630.1094,409.375 630.7578,409.5313 Q631.4063,409.6875 631.9688,409.9844 L631.9688,412.7031 Q631.3438,412.125 630.75,411.8516 Q630.1563,411.5781 629.5313,411.5781 Q628.1875,411.5781 627.5,412.6484 Q626.8125,413.7188 626.8125,415.8125 Q626.8125,417.9063 627.5,418.9766 Q628.1875,420.0469 629.5313,420.0469 Q630.1563,420.0469 630.75,419.7734 Q631.3438,419.5 631.9688,418.9219 L631.9688,421.6406 Z "/><text fill="#000000" font-family="sans-serif" font-size="12" lengthAdjust="spacingAndGlyphs" textLength="206" x="643" y="420.1543">ConcurrentModificationException</text><line style="stroke: #A80036; stroke-width: 1.5;" x1="615" x2="851" y1="432" y2="432"/><line style="stroke: #A80036; stroke-width: 1.5;" x1="615" x2="851" y1="440" y2="440"/><rect fill="#FEFECE" filter="url(#f1)" height="48" style="stroke: #A80036; stroke-width: 1.5;" width="154" x="887" y="400"/><ellipse cx="902" cy="416" fill="#ADD1B2" rx="11" ry="11" style="stroke: #A80036; stroke-width: 1.0;"/><path d="M904.9688,421.6406 Q904.3906,421.9375 903.75,422.0859 Q903.1094,422.2344 902.4063,422.2344 Q899.9063,422.2344 898.5859,420.5859 Q897.2656,418.9375 897.2656,415.8125 Q897.2656,412.6875 898.5859,411.0313 Q899.9063,409.375 902.4063,409.375 Q903.1094,409.375 903.7578,409.5313 Q904.4063,409.6875 904.9688,409.9844 L904.9688,412.7031 Q904.3438,412.125 903.75,411.8516 Q903.1563,411.5781 902.5313,411.5781 Q901.1875,411.5781 900.5,412.6484 Q899.8125,413.7188 899.8125,415.8125 Q899.8125,417.9063 900.5,418.9766 Q901.1875,420.0469 902.5313,420.0469 Q903.1563,420.0469 903.75,419.7734 Q904.3438,419.5 904.9688,418.9219 L904.9688,421.6406 Z "/><text fill="#000000" font-family="sans-serif" font-size="12" lengthAdjust="spacingAndGlyphs" textLength="122" x="916" y="420.1543">NotFoundException</text><line style="stroke: #A80036; stroke-width: 1.5;" x1="888" x2="1040" y1="432" y2="432"/><line style="stroke: #A80036; stroke-width: 1.5;" x1="888" x2="1040" y1="440" y2="440"/><rect fill="#FEFECE" filter="url(#f1)" height="48" style="stroke: #A80036; stroke-width: 1.5;" width="176" x="1076" y="400"/><ellipse cx="1091" cy="416" fill="#ADD1B2" rx="11" ry="11" style="stroke: #A80036; stroke-width: 1.0;"/><path d="M1093.9688,421.6406 Q1093.3906,421.9375 1092.75,422.0859 Q1092.1094,422.2344 1091.4063,422.2344 Q1088.9063,422.2344 1087.5859,420.5859 Q1086.2656,418.9375 1086.2656,415.8125 Q1086.2656,412.6875 1087.5859,411.0313 Q1088.9063,409.375 1091.4063,409.375 Q1092.1094,409.375 1092.7578,409.5313 Q1093.4063,409.6875 1093.9688,409.9844 L1093.9688,412.7031 Q1093.3438,412.125 1092.75,411.8516 Q1092.1563,411.5781 1091.5313,411.5781 Q1090.1875,411.5781 1089.5,412.6484 Q1088.8125,413.7188 1088.8125,415.8125 Q1088.8125,417.9063 1089.5,418.9766 Q1090.1875,420.0469 1091.5313,420.0469 Q1092.1563,420.0469 1092.75,419.7734 Q1093.3438,419.5 1093.9688,418.9219 L1093.9688,421.6406 Z "/><text fill="#000000" font-family="sans-serif" font-size="12" lengthAdjust="spacingAndGlyphs" textLength="144" x="1105" y="420.1543">UnauthorizedException</text><line style="stroke: #A80036; stroke-width: 1.5;" x1="1077" x2="1251" y1="432" y2="432"/><line style="stroke: #A80036; stroke-width: 1.5;" x1="1077" x2="1251" y1="440" y2="440"/><rect fill="#FEFECE" filter="url(#f1)" height="48" style="stroke: #A80036; stroke-width: 1.5;" width="238" x="925" y="508"/><ellipse cx="940" cy="524" fill="#ADD1B2" rx="11" ry="11" style="stroke: #A80036; stroke-width: 1.0;"/><path d="M942.9688,529.6406 Q942.3906,529.9375 941.75,530.0859 Q941.1094,530.2344 940.4063,530.2344 Q937.9063,530.2344 936.5859,528.5859 Q935.2656,526.9375 935.2656,523.8125 Q935.2656,520.6875 936.5859,519.0313 Q937.9063,517.375 940.4063,517.375 Q941.1094,517.375 941.7578,517.5313 Q942.4063,517.6875 942.9688,517.9844 L942.9688,520.7031 Q942.3438,520.125 941.75,519.8516 Q941.1563,519.5781 940.5313,519.5781 Q939.1875,519.5781 938.5,520.6484 Q937.8125,521.7188 937.8125,523.8125 Q937.8125,525.9063 938.5,526.9766 Q939.1875,528.0469 940.5313,528.0469 Q941.1563,528.0469 941.75,527.7734 Q942.3438,527.5 942.9688,526.9219 L942.9688,529.6406 Z "/><text fill="#000000" font-family="sans-serif" font-size="12" lengthAdjust="spacingAndGlyphs" textLength="206" x="954" y="528.1543">InvalidClientCredentialsException</text><line style="stroke: #A80036; stroke-width: 1.5;" x1="926" x2="1162" y1="540" y2="540"/><line style="stroke: #A80036; stroke-width: 1.5;" x1="926" x2="1162" y1="548" y2="548"/><rect fill="#FEFECE" filter="url(#f1)" height="48" style="stroke: #A80036; stroke-width: 1.5;" width="170" x="1198" y="508"/><ellipse cx="1213" cy="524" fill="#ADD1B2" rx="11" ry="11" style="stroke: #A80036; stroke-width: 1.0;"/><path d="M1215.9688,529.6406 Q1215.3906,529.9375 1214.75,530.0859 Q1214.1094,530.2344 1213.4063,530.2344 Q1210.9063,530.2344 1209.5859,528.5859 Q1208.2656,526.9375 1208.2656,523.8125 Q1208.2656,520.6875 1209.5859,519.0313 Q1210.9063,517.375 1213.4063,517.375 Q1214.1094,517.375 1214.7578,517.5313 Q1215.4063,517.6875 1215.9688,517.9844 L1215.9688,520.7031 Q1215.3438,520.125 1214.75,519.8516 Q1214.1563,519.5781 1213.5313,519.5781 Q1212.1875,519.5781 1211.5,520.6484 Q1210.8125,521.7188 1210.8125,523.8125 Q1210.8125,525.9063 1211.5,526.9766 Q1212.1875,528.0469 1213.5313,528.0469 Q1214.1563,528.0469 1214.75,527.7734 Q1215.3438,527.5 1215.9688,526.9219 L1215.9688,529.6406 Z "/><text fill="#000000" font-family="sans-serif" font-size="12" lengthAdjust="spacingAndGlyphs" textLength="138" x="1227" y="528.1543">InvalidTokenException</text><line style="stroke: #A80036; stroke-width: 1.5;" x1="1199" x2="1367" y1="540" y2="540"/><line style="stroke: #A80036; stroke-width: 1.5;" x1="1199" x2="1367" y1="548" y2="548"/><rect fill="#FEFECE" filter="url(#f1)" height="48" style="stroke: #A80036; stroke-width: 1.5;" width="164" x="1508" y="292"/><ellipse cx="1523" cy="308" fill="#ADD1B2" rx="11" ry="11" style="stroke: #A80036; stroke-width: 1.0;"/><path d="M1525.9688,313.6406 Q1525.3906,313.9375 1524.75,314.0859 Q1524.1094,314.2344 1523.4063,314.2344 Q1520.9063,314.2344 1519.5859,312.5859 Q1518.2656,310.9375 1518.2656,307.8125 Q1518.2656,304.6875 1519.5859,303.0313 Q1520.9063,301.375 1523.4063,301.375 Q1524.1094,301.375 1524.7578,301.5313 Q1525.4063,301.6875 1525.9688,301.9844 L1525.9688,304.7031 Q1525.3438,304.125 1524.75,303.8516 Q1524.1563,303.5781 1523.5313,303.5781 Q1522.1875,303.5781 1521.5,304.6484 Q1520.8125,305.7188 1520.8125,307.8125 Q1520.8125,309.9063 1521.5,310.9766 Q1522.1875,312.0469 1523.5313,312.0469 Q1524.1563,312.0469 1524.75,311.7734 Q1525.3438,311.5 1525.9688,310.9219 L1525.9688,313.6406 Z "/><text fill="#000000" font-family="sans-serif" font-size="12" lengthAdjust="spacingAndGlyphs" textLength="132" x="1537" y="312.1543">ServerErrorException</text><line style="stroke: #A80036; stroke-width: 1.5;" x1="1509" x2="1671" y1="324" y2="324"/><line style="stroke: #A80036; stroke-width: 1.5;" x1="1509" x2="1671" y1="332" y2="332"/><rect fill="#FEFECE" filter="url(#f1)" height="48" style="stroke: #A80036; stroke-width: 1.5;" width="170" x="1287" y="400"/><ellipse cx="1302" cy="416" fill="#ADD1B2" rx="11" ry="11" style="stroke: #A80036; stroke-width: 1.0;"/><path d="M1304.9688,421.6406 Q1304.3906,421.9375 1303.75,422.0859 Q1303.1094,422.2344 1302.4063,422.2344 Q1299.9063,422.2344 1298.5859,420.5859 Q1297.2656,418.9375 1297.2656,415.8125 Q1297.2656,412.6875 1298.5859,411.0313 Q1299.9063,409.375 1302.4063,409.375 Q1303.1094,409.375 1303.7578,409.5313 Q1304.4063,409.6875 1304.9688,409.9844 L1304.9688,412.7031 Q1304.3438,412.125 1303.75,411.8516 Q1303.1563,411.5781 1302.5313,411.5781 Q1301.1875,411.5781 1300.5,412.6484 Q1299.8125,413.7188 1299.8125,415.8125 Q1299.8125,417.9063 1300.5,418.9766 Q1301.1875,420.0469 1302.5313,420.0469 Q1303.1563,420.0469 1303.75,419.7734 Q1304.3438,419.5 1304.9688,418.9219 L1304.9688,421.6406 Z "/><text fill="#000000" font-family="sans-serif" font-size="12" lengthAdjust="spacingAndGlyphs" textLength="138" x="1316" y="420.1543">BadGatewayException</text><line style="stroke: #A80036; stroke-width: 1.5;" x1="1288" x2="1456" y1="432" y2="432"/><line style="stroke: #A80036; stroke-width: 1.5;" x1="1288" x2="1456" y1="440" y2="440"/><rect fill="#FEFECE" filter="url(#f1)" height="48" style="stroke: #A80036; stroke-width: 1.5;" width="196" x="1492" y="400"/><ellipse cx="1507" cy="416" fill="#ADD1B2" rx="11" ry="11" style="stroke: #A80036; stroke-width: 1.0;"/><path d="M1509.9688,421.6406 Q1509.3906,421.9375 1508.75,422.0859 Q1508.1094,422.2344 1507.4063,422.2344 Q1504.9063,422.2344 1503.5859,420.5859 Q1502.2656,418.9375 1502.2656,415.8125 Q1502.2656,412.6875 1503.5859,411.0313 Q1504.9063,409.375 1507.4063,409.375 Q1508.1094,409.375 1508.7578,409.5313 Q1509.4063,409.6875 1509.9688,409.9844 L1509.9688,412.7031 Q1509.3438,412.125 1508.75,411.8516 Q1508.1563,411.5781 1507.5313,411.5781 Q1506.1875,411.5781 1505.5,412.6484 Q1504.8125,413.7188 1504.8125,415.8125 Q1504.8125,417.9063 1505.5,418.9766 Q1506.1875,420.0469 1507.5313,420.0469 Q1508.1563,420.0469 1508.75,419.7734 Q1509.3438,419.5 1509.9688,418.9219 L1509.9688,421.6406 Z "/><text fill="#000000" font-family="sans-serif" font-size="12" lengthAdjust="spacingAndGlyphs" textLength="164" x="1521" y="420.1543">GatewayTimeoutException</text><line style="stroke: #A80036; stroke-width: 1.5;" x1="1493" x2="1687" y1="432" y2="432"/><line style="stroke: #A80036; stroke-width: 1.5;" x1="1493" x2="1687" y1="440" y2="440"/><rect fill="#FEFECE" filter="url(#f1)" height="48" style="stroke: #A80036; stroke-width: 1.5;" width="212" x="1723" y="400"/><ellipse cx="1738" cy="416" fill="#ADD1B2" rx="11" ry="11" style="stroke: #A80036; stroke-width: 1.0;"/><path d="M1740.9688,421.6406 Q1740.3906,421.9375 1739.75,422.0859 Q1739.1094,422.2344 1738.4063,422.2344 Q1735.9063,422.2344 1734.5859,420.5859 Q1733.2656,418.9375 1733.2656,415.8125 Q1733.2656,412.6875 1734.5859,411.0313 Q1735.9063,409.375 1738.4063,409.375 Q1739.1094,409.375 1739.7578,409.5313 Q1740.4063,409.6875 1740.9688,409.9844 L1740.9688,412.7031 Q1740.3438,412.125 1739.75,411.8516 Q1739.1563,411.5781 1738.5313,411.5781 Q1737.1875,411.5781 1736.5,412.6484 Q1735.8125,413.7188 1735.8125,415.8125 Q1735.8125,417.9063 1736.5,418.9766 Q1737.1875,420.0469 1738.5313,420.0469 Q1739.1563,420.0469 1739.75,419.7734 Q1740.3438,419.5 1740.9688,418.9219 L1740.9688,421.6406 Z "/><text fill="#000000" font-family="sans-serif" font-size="12" lengthAdjust="spacingAndGlyphs" textLength="180" x="1752" y="420.1543">InternalServerErrorException</text><line style="stroke: #A80036; stroke-width: 1.5;" x1="1724" x2="1934" y1="432" y2="432"/><line style="stroke: #A80036; stroke-width: 1.5;" x1="1724" x2="1934" y1="440" y2="440"/><rect fill="#FEFECE" filter="url(#f1)" height="48" style="stroke: #A80036; stroke-width: 1.5;" width="210" x="1970" y="400"/><ellipse cx="1985" cy="416" fill="#ADD1B2" rx="11" ry="11" style="stroke: #A80036; stroke-width: 1.0;"/><path d="M1987.9688,421.6406 Q1987.3906,421.9375 1986.75,422.0859 Q1986.1094,422.2344 1985.4063,422.2344 Q1982.9063,422.2344 1981.5859,420.5859 Q1980.2656,418.9375 1980.2656,415.8125 Q1980.2656,412.6875 1981.5859,411.0313 Q1982.9063,409.375 1985.4063,409.375 Q1986.1094,409.375 1986.7578,409.5313 Q1987.4063,409.6875 1987.9688,409.9844 L1987.9688,412.7031 Q1987.3438,412.125 1986.75,411.8516 Q1986.1563,411.5781 1985.5313,411.5781 Q1984.1875,411.5781 1983.5,412.6484 Q1982.8125,413.7188 1982.8125,415.8125 Q1982.8125,417.9063 1983.5,418.9766 Q1984.1875,420.0469 1985.5313,420.0469 Q1986.1563,420.0469 1986.75,419.7734 Q1987.3438,419.5 1987.9688,418.9219 L1987.9688,421.6406 Z "/><text fill="#000000" font-family="sans-serif" font-size="12" lengthAdjust="spacingAndGlyphs" textLength="178" x="1999" y="420.1543">ServiceUnavailableException</text><line style="stroke: #A80036; stroke-width: 1.5;" x1="1971" x2="2179" y1="432" y2="432"/><line style="stroke: #A80036; stroke-width: 1.5;" x1="1971" x2="2179" y1="440" y2="440"/><path d="M236.912,119.685 C206.863,140.271 169.876,165.61 143.239,183.858 " fill="none" style="stroke: #A80036; stroke-width: 1.0;"/><polygon fill="none" points="233.216,113.732,253.672,108.203,241.128,125.281,233.216,113.732" style="stroke: #A80036; stroke-width: 1.0;"/><path d="M289,128.286 C289,147.008 289,168.082 289,183.858 " fill="none" style="stroke: #A80036; stroke-width: 1.0;"/><polygon fill="none" points="282,128.203,289,108.203,296,128.203,282,128.203" style="stroke: #A80036; stroke-width: 1.0;"/><path d="M377.916,103.724 C481.624,126.729 652.173,164.561 756.836,187.777 " fill="none" style="stroke: #A80036; stroke-width: 1.0;"/><polygon fill="none" points="376.114,110.494,358.105,99.329,379.146,96.827,376.114,110.494" style="stroke: #A80036; stroke-width: 1.0;"/><path d="M848,252.291 C848,265.817 848,280.184 848,291.844 " fill="none" style="stroke: #A80036; stroke-width: 1.0;"/><polygon fill="none" points="841,252.237,848,232.237,855,252.237,841,252.237" style="stroke: #A80036; stroke-width: 1.0;"/><path d="M749.758,346.057 C694.148,363.071 625.542,384.061 573.54,399.971 " fill="none" style="stroke: #A80036; stroke-width: 1.0;"/><polygon fill="none" points="748.046,339.26,769.219,340.103,752.142,352.648,748.046,339.26" style="stroke: #A80036; stroke-width: 1.0;"/><path d="M498.691,468.291 C499.818,481.817 501.015,496.1835 501.987,507.8436 " fill="none" style="stroke: #A80036; stroke-width: 1.0;"/><polygon fill="none" points="491.705,468.75,497.02,448.237,505.657,467.587,491.705,468.75" style="stroke: #A80036; stroke-width: 1.0;"/><path d="M807.447,354.085 C791.239,369.306 773.059,386.379 758.722,399.844 " fill="none" style="stroke: #A80036; stroke-width: 1.0;"/><polygon fill="none" points="802.821,348.826,822.192,340.237,812.405,359.031,802.821,348.826" style="stroke: #A80036; stroke-width: 1.0;"/><path d="M888.906,354.085 C905.254,369.306 923.592,386.379 938.054,399.844 " fill="none" style="stroke: #A80036; stroke-width: 1.0;"/><polygon fill="none" points="883.901,358.989,874.033,340.237,893.441,348.742,883.901,358.989" style="stroke: #A80036; stroke-width: 1.0;"/><path d="M937.583,346.617 C987.068,363.53 1047.65,384.235 1093.69,399.971 " fill="none" style="stroke: #A80036; stroke-width: 1.0;"/><polygon fill="none" points="935.185,353.195,918.523,340.103,939.712,339.947,935.185,353.195" style="stroke: #A80036; stroke-width: 1.0;"/><path d="M1121.95,461.849 C1104.97,477.129 1085.88,494.3096 1070.84,507.8436 " fill="none" style="stroke: #A80036; stroke-width: 1.0;"/><polygon fill="none" points="1117.52,456.414,1137.07,448.237,1126.89,466.82,1117.52,456.414" style="stroke: #A80036; stroke-width: 1.0;"/><path d="M1205.7,461.849 C1222.54,477.129 1241.47,494.3096 1256.38,507.8436 " fill="none" style="stroke: #A80036; stroke-width: 1.0;"/><polygon fill="none" points="1200.81,466.862,1190.71,448.237,1210.22,456.495,1200.81,466.862" style="stroke: #A80036; stroke-width: 1.0;"/><path d="M959.341,224.206 C1109.69,246.089 1374.15,284.582 1507.77,304.032 " fill="none" style="stroke: #A80036; stroke-width: 1.0;"/><polygon fill="none" points="958.139,231.105,939.356,221.297,960.155,217.251,958.139,231.105" style="stroke: #A80036; stroke-width: 1.0;"/><path d="M1523.16,349.113 C1490.02,365.533 1450.72,385.001 1420.5,399.971 " fill="none" style="stroke: #A80036; stroke-width: 1.0;"/><polygon fill="none" points="1520.32,342.709,1541.35,340.103,1526.53,355.254,1520.32,342.709" style="stroke: #A80036; stroke-width: 1.0;"/><path d="M1590,360.291 C1590,373.817 1590,388.184 1590,399.844 " fill="none" style="stroke: #A80036; stroke-width: 1.0;"/><polygon fill="none" points="1583,360.237,1590,340.237,1597,360.237,1583,360.237" style="stroke: #A80036; stroke-width: 1.0;"/><path d="M1661.76,348.427 C1698.41,364.989 1742.23,384.792 1775.82,399.971 " fill="none" style="stroke: #A80036; stroke-width: 1.0;"/><polygon fill="none" points="1658.68,354.718,1643.34,340.103,1664.45,341.96,1658.68,354.718" style="stroke: #A80036; stroke-width: 1.0;"/><path d="M1692.01,338.716 C1773.56,356.876 1887.47,382.242 1969.84,400.584 " fill="none" style="stroke: #A80036; stroke-width: 1.0;"/><polygon fill="none" points="1690.27,345.501,1672.27,334.321,1693.32,331.835,1690.27,345.501" style="stroke: #A80036; stroke-width: 1.0;"/></g></svg>