<?xml version="1.0" encoding="UTF-8" standalone="yes"?><svg xmlns="http://www.w3.org/2000/svg" xmlns:xlink="http://www.w3.org/1999/xlink" height="563pt" style="width:2459px;height:563px;" version="1.1" viewBox="0 0 2459 563" width="2459pt"><defs><filter height="300%" id="f1" width="300%" x="-1" y="-1"><feGaussianBlur result="blurOut" stdDeviation="2.0"/><feColorMatrix in="blurOut" result="blurOut2" type="matrix" values="0 0 0 0 0 0 0 0 0 0 0 0 0 0 0 0 0 0 .4 0"/><feOffset dx="4.0" dy="4.0" in="blurOut2" result="blurOut3"/><feBlend in="SourceGraphic" in2="blurOut3" mode="normal"/></filter></defs><g><polygon fill="#FFFFFF" filter="url(#f1)" points="22,24,191,24,198,46.2969,1823,46.2969,1823,556,22,556,22,24" style="stroke: #000000; stroke-width: 2.0;"/><line style="stroke: #000000; stroke-width: 2.0;" x1="22" x2="198" y1="46.2969" y2="46.2969"/><text fill="#000000" font-family="sans-serif" font-size="14" font-weight="bold" lengthAdjust="spacingAndGlyphs" textLength="163" x="25" y="39.9951">io.sphere.sdk.errors</text><polygon fill="#FFFFFF" filter="url(#f1)" points="1847,132,2043,132,2050,154.2969,2079,154.2969,2079,232,1847,232,1847,132" style="stroke: #000000; stroke-width: 2.0;"/><line style="stroke: #000000; stroke-width: 2.0;" x1="1847" x2="2050" y1="154.2969" y2="154.2969"/><text fill="#000000" font-family="sans-serif" font-size="14" font-weight="bold" lengthAdjust="spacingAndGlyphs" textLength="190" x="1850" y="147.9951">io.sphere.sdk.attributes</text><polygon fill="#FFFFFF" filter="url(#f1)" points="2103,132,2254,132,2261,154.2969,2265,154.2969,2265,232,2103,232,2103,132" style="stroke: #000000; stroke-width: 2.0;"/><line style="stroke: #000000; stroke-width: 2.0;" x1="2103" x2="2261" y1="154.2969" y2="154.2969"/><text fill="#000000" font-family="sans-serif" font-size="14" font-weight="bold" lengthAdjust="spacingAndGlyphs" textLength="145" x="2106" y="147.9951">io.sphere.sdk.http</text><polygon fill="#FFFFFF" filter="url(#f1)" points="2289,132,2441,132,2448,154.2969,2452,154.2969,2452,232,2289,232,2289,132" style="stroke: #000000; stroke-width: 2.0;"/><line style="stroke: #000000; stroke-width: 2.0;" x1="2289" x2="2448" y1="154.2969" y2="154.2969"/><text fill="#000000" font-family="sans-serif" font-size="14" font-weight="bold" lengthAdjust="spacingAndGlyphs" textLength="146" x="2292" y="147.9951">io.sphere.sdk.json</text><rect fill="#FEFECE" filter="url(#f1)" height="48" style="stroke: #A80036; stroke-width: 1.5;" width="138" x="1669" y="60"/><ellipse cx="1684" cy="76" fill="#ADD1B2" rx="11" ry="11" style="stroke: #A80036; stroke-width: 1.0;"/><path d="M1686.9688,81.6406 Q1686.3906,81.9375 1685.75,82.0859 Q1685.1094,82.2344 1684.4063,82.2344 Q1681.9063,82.2344 1680.5859,80.5859 Q1679.2656,78.9375 1679.2656,75.8125 Q1679.2656,72.6875 1680.5859,71.0313 Q1681.9063,69.375 1684.4063,69.375 Q1685.1094,69.375 1685.7578,69.5313 Q1686.4063,69.6875 1686.9688,69.9844 L1686.9688,72.7031 Q1686.3438,72.125 1685.75,71.8516 Q1685.1563,71.5781 1684.5313,71.5781 Q1683.1875,71.5781 1682.5,72.6484 Q1681.8125,73.7188 1681.8125,75.8125 Q1681.8125,77.9063 1682.5,78.9766 Q1683.1875,80.0469 1684.5313,80.0469 Q1685.1563,80.0469 1685.75,79.7734 Q1686.3438,79.5 1686.9688,78.9219 L1686.9688,81.6406 Z "/><text fill="#000000" font-family="sans-serif" font-size="12" lengthAdjust="spacingAndGlyphs" textLength="106" x="1698" y="80.1543">SphereException</text><line style="stroke: #A80036; stroke-width: 1.5;" x1="1670" x2="1806" y1="92" y2="92"/><line style="stroke: #A80036; stroke-width: 1.5;" x1="1670" x2="1806" y1="100" y2="100"/><rect fill="#FEFECE" filter="url(#f1)" height="48" style="stroke: #A80036; stroke-width: 1.5;" width="183" x="813" y="168"/><ellipse cx="828" cy="184" fill="#ADD1B2" rx="11" ry="11" style="stroke: #A80036; stroke-width: 1.0;"/><path d="M830.9688,189.6406 Q830.3906,189.9375 829.75,190.0859 Q829.1094,190.2344 828.4063,190.2344 Q825.9063,190.2344 824.5859,188.5859 Q823.2656,186.9375 823.2656,183.8125 Q823.2656,180.6875 824.5859,179.0313 Q825.9063,177.375 828.4063,177.375 Q829.1094,177.375 829.7578,177.5313 Q830.4063,177.6875 830.9688,177.9844 L830.9688,180.7031 Q830.3438,180.125 829.75,179.8516 Q829.1563,179.5781 828.5313,179.5781 Q827.1875,179.5781 826.5,180.6484 Q825.8125,181.7188 825.8125,183.8125 Q825.8125,185.9063 826.5,186.9766 Q827.1875,188.0469 828.5313,188.0469 Q829.1563,188.0469 829.75,187.7734 Q830.3438,187.5 830.9688,186.9219 L830.9688,189.6406 Z "/><text fill="#000000" font-family="sans-serif" font-size="12" lengthAdjust="spacingAndGlyphs" textLength="151" x="842" y="188.1543">SphereServiceException</text><line style="stroke: #A80036; stroke-width: 1.5;" x1="814" x2="995" y1="200" y2="200"/><line style="stroke: #A80036; stroke-width: 1.5;" x1="814" x2="995" y1="208" y2="208"/><rect fill="#FEFECE" filter="url(#f1)" height="48" style="stroke: #A80036; stroke-width: 1.5;" width="175" x="403" y="276"/><ellipse cx="418" cy="292" fill="#ADD1B2" rx="11" ry="11" style="stroke: #A80036; stroke-width: 1.0;"/><path d="M420.9688,297.6406 Q420.3906,297.9375 419.75,298.0859 Q419.1094,298.2344 418.4063,298.2344 Q415.9063,298.2344 414.5859,296.5859 Q413.2656,294.9375 413.2656,291.8125 Q413.2656,288.6875 414.5859,287.0313 Q415.9063,285.375 418.4063,285.375 Q419.1094,285.375 419.7578,285.5313 Q420.4063,285.6875 420.9688,285.9844 L420.9688,288.7031 Q420.3438,288.125 419.75,287.8516 Q419.1563,287.5781 418.5313,287.5781 Q417.1875,287.5781 416.5,288.6484 Q415.8125,289.7188 415.8125,291.8125 Q415.8125,293.9063 416.5,294.9766 Q417.1875,296.0469 418.5313,296.0469 Q419.1563,296.0469 419.75,295.7734 Q420.3438,295.5 420.9688,294.9219 L420.9688,297.6406 Z "/><text fill="#000000" font-family="sans-serif" font-size="12" lengthAdjust="spacingAndGlyphs" textLength="143" x="432" y="296.1543">AuthorizationException</text><line style="stroke: #A80036; stroke-width: 1.5;" x1="404" x2="577" y1="308" y2="308"/><line style="stroke: #A80036; stroke-width: 1.5;" x1="404" x2="577" y1="316" y2="316"/><rect fill="#FEFECE" filter="url(#f1)" height="48" style="stroke: #A80036; stroke-width: 1.5;" width="159" x="612" y="276"/><ellipse cx="627" cy="292" fill="#ADD1B2" rx="11" ry="11" style="stroke: #A80036; stroke-width: 1.0;"/><path d="M629.9688,297.6406 Q629.3906,297.9375 628.75,298.0859 Q628.1094,298.2344 627.4063,298.2344 Q624.9063,298.2344 623.5859,296.5859 Q622.2656,294.9375 622.2656,291.8125 Q622.2656,288.6875 623.5859,287.0313 Q624.9063,285.375 627.4063,285.375 Q628.1094,285.375 628.7578,285.5313 Q629.4063,285.6875 629.9688,285.9844 L629.9688,288.7031 Q629.3438,288.125 628.75,287.8516 Q628.1563,287.5781 627.5313,287.5781 Q626.1875,287.5781 625.5,288.6484 Q624.8125,289.7188 624.8125,291.8125 Q624.8125,293.9063 625.5,294.9766 Q626.1875,296.0469 627.5313,296.0469 Q628.1563,296.0469 628.75,295.7734 Q629.3438,295.5 629.9688,294.9219 L629.9688,297.6406 Z "/><text fill="#000000" font-family="sans-serif" font-size="12" lengthAdjust="spacingAndGlyphs" textLength="127" x="641" y="296.1543">ClientErrorException</text><line style="stroke: #A80036; stroke-width: 1.5;" x1="613" x2="770" y1="308" y2="308"/><line style="stroke: #A80036; stroke-width: 1.5;" x1="613" x2="770" y1="316" y2="316"/><rect fill="#FEFECE" filter="url(#f1)" height="48" style="stroke: #A80036; stroke-width: 1.5;" width="169" x="38" y="384"/><ellipse cx="53" cy="400" fill="#ADD1B2" rx="11" ry="11" style="stroke: #A80036; stroke-width: 1.0;"/><path d="M55.9688,405.6406 Q55.3906,405.9375 54.75,406.0859 Q54.1094,406.2344 53.4063,406.2344 Q50.9063,406.2344 49.5859,404.5859 Q48.2656,402.9375 48.2656,399.8125 Q48.2656,396.6875 49.5859,395.0313 Q50.9063,393.375 53.4063,393.375 Q54.1094,393.375 54.7578,393.5313 Q55.4063,393.6875 55.9688,393.9844 L55.9688,396.7031 Q55.3438,396.125 54.75,395.8516 Q54.1563,395.5781 53.5313,395.5781 Q52.1875,395.5781 51.5,396.6484 Q50.8125,397.7188 50.8125,399.8125 Q50.8125,401.9063 51.5,402.9766 Q52.1875,404.0469 53.5313,404.0469 Q54.1563,404.0469 54.75,403.7734 Q55.3438,403.5 55.9688,402.9219 L55.9688,405.6406 Z "/><text fill="#000000" font-family="sans-serif" font-size="12" lengthAdjust="spacingAndGlyphs" textLength="137" x="67" y="404.1543">BadRequestException</text><line style="stroke: #A80036; stroke-width: 1.5;" x1="39" x2="206" y1="416" y2="416"/><line style="stroke: #A80036; stroke-width: 1.5;" x1="39" x2="206" y1="424" y2="424"/><rect fill="#FEFECE" filter="url(#f1)" height="48" style="stroke: #A80036; stroke-width: 1.5;" width="186" x="38" y="492"/><ellipse cx="53" cy="508" fill="#ADD1B2" rx="11" ry="11" style="stroke: #A80036; stroke-width: 1.0;"/><path d="M55.9688,513.6406 Q55.3906,513.9375 54.75,514.0859 Q54.1094,514.2344 53.4063,514.2344 Q50.9063,514.2344 49.5859,512.5859 Q48.2656,510.9375 48.2656,507.8125 Q48.2656,504.6875 49.5859,503.0313 Q50.9063,501.375 53.4063,501.375 Q54.1094,501.375 54.7578,501.5313 Q55.4063,501.6875 55.9688,501.9844 L55.9688,504.7031 Q55.3438,504.125 54.75,503.8516 Q54.1563,503.5781 53.5313,503.5781 Q52.1875,503.5781 51.5,504.6484 Q50.8125,505.7188 50.8125,507.8125 Q50.8125,509.9063 51.5,510.9766 Q52.1875,512.0469 53.5313,512.0469 Q54.1563,512.0469 54.75,511.7734 Q55.3438,511.5 55.9688,510.9219 L55.9688,513.6406 Z "/><text fill="#000000" font-family="sans-serif" font-size="12" lengthAdjust="spacingAndGlyphs" textLength="154" x="67" y="512.1543">ErrorResponseException</text><line style="stroke: #A80036; stroke-width: 1.5;" x1="39" x2="223" y1="524" y2="524"/><line style="stroke: #A80036; stroke-width: 1.5;" x1="39" x2="223" y1="532" y2="532"/><rect fill="#FEFECE" filter="url(#f1)" height="48" style="stroke: #A80036; stroke-width: 1.5;" width="238" x="241" y="384"/><ellipse cx="256" cy="400" fill="#ADD1B2" rx="11" ry="11" style="stroke: #A80036; stroke-width: 1.0;"/><path d="M258.9688,405.6406 Q258.3906,405.9375 257.75,406.0859 Q257.1094,406.2344 256.4063,406.2344 Q253.9063,406.2344 252.5859,404.5859 Q251.2656,402.9375 251.2656,399.8125 Q251.2656,396.6875 252.5859,395.0313 Q253.9063,393.375 256.4063,393.375 Q257.1094,393.375 257.7578,393.5313 Q258.4063,393.6875 258.9688,393.9844 L258.9688,396.7031 Q258.3438,396.125 257.75,395.8516 Q257.1563,395.5781 256.5313,395.5781 Q255.1875,395.5781 254.5,396.6484 Q253.8125,397.7188 253.8125,399.8125 Q253.8125,401.9063 254.5,402.9766 Q255.1875,404.0469 256.5313,404.0469 Q257.1563,404.0469 257.75,403.7734 Q258.3438,403.5 258.9688,402.9219 L258.9688,405.6406 Z "/><text fill="#000000" font-family="sans-serif" font-size="12" lengthAdjust="spacingAndGlyphs" textLength="206" x="270" y="404.1543">ConcurrentModificationException</text><line style="stroke: #A80036; stroke-width: 1.5;" x1="242" x2="478" y1="416" y2="416"/><line style="stroke: #A80036; stroke-width: 1.5;" x1="242" x2="478" y1="424" y2="424"/><rect fill="#FEFECE" filter="url(#f1)" height="48" style="stroke: #A80036; stroke-width: 1.5;" width="154" x="514" y="384"/><ellipse cx="529" cy="400" fill="#ADD1B2" rx="11" ry="11" style="stroke: #A80036; stroke-width: 1.0;"/><path d="M531.9688,405.6406 Q531.3906,405.9375 530.75,406.0859 Q530.1094,406.2344 529.4063,406.2344 Q526.9063,406.2344 525.5859,404.5859 Q524.2656,402.9375 524.2656,399.8125 Q524.2656,396.6875 525.5859,395.0313 Q526.9063,393.375 529.4063,393.375 Q530.1094,393.375 530.7578,393.5313 Q531.4063,393.6875 531.9688,393.9844 L531.9688,396.7031 Q531.3438,396.125 530.75,395.8516 Q530.1563,395.5781 529.5313,395.5781 Q528.1875,395.5781 527.5,396.6484 Q526.8125,397.7188 526.8125,399.8125 Q526.8125,401.9063 527.5,402.9766 Q528.1875,404.0469 529.5313,404.0469 Q530.1563,404.0469 530.75,403.7734 Q531.3438,403.5 531.9688,402.9219 L531.9688,405.6406 Z "/><text fill="#000000" font-family="sans-serif" font-size="12" lengthAdjust="spacingAndGlyphs" textLength="122" x="543" y="404.1543">NotFoundException</text><line style="stroke: #A80036; stroke-width: 1.5;" x1="515" x2="667" y1="416" y2="416"/><line style="stroke: #A80036; stroke-width: 1.5;" x1="515" x2="667" y1="424" y2="424"/><rect fill="#FEFECE" filter="url(#f1)" height="48" style="stroke: #A80036; stroke-width: 1.5;" width="176" x="703" y="384"/><ellipse cx="718" cy="400" fill="#ADD1B2" rx="11" ry="11" style="stroke: #A80036; stroke-width: 1.0;"/><path d="M720.9688,405.6406 Q720.3906,405.9375 719.75,406.0859 Q719.1094,406.2344 718.4063,406.2344 Q715.9063,406.2344 714.5859,404.5859 Q713.2656,402.9375 713.2656,399.8125 Q713.2656,396.6875 714.5859,395.0313 Q715.9063,393.375 718.4063,393.375 Q719.1094,393.375 719.7578,393.5313 Q720.4063,393.6875 720.9688,393.9844 L720.9688,396.7031 Q720.3438,396.125 719.75,395.8516 Q719.1563,395.5781 718.5313,395.5781 Q717.1875,395.5781 716.5,396.6484 Q715.8125,397.7188 715.8125,399.8125 Q715.8125,401.9063 716.5,402.9766 Q717.1875,404.0469 718.5313,404.0469 Q719.1563,404.0469 719.75,403.7734 Q720.3438,403.5 720.9688,402.9219 L720.9688,405.6406 Z "/><text fill="#000000" font-family="sans-serif" font-size="12" lengthAdjust="spacingAndGlyphs" textLength="144" x="732" y="404.1543">UnauthorizedException</text><line style="stroke: #A80036; stroke-width: 1.5;" x1="704" x2="878" y1="416" y2="416"/><line style="stroke: #A80036; stroke-width: 1.5;" x1="704" x2="878" y1="424" y2="424"/><rect fill="#FEFECE" filter="url(#f1)" height="48" style="stroke: #A80036; stroke-width: 1.5;" width="238" x="552" y="492"/><ellipse cx="567" cy="508" fill="#ADD1B2" rx="11" ry="11" style="stroke: #A80036; stroke-width: 1.0;"/><path d="M569.9688,513.6406 Q569.3906,513.9375 568.75,514.0859 Q568.1094,514.2344 567.4063,514.2344 Q564.9063,514.2344 563.5859,512.5859 Q562.2656,510.9375 562.2656,507.8125 Q562.2656,504.6875 563.5859,503.0313 Q564.9063,501.375 567.4063,501.375 Q568.1094,501.375 568.7578,501.5313 Q569.4063,501.6875 569.9688,501.9844 L569.9688,504.7031 Q569.3438,504.125 568.75,503.8516 Q568.1563,503.5781 567.5313,503.5781 Q566.1875,503.5781 565.5,504.6484 Q564.8125,505.7188 564.8125,507.8125 Q564.8125,509.9063 565.5,510.9766 Q566.1875,512.0469 567.5313,512.0469 Q568.1563,512.0469 568.75,511.7734 Q569.3438,511.5 569.9688,510.9219 L569.9688,513.6406 Z "/><text fill="#000000" font-family="sans-serif" font-size="12" lengthAdjust="spacingAndGlyphs" textLength="206" x="581" y="512.1543">InvalidClientCredentialsException</text><line style="stroke: #A80036; stroke-width: 1.5;" x1="553" x2="789" y1="524" y2="524"/><line style="stroke: #A80036; stroke-width: 1.5;" x1="553" x2="789" y1="532" y2="532"/><rect fill="#FEFECE" filter="url(#f1)" height="48" style="stroke: #A80036; stroke-width: 1.5;" width="170" x="825" y="492"/><ellipse cx="840" cy="508" fill="#ADD1B2" rx="11" ry="11" style="stroke: #A80036; stroke-width: 1.0;"/><path d="M842.9688,513.6406 Q842.3906,513.9375 841.75,514.0859 Q841.1094,514.2344 840.4063,514.2344 Q837.9063,514.2344 836.5859,512.5859 Q835.2656,510.9375 835.2656,507.8125 Q835.2656,504.6875 836.5859,503.0313 Q837.9063,501.375 840.4063,501.375 Q841.1094,501.375 841.7578,501.5313 Q842.4063,501.6875 842.9688,501.9844 L842.9688,504.7031 Q842.3438,504.125 841.75,503.8516 Q841.1563,503.5781 840.5313,503.5781 Q839.1875,503.5781 838.5,504.6484 Q837.8125,505.7188 837.8125,507.8125 Q837.8125,509.9063 838.5,510.9766 Q839.1875,512.0469 840.5313,512.0469 Q841.1563,512.0469 841.75,511.7734 Q842.3438,511.5 842.9688,510.9219 L842.9688,513.6406 Z "/><text fill="#000000" font-family="sans-serif" font-size="12" lengthAdjust="spacingAndGlyphs" textLength="138" x="854" y="512.1543">InvalidTokenException</text><line style="stroke: #A80036; stroke-width: 1.5;" x1="826" x2="994" y1="524" y2="524"/><line style="stroke: #A80036; stroke-width: 1.5;" x1="826" x2="994" y1="532" y2="532"/><rect fill="#FEFECE" filter="url(#f1)" height="48" style="stroke: #A80036; stroke-width: 1.5;" width="164" x="1135" y="276"/><ellipse cx="1150" cy="292" fill="#ADD1B2" rx="11" ry="11" style="stroke: #A80036; stroke-width: 1.0;"/><path d="M1152.9688,297.6406 Q1152.3906,297.9375 1151.75,298.0859 Q1151.1094,298.2344 1150.4063,298.2344 Q1147.9063,298.2344 1146.5859,296.5859 Q1145.2656,294.9375 1145.2656,291.8125 Q1145.2656,288.6875 1146.5859,287.0313 Q1147.9063,285.375 1150.4063,285.375 Q1151.1094,285.375 1151.7578,285.5313 Q1152.4063,285.6875 1152.9688,285.9844 L1152.9688,288.7031 Q1152.3438,288.125 1151.75,287.8516 Q1151.1563,287.5781 1150.5313,287.5781 Q1149.1875,287.5781 1148.5,288.6484 Q1147.8125,289.7188 1147.8125,291.8125 Q1147.8125,293.9063 1148.5,294.9766 Q1149.1875,296.0469 1150.5313,296.0469 Q1151.1563,296.0469 1151.75,295.7734 Q1152.3438,295.5 1152.9688,294.9219 L1152.9688,297.6406 Z "/><text fill="#000000" font-family="sans-serif" font-size="12" lengthAdjust="spacingAndGlyphs" textLength="132" x="1164" y="296.1543">ServerErrorException</text><line style="stroke: #A80036; stroke-width: 1.5;" x1="1136" x2="1298" y1="308" y2="308"/><line style="stroke: #A80036; stroke-width: 1.5;" x1="1136" x2="1298" y1="316" y2="316"/><rect fill="#FEFECE" filter="url(#f1)" height="48" style="stroke: #A80036; stroke-width: 1.5;" width="170" x="914" y="384"/><ellipse cx="929" cy="400" fill="#ADD1B2" rx="11" ry="11" style="stroke: #A80036; stroke-width: 1.0;"/><path d="M931.9688,405.6406 Q931.3906,405.9375 930.75,406.0859 Q930.1094,406.2344 929.4063,406.2344 Q926.9063,406.2344 925.5859,404.5859 Q924.2656,402.9375 924.2656,399.8125 Q924.2656,396.6875 925.5859,395.0313 Q926.9063,393.375 929.4063,393.375 Q930.1094,393.375 930.7578,393.5313 Q931.4063,393.6875 931.9688,393.9844 L931.9688,396.7031 Q931.3438,396.125 930.75,395.8516 Q930.1563,395.5781 929.5313,395.5781 Q928.1875,395.5781 927.5,396.6484 Q926.8125,397.7188 926.8125,399.8125 Q926.8125,401.9063 927.5,402.9766 Q928.1875,404.0469 929.5313,404.0469 Q930.1563,404.0469 930.75,403.7734 Q931.3438,403.5 931.9688,402.9219 L931.9688,405.6406 Z "/><text fill="#000000" font-family="sans-serif" font-size="12" lengthAdjust="spacingAndGlyphs" textLength="138" x="943" y="404.1543">BadGatewayException</text><line style="stroke: #A80036; stroke-width: 1.5;" x1="915" x2="1083" y1="416" y2="416"/><line style="stroke: #A80036; stroke-width: 1.5;" x1="915" x2="1083" y1="424" y2="424"/><rect fill="#FEFECE" filter="url(#f1)" height="48" style="stroke: #A80036; stroke-width: 1.5;" width="196" x="1119" y="384"/><ellipse cx="1134" cy="400" fill="#ADD1B2" rx="11" ry="11" style="stroke: #A80036; stroke-width: 1.0;"/><path d="M1136.9688,405.6406 Q1136.3906,405.9375 1135.75,406.0859 Q1135.1094,406.2344 1134.4063,406.2344 Q1131.9063,406.2344 1130.5859,404.5859 Q1129.2656,402.9375 1129.2656,399.8125 Q1129.2656,396.6875 1130.5859,395.0313 Q1131.9063,393.375 1134.4063,393.375 Q1135.1094,393.375 1135.7578,393.5313 Q1136.4063,393.6875 1136.9688,393.9844 L1136.9688,396.7031 Q1136.3438,396.125 1135.75,395.8516 Q1135.1563,395.5781 1134.5313,395.5781 Q1133.1875,395.5781 1132.5,396.6484 Q1131.8125,397.7188 1131.8125,399.8125 Q1131.8125,401.9063 1132.5,402.9766 Q1133.1875,404.0469 1134.5313,404.0469 Q1135.1563,404.0469 1135.75,403.7734 Q1136.3438,403.5 1136.9688,402.9219 L1136.9688,405.6406 Z "/><text fill="#000000" font-family="sans-serif" font-size="12" lengthAdjust="spacingAndGlyphs" textLength="164" x="1148" y="404.1543">GatewayTimeoutException</text><line style="stroke: #A80036; stroke-width: 1.5;" x1="1120" x2="1314" y1="416" y2="416"/><line style="stroke: #A80036; stroke-width: 1.5;" x1="1120" x2="1314" y1="424" y2="424"/><rect fill="#FEFECE" filter="url(#f1)" height="48" style="stroke: #A80036; stroke-width: 1.5;" width="212" x="1350" y="384"/><ellipse cx="1365" cy="400" fill="#ADD1B2" rx="11" ry="11" style="stroke: #A80036; stroke-width: 1.0;"/><path d="M1367.9688,405.6406 Q1367.3906,405.9375 1366.75,406.0859 Q1366.1094,406.2344 1365.4063,406.2344 Q1362.9063,406.2344 1361.5859,404.5859 Q1360.2656,402.9375 1360.2656,399.8125 Q1360.2656,396.6875 1361.5859,395.0313 Q1362.9063,393.375 1365.4063,393.375 Q1366.1094,393.375 1366.7578,393.5313 Q1367.4063,393.6875 1367.9688,393.9844 L1367.9688,396.7031 Q1367.3438,396.125 1366.75,395.8516 Q1366.1563,395.5781 1365.5313,395.5781 Q1364.1875,395.5781 1363.5,396.6484 Q1362.8125,397.7188 1362.8125,399.8125 Q1362.8125,401.9063 1363.5,402.9766 Q1364.1875,404.0469 1365.5313,404.0469 Q1366.1563,404.0469 1366.75,403.7734 Q1367.3438,403.5 1367.9688,402.9219 L1367.9688,405.6406 Z "/><text fill="#000000" font-family="sans-serif" font-size="12" lengthAdjust="spacingAndGlyphs" textLength="180" x="1379" y="404.1543">InternalServerErrorException</text><line style="stroke: #A80036; stroke-width: 1.5;" x1="1351" x2="1561" y1="416" y2="416"/><line style="stroke: #A80036; stroke-width: 1.5;" x1="1351" x2="1561" y1="424" y2="424"/><rect fill="#FEFECE" filter="url(#f1)" height="48" style="stroke: #A80036; stroke-width: 1.5;" width="210" x="1597" y="384"/><ellipse cx="1612" cy="400" fill="#ADD1B2" rx="11" ry="11" style="stroke: #A80036; stroke-width: 1.0;"/><path d="M1614.9688,405.6406 Q1614.3906,405.9375 1613.75,406.0859 Q1613.1094,406.2344 1612.4063,406.2344 Q1609.9063,406.2344 1608.5859,404.5859 Q1607.2656,402.9375 1607.2656,399.8125 Q1607.2656,396.6875 1608.5859,395.0313 Q1609.9063,393.375 1612.4063,393.375 Q1613.1094,393.375 1613.7578,393.5313 Q1614.4063,393.6875 1614.9688,393.9844 L1614.9688,396.7031 Q1614.3438,396.125 1613.75,395.8516 Q1613.1563,395.5781 1612.5313,395.5781 Q1611.1875,395.5781 1610.5,396.6484 Q1609.8125,397.7188 1609.8125,399.8125 Q1609.8125,401.9063 1610.5,402.9766 Q1611.1875,404.0469 1612.5313,404.0469 Q1613.1563,404.0469 1613.75,403.7734 Q1614.3438,403.5 1614.9688,402.9219 L1614.9688,405.6406 Z "/><text fill="#000000" font-family="sans-serif" font-size="12" lengthAdjust="spacingAndGlyphs" textLength="178" x="1626" y="404.1543">ServiceUnavailableException</text><line style="stroke: #A80036; stroke-width: 1.5;" x1="1598" x2="1806" y1="416" y2="416"/><line style="stroke: #A80036; stroke-width: 1.5;" x1="1598" x2="1806" y1="424" y2="424"/><rect fill="#FEFECE" filter="url(#f1)" height="48" style="stroke: #A80036; stroke-width: 1.5;" width="201" x="1863" y="168"/><ellipse cx="1878" cy="184" fill="#ADD1B2" rx="11" ry="11" style="stroke: #A80036; stroke-width: 1.0;"/><path d="M1880.9688,189.6406 Q1880.3906,189.9375 1879.75,190.0859 Q1879.1094,190.2344 1878.4063,190.2344 Q1875.9063,190.2344 1874.5859,188.5859 Q1873.2656,186.9375 1873.2656,183.8125 Q1873.2656,180.6875 1874.5859,179.0313 Q1875.9063,177.375 1878.4063,177.375 Q1879.1094,177.375 1879.7578,177.5313 Q1880.4063,177.6875 1880.9688,177.9844 L1880.9688,180.7031 Q1880.3438,180.125 1879.75,179.8516 Q1879.1563,179.5781 1878.5313,179.5781 Q1877.1875,179.5781 1876.5,180.6484 Q1875.8125,181.7188 1875.8125,183.8125 Q1875.8125,185.9063 1876.5,186.9766 Q1877.1875,188.0469 1878.5313,188.0469 Q1879.1563,188.0469 1879.75,187.7734 Q1880.3438,187.5 1880.9688,186.9219 L1880.9688,189.6406 Z "/><text fill="#000000" font-family="sans-serif" font-size="12" lengthAdjust="spacingAndGlyphs" textLength="169" x="1892" y="188.1543">AttributeMappingException</text><line style="stroke: #A80036; stroke-width: 1.5;" x1="1864" x2="2063" y1="200" y2="200"/><line style="stroke: #A80036; stroke-width: 1.5;" x1="1864" x2="2063" y1="208" y2="208"/><rect fill="#FEFECE" filter="url(#f1)" height="48" style="stroke: #A80036; stroke-width: 1.5;" width="120" x="2119" y="168"/><ellipse cx="2134" cy="184" fill="#ADD1B2" rx="11" ry="11" style="stroke: #A80036; stroke-width: 1.0;"/><path d="M2136.9688,189.6406 Q2136.3906,189.9375 2135.75,190.0859 Q2135.1094,190.2344 2134.4063,190.2344 Q2131.9063,190.2344 2130.5859,188.5859 Q2129.2656,186.9375 2129.2656,183.8125 Q2129.2656,180.6875 2130.5859,179.0313 Q2131.9063,177.375 2134.4063,177.375 Q2135.1094,177.375 2135.7578,177.5313 Q2136.4063,177.6875 2136.9688,177.9844 L2136.9688,180.7031 Q2136.3438,180.125 2135.75,179.8516 Q2135.1563,179.5781 2134.5313,179.5781 Q2133.1875,179.5781 2132.5,180.6484 Q2131.8125,181.7188 2131.8125,183.8125 Q2131.8125,185.9063 2132.5,186.9766 Q2133.1875,188.0469 2134.5313,188.0469 Q2135.1563,188.0469 2135.75,187.7734 Q2136.3438,187.5 2136.9688,186.9219 L2136.9688,189.6406 Z "/><text fill="#000000" font-family="sans-serif" font-size="12" lengthAdjust="spacingAndGlyphs" textLength="88" x="2148" y="188.1543">HttpException</text><line style="stroke: #A80036; stroke-width: 1.5;" x1="2120" x2="2238" y1="200" y2="200"/><line style="stroke: #A80036; stroke-width: 1.5;" x1="2120" x2="2238" y1="208" y2="208"/><rect fill="#FEFECE" filter="url(#f1)" height="48" style="stroke: #A80036; stroke-width: 1.5;" width="119" x="2305" y="168"/><ellipse cx="2320" cy="184" fill="#ADD1B2" rx="11" ry="11" style="stroke: #A80036; stroke-width: 1.0;"/><path d="M2322.9688,189.6406 Q2322.3906,189.9375 2321.75,190.0859 Q2321.1094,190.2344 2320.4063,190.2344 Q2317.9063,190.2344 2316.5859,188.5859 Q2315.2656,186.9375 2315.2656,183.8125 Q2315.2656,180.6875 2316.5859,179.0313 Q2317.9063,177.375 2320.4063,177.375 Q2321.1094,177.375 2321.7578,177.5313 Q2322.4063,177.6875 2322.9688,177.9844 L2322.9688,180.7031 Q2322.3438,180.125 2321.75,179.8516 Q2321.1563,179.5781 2320.5313,179.5781 Q2319.1875,179.5781 2318.5,180.6484 Q2317.8125,181.7188 2317.8125,183.8125 Q2317.8125,185.9063 2318.5,186.9766 Q2319.1875,188.0469 2320.5313,188.0469 Q2321.1563,188.0469 2321.75,187.7734 Q2322.3438,187.5 2322.9688,186.9219 L2322.9688,189.6406 Z "/><text fill="#000000" font-family="sans-serif" font-size="12" lengthAdjust="spacingAndGlyphs" textLength="87" x="2334" y="188.1543">JsonException</text><line style="stroke: #A80036; stroke-width: 1.5;" x1="2306" x2="2423" y1="200" y2="200"/><line style="stroke: #A80036; stroke-width: 1.5;" x1="2306" x2="2423" y1="208" y2="208"/><path d="M1807.56,116.651 C1812.79,119.13 1817.98,121.6 1823,124 C1853.23,138.453 1887.02,154.859 1913.83,167.935 " fill="none" style="stroke: #A80036; stroke-width: 1.0;"/><polygon fill="none" points="1804.38,122.888,1789.29,108.012,1810.36,110.231,1804.38,122.888" style="stroke: #A80036; stroke-width: 1.0;"/><path d="M1827.18,92.243 C1920.27,101.202 2055.9,115.386 2079,124 C2105.75,133.977 2132.3,152.545 2151.32,167.76 " fill="none" style="stroke: #A80036; stroke-width: 1.0;"/><polygon fill="none" points="1826.39,99.2,1807.15,90.333,1827.72,85.263,1826.39,99.2" style="stroke: #A80036; stroke-width: 1.0;"/><path d="M1827.33,85.796 C1953.75,89.208 2178.04,98.708 2255,124 C2284.03,133.539 2313.21,152.343 2334.06,167.764 " fill="none" style="stroke: #A80036; stroke-width: 1.0;"/><polygon fill="none" points="1826.99,92.79,1807.17,85.281,1827.34,78.794,1826.99,92.79" style="stroke: #A80036; stroke-width: 1.0;"/><path d="M1648.71,95.563 C1488.97,116.249 1155.98,159.369 995.01,180.214 " fill="none" style="stroke: #A80036; stroke-width: 1.0;"/><polygon fill="none" points="1647.95,88.603,1668.68,92.976,1649.75,102.487,1647.95,88.603" style="stroke: #A80036; stroke-width: 1.0;"/><path d="M793.397,220.853 C725.695,238.514 640.281,260.796 577.342,277.215 " fill="none" style="stroke: #A80036; stroke-width: 1.0;"/><polygon fill="none" points="791.77,214.043,812.89,215.768,795.304,227.59,791.77,214.043" style="stroke: #A80036; stroke-width: 1.0;"/><path d="M838.242,225.342 C805.952,241.714 767.778,261.07 738.391,275.971 " fill="none" style="stroke: #A80036; stroke-width: 1.0;"/><polygon fill="none" points="835.46,218.904,856.464,216.103,841.791,231.391,835.46,218.904" style="stroke: #A80036; stroke-width: 1.0;"/><path d="M592.317,324.098 C426.949,357.022 380.728,352.549 223,384 C217.521,385.093 211.887,386.272 206.218,387.502 " fill="none" style="stroke: #A80036; stroke-width: 1.0;"/><polygon fill="none" points="590.989,317.225,611.98,320.12,593.765,330.947,590.989,317.225" style="stroke: #A80036; stroke-width: 1.0;"/><path d="M125.691,452.291 C126.818,465.817 128.015,480.1835 128.987,491.8436 " fill="none" style="stroke: #A80036; stroke-width: 1.0;"/><polygon fill="none" points="118.705,452.75,124.02,432.237,132.657,451.587,118.705,452.75" style="stroke: #A80036; stroke-width: 1.0;"/><path d="M597.852,330.393 C545.892,347.346 482.086,368.165 433.645,383.971 " fill="none" style="stroke: #A80036; stroke-width: 1.0;"/><polygon fill="none" points="595.944,323.652,617.129,324.103,600.287,336.961,595.944,323.652" style="stroke: #A80036; stroke-width: 1.0;"/><path d="M654.863,339.028 C640.993,354.008 625.577,370.657 613.367,383.844 " fill="none" style="stroke: #A80036; stroke-width: 1.0;"/><polygon fill="none" points="649.834,334.157,668.558,324.237,660.106,343.668,649.834,334.157" style="stroke: #A80036; stroke-width: 1.0;"/><path d="M727.137,339.028 C741.007,354.008 756.423,370.657 768.633,383.844 " fill="none" style="stroke: #A80036; stroke-width: 1.0;"/><polygon fill="none" points="721.894,343.668,713.442,324.237,732.166,334.157,721.894,343.668" style="stroke: #A80036; stroke-width: 1.0;"/><path d="M748.945,445.849 C731.967,461.129 712.878,478.3096 697.84,491.8436 " fill="none" style="stroke: #A80036; stroke-width: 1.0;"/><polygon fill="none" points="744.521,440.414,764.07,432.237,753.887,450.82,744.521,440.414" style="stroke: #A80036; stroke-width: 1.0;"/><path d="M832.704,445.849 C849.541,461.129 868.471,478.3096 883.383,491.8436 " fill="none" style="stroke: #A80036; stroke-width: 1.0;"/><polygon fill="none" points="827.812,450.862,817.706,432.237,837.22,440.495,827.812,450.862" style="stroke: #A80036; stroke-width: 1.0;"/><path d="M993.058,222.729 C1042.01,239.621 1101.86,260.27 1147.36,275.971 " fill="none" style="stroke: #A80036; stroke-width: 1.0;"/><polygon fill="none" points="990.477,229.244,973.854,216.103,995.043,216.009,990.477,229.244" style="stroke: #A80036; stroke-width: 1.0;"/><path d="M1150.16,333.113 C1117.02,349.533 1077.72,369.001 1047.5,383.971 " fill="none" style="stroke: #A80036; stroke-width: 1.0;"/><polygon fill="none" points="1147.32,326.709,1168.35,324.103,1153.53,339.254,1147.32,326.709" style="stroke: #A80036; stroke-width: 1.0;"/><path d="M1217,344.291 C1217,357.817 1217,372.184 1217,383.844 " fill="none" style="stroke: #A80036; stroke-width: 1.0;"/><polygon fill="none" points="1210,344.237,1217,324.237,1224,344.237,1210,344.237" style="stroke: #A80036; stroke-width: 1.0;"/><path d="M1288.76,332.427 C1325.41,348.989 1369.23,368.792 1402.82,383.971 " fill="none" style="stroke: #A80036; stroke-width: 1.0;"/><polygon fill="none" points="1285.68,338.718,1270.34,324.103,1291.45,325.96,1285.68,338.718" style="stroke: #A80036; stroke-width: 1.0;"/><path d="M1319.01,322.716 C1400.56,340.876 1514.47,366.242 1596.84,384.584 " fill="none" style="stroke: #A80036; stroke-width: 1.0;"/><polygon fill="none" points="1317.27,329.501,1299.27,318.321,1320.32,315.835,1317.27,329.501" style="stroke: #A80036; stroke-width: 1.0;"/></g></svg>