<?xml version="1.0" encoding="UTF-8" standalone="yes"?><svg xmlns="http://www.w3.org/2000/svg" xmlns:xlink="http://www.w3.org/1999/xlink" height="573pt" style="width:2104px;height:573px;" version="1.1" viewBox="0 0 2104 573" width="2104pt"><defs><filter height="300%" id="f1" width="300%" x="-1" y="-1"><feGaussianBlur result="blurOut" stdDeviation="2.0"/><feColorMatrix in="blurOut" result="blurOut2" type="matrix" values="0 0 0 0 0 0 0 0 0 0 0 0 0 0 0 0 0 0 .4 0"/><feOffset dx="4.0" dy="4.0" in="blurOut2" result="blurOut3"/><feBlend in="SourceGraphic" in2="blurOut3" mode="normal"/></filter></defs><g><polygon fill="#FFFFFF" filter="url(#f1)" points="529,24,684,24,691,43.9923,695,43.9923,695,121,529,121,529,24" style="stroke: #000000; stroke-width: 2.0;"/><line style="stroke: #000000; stroke-width: 2.0;" x1="529" x2="691" y1="43.9923" y2="43.9923"/><text fill="#000000" font-family="sans-serif" font-size="14" font-weight="bold" lengthAdjust="spacingAndGlyphs" textLength="149" x="532" y="38.3128">io.sphere.sdk.models</text><polygon fill="#FFFFFF" filter="url(#f1)" points="22,145,156,145,163,164.9923,167,164.9923,167,242,22,242,22,145" style="stroke: #000000; stroke-width: 2.0;"/><line style="stroke: #000000; stroke-width: 2.0;" x1="22" x2="163" y1="164.9923" y2="164.9923"/><text fill="#000000" font-family="sans-serif" font-size="14" font-weight="bold" lengthAdjust="spacingAndGlyphs" textLength="128" x="25" y="159.3128">io.sphere.sdk.json</text><polygon fill="#FFFFFF" filter="url(#f1)" points="191,145,332,145,339,164.9923,2097,164.9923,2097,566,191,566,191,145" style="stroke: #000000; stroke-width: 2.0;"/><line style="stroke: #000000; stroke-width: 2.0;" x1="191" x2="339" y1="164.9923" y2="164.9923"/><text fill="#000000" font-family="sans-serif" font-size="14" font-weight="bold" lengthAdjust="spacingAndGlyphs" textLength="135" x="194" y="159.3128">io.sphere.sdk.client</text><rect fill="#FEFECE" filter="url(#f1)" height="48" style="stroke: #A80036; stroke-width: 1.5;" width="124" x="550.5" y="57"/><ellipse cx="565.5" cy="73" fill="#ADD1B2" rx="11" ry="11" style="stroke: #A80036; stroke-width: 1.0;"/><path d="M567.8438,68.6719 L568.0156,68.75 C568.2344,68.4375 568.4375,68.3438 568.7344,68.3438 C569.0313,68.3438 569.3125,68.4844 569.4688,68.75 C569.5625,68.9063 569.5781,69.0313 569.5781,69.4688 L569.5781,70.8906 C569.5781,71.3125 569.5469,71.5 569.4375,71.6563 C569.2656,71.875 569,72.0156 568.7344,72.0156 C568.5156,72.0156 568.2813,71.9063 568.1406,71.7656 C568,71.6406 567.9688,71.5156 567.9063,71.1094 C567.8125,70.7031 567.6406,70.4844 567.1563,70.2031 C566.6875,69.9531 566.0781,69.7969 565.5,69.7969 C563.7656,69.7969 562.5156,71.1094 562.5156,72.8906 L562.5156,73.9844 C562.5156,75.6875 563.8125,76.7813 565.8594,76.7813 C566.625,76.7813 567.3125,76.6563 567.7344,76.3906 C567.9219,76.2969 567.9219,76.2969 568.375,75.8125 C568.5625,75.625 568.7656,75.5469 568.9844,75.5469 C569.4531,75.5469 569.8438,75.9375 569.8438,76.3906 C569.8438,76.7813 569.5156,77.2344 568.9375,77.6406 C568.1875,78.1875 567.0313,78.4844 565.8125,78.4844 C562.9219,78.4844 560.8125,76.5938 560.8125,74.0156 L560.8125,72.8906 C560.8125,70.1719 562.8125,68.0938 565.4375,68.0938 C566.3125,68.0938 566.9063,68.2344 567.8438,68.6719 Z "/><text fill="#000000" font-family="sans-serif" font-size="12" lengthAdjust="spacingAndGlyphs" textLength="92" x="579.5" y="76.7">SphereException</text><line style="stroke: #A80036; stroke-width: 1.5;" x1="551.5" x2="673.5" y1="89" y2="89"/><line style="stroke: #A80036; stroke-width: 1.5;" x1="551.5" x2="673.5" y1="97" y2="97"/><rect fill="#FEFECE" filter="url(#f1)" height="48" style="stroke: #A80036; stroke-width: 1.5;" width="111" x="40.75" y="178"/><ellipse cx="55.75" cy="194" fill="#ADD1B2" rx="11" ry="11" style="stroke: #A80036; stroke-width: 1.0;"/><path d="M58.0938,189.6719 L58.2656,189.75 C58.4844,189.4375 58.6875,189.3438 58.9844,189.3438 C59.2813,189.3438 59.5625,189.4844 59.7188,189.75 C59.8125,189.9063 59.8281,190.0313 59.8281,190.4688 L59.8281,191.8906 C59.8281,192.3125 59.7969,192.5 59.6875,192.6563 C59.5156,192.875 59.25,193.0156 58.9844,193.0156 C58.7656,193.0156 58.5313,192.9063 58.3906,192.7656 C58.25,192.6406 58.2188,192.5156 58.1563,192.1094 C58.0625,191.7031 57.8906,191.4844 57.4063,191.2031 C56.9375,190.9531 56.3281,190.7969 55.75,190.7969 C54.0156,190.7969 52.7656,192.1094 52.7656,193.8906 L52.7656,194.9844 C52.7656,196.6875 54.0625,197.7813 56.1094,197.7813 C56.875,197.7813 57.5625,197.6563 57.9844,197.3906 C58.1719,197.2969 58.1719,197.2969 58.625,196.8125 C58.8125,196.625 59.0156,196.5469 59.2344,196.5469 C59.7031,196.5469 60.0938,196.9375 60.0938,197.3906 C60.0938,197.7813 59.7656,198.2344 59.1875,198.6406 C58.4375,199.1875 57.2813,199.4844 56.0625,199.4844 C53.1719,199.4844 51.0625,197.5938 51.0625,195.0156 L51.0625,193.8906 C51.0625,191.1719 53.0625,189.0938 55.6875,189.0938 C56.5625,189.0938 57.1563,189.2344 58.0938,189.6719 Z "/><text fill="#000000" font-family="sans-serif" font-size="12" lengthAdjust="spacingAndGlyphs" textLength="79" x="69.75" y="197.7">JsonException</text><line style="stroke: #A80036; stroke-width: 1.5;" x1="41.75" x2="150.75" y1="210" y2="210"/><line style="stroke: #A80036; stroke-width: 1.5;" x1="41.75" x2="150.75" y1="218" y2="218"/><rect fill="#FEFECE" filter="url(#f1)" height="48" style="stroke: #A80036; stroke-width: 1.5;" width="190" x="831" y="178"/><ellipse cx="846" cy="194" fill="#ADD1B2" rx="11" ry="11" style="stroke: #A80036; stroke-width: 1.0;"/><path d="M848.3438,189.6719 L848.5156,189.75 C848.7344,189.4375 848.9375,189.3438 849.2344,189.3438 C849.5313,189.3438 849.8125,189.4844 849.9688,189.75 C850.0625,189.9063 850.0781,190.0313 850.0781,190.4688 L850.0781,191.8906 C850.0781,192.3125 850.0469,192.5 849.9375,192.6563 C849.7656,192.875 849.5,193.0156 849.2344,193.0156 C849.0156,193.0156 848.7813,192.9063 848.6406,192.7656 C848.5,192.6406 848.4688,192.5156 848.4063,192.1094 C848.3125,191.7031 848.1406,191.4844 847.6563,191.2031 C847.1875,190.9531 846.5781,190.7969 846,190.7969 C844.2656,190.7969 843.0156,192.1094 843.0156,193.8906 L843.0156,194.9844 C843.0156,196.6875 844.3125,197.7813 846.3594,197.7813 C847.125,197.7813 847.8125,197.6563 848.2344,197.3906 C848.4219,197.2969 848.4219,197.2969 848.875,196.8125 C849.0625,196.625 849.2656,196.5469 849.4844,196.5469 C849.9531,196.5469 850.3438,196.9375 850.3438,197.3906 C850.3438,197.7813 850.0156,198.2344 849.4375,198.6406 C848.6875,199.1875 847.5313,199.4844 846.3125,199.4844 C843.4219,199.4844 841.3125,197.5938 841.3125,195.0156 L841.3125,193.8906 C841.3125,191.1719 843.3125,189.0938 845.9375,189.0938 C846.8125,189.0938 847.4063,189.2344 848.3438,189.6719 Z "/><text fill="#000000" font-family="sans-serif" font-size="12" lengthAdjust="spacingAndGlyphs" textLength="158" x="860" y="197.7">SphereDeprecationException</text><line style="stroke: #A80036; stroke-width: 1.5;" x1="832" x2="1020" y1="210" y2="210"/><line style="stroke: #A80036; stroke-width: 1.5;" x1="832" x2="1020" y1="218" y2="218"/><rect fill="#FEFECE" filter="url(#f1)" height="48" style="stroke: #A80036; stroke-width: 1.5;" width="165" x="630.75" y="178"/><ellipse cx="645.75" cy="194" fill="#ADD1B2" rx="11" ry="11" style="stroke: #A80036; stroke-width: 1.0;"/><path d="M648.0938,189.6719 L648.2656,189.75 C648.4844,189.4375 648.6875,189.3438 648.9844,189.3438 C649.2813,189.3438 649.5625,189.4844 649.7188,189.75 C649.8125,189.9063 649.8281,190.0313 649.8281,190.4688 L649.8281,191.8906 C649.8281,192.3125 649.7969,192.5 649.6875,192.6563 C649.5156,192.875 649.25,193.0156 648.9844,193.0156 C648.7656,193.0156 648.5313,192.9063 648.3906,192.7656 C648.25,192.6406 648.2188,192.5156 648.1563,192.1094 C648.0625,191.7031 647.8906,191.4844 647.4063,191.2031 C646.9375,190.9531 646.3281,190.7969 645.75,190.7969 C644.0156,190.7969 642.7656,192.1094 642.7656,193.8906 L642.7656,194.9844 C642.7656,196.6875 644.0625,197.7813 646.1094,197.7813 C646.875,197.7813 647.5625,197.6563 647.9844,197.3906 C648.1719,197.2969 648.1719,197.2969 648.625,196.8125 C648.8125,196.625 649.0156,196.5469 649.2344,196.5469 C649.7031,196.5469 650.0938,196.9375 650.0938,197.3906 C650.0938,197.7813 649.7656,198.2344 649.1875,198.6406 C648.4375,199.1875 647.2813,199.4844 646.0625,199.4844 C643.1719,199.4844 641.0625,197.5938 641.0625,195.0156 L641.0625,193.8906 C641.0625,191.1719 643.0625,189.0938 645.6875,189.0938 C646.5625,189.0938 647.1563,189.2344 648.0938,189.6719 Z "/><text fill="#000000" font-family="sans-serif" font-size="12" lengthAdjust="spacingAndGlyphs" textLength="133" x="659.75" y="197.7">SphereServiceException</text><line style="stroke: #A80036; stroke-width: 1.5;" x1="631.75" x2="794.75" y1="210" y2="210"/><line style="stroke: #A80036; stroke-width: 1.5;" x1="631.75" x2="794.75" y1="218" y2="218"/><rect fill="#FEFECE" filter="url(#f1)" height="48" style="stroke: #A80036; stroke-width: 1.5;" width="144" x="641" y="286"/><ellipse cx="656" cy="302" fill="#ADD1B2" rx="11" ry="11" style="stroke: #A80036; stroke-width: 1.0;"/><path d="M658.3438,297.6719 L658.5156,297.75 C658.7344,297.4375 658.9375,297.3438 659.2344,297.3438 C659.5313,297.3438 659.8125,297.4844 659.9688,297.75 C660.0625,297.9063 660.0781,298.0313 660.0781,298.4688 L660.0781,299.8906 C660.0781,300.3125 660.0469,300.5 659.9375,300.6563 C659.7656,300.875 659.5,301.0156 659.2344,301.0156 C659.0156,301.0156 658.7813,300.9063 658.6406,300.7656 C658.5,300.6406 658.4688,300.5156 658.4063,300.1094 C658.3125,299.7031 658.1406,299.4844 657.6563,299.2031 C657.1875,298.9531 656.5781,298.7969 656,298.7969 C654.2656,298.7969 653.0156,300.1094 653.0156,301.8906 L653.0156,302.9844 C653.0156,304.6875 654.3125,305.7813 656.3594,305.7813 C657.125,305.7813 657.8125,305.6563 658.2344,305.3906 C658.4219,305.2969 658.4219,305.2969 658.875,304.8125 C659.0625,304.625 659.2656,304.5469 659.4844,304.5469 C659.9531,304.5469 660.3438,304.9375 660.3438,305.3906 C660.3438,305.7813 660.0156,306.2344 659.4375,306.6406 C658.6875,307.1875 657.5313,307.4844 656.3125,307.4844 C653.4219,307.4844 651.3125,305.5938 651.3125,303.0156 L651.3125,301.8906 C651.3125,299.1719 653.3125,297.0938 655.9375,297.0938 C656.8125,297.0938 657.4063,297.2344 658.3438,297.6719 Z "/><text fill="#000000" font-family="sans-serif" font-size="12" lengthAdjust="spacingAndGlyphs" textLength="112" x="670" y="305.7">ClientErrorException</text><line style="stroke: #A80036; stroke-width: 1.5;" x1="642" x2="784" y1="318" y2="318"/><line style="stroke: #A80036; stroke-width: 1.5;" x1="642" x2="784" y1="326" y2="326"/><rect fill="#FEFECE" filter="url(#f1)" height="48" style="stroke: #A80036; stroke-width: 1.5;" width="153" x="207.75" y="394"/><ellipse cx="222.75" cy="410" fill="#ADD1B2" rx="11" ry="11" style="stroke: #A80036; stroke-width: 1.0;"/><path d="M225.0938,405.6719 L225.2656,405.75 C225.4844,405.4375 225.6875,405.3438 225.9844,405.3438 C226.2813,405.3438 226.5625,405.4844 226.7188,405.75 C226.8125,405.9063 226.8281,406.0313 226.8281,406.4688 L226.8281,407.8906 C226.8281,408.3125 226.7969,408.5 226.6875,408.6563 C226.5156,408.875 226.25,409.0156 225.9844,409.0156 C225.7656,409.0156 225.5313,408.9063 225.3906,408.7656 C225.25,408.6406 225.2188,408.5156 225.1563,408.1094 C225.0625,407.7031 224.8906,407.4844 224.4063,407.2031 C223.9375,406.9531 223.3281,406.7969 222.75,406.7969 C221.0156,406.7969 219.7656,408.1094 219.7656,409.8906 L219.7656,410.9844 C219.7656,412.6875 221.0625,413.7813 223.1094,413.7813 C223.875,413.7813 224.5625,413.6563 224.9844,413.3906 C225.1719,413.2969 225.1719,413.2969 225.625,412.8125 C225.8125,412.625 226.0156,412.5469 226.2344,412.5469 C226.7031,412.5469 227.0938,412.9375 227.0938,413.3906 C227.0938,413.7813 226.7656,414.2344 226.1875,414.6406 C225.4375,415.1875 224.2813,415.4844 223.0625,415.4844 C220.1719,415.4844 218.0625,413.5938 218.0625,411.0156 L218.0625,409.8906 C218.0625,407.1719 220.0625,405.0938 222.6875,405.0938 C223.5625,405.0938 224.1563,405.2344 225.0938,405.6719 Z "/><text fill="#000000" font-family="sans-serif" font-size="12" lengthAdjust="spacingAndGlyphs" textLength="121" x="236.75" y="413.7">BadRequestException</text><line style="stroke: #A80036; stroke-width: 1.5;" x1="208.75" x2="359.75" y1="426" y2="426"/><line style="stroke: #A80036; stroke-width: 1.5;" x1="208.75" x2="359.75" y1="434" y2="434"/><rect fill="#FEFECE" filter="url(#f1)" height="48" style="stroke: #A80036; stroke-width: 1.5;" width="167" x="206.75" y="502"/><ellipse cx="221.75" cy="518" fill="#ADD1B2" rx="11" ry="11" style="stroke: #A80036; stroke-width: 1.0;"/><path d="M224.0938,513.6719 L224.2656,513.75 C224.4844,513.4375 224.6875,513.3438 224.9844,513.3438 C225.2813,513.3438 225.5625,513.4844 225.7188,513.75 C225.8125,513.9063 225.8281,514.0313 225.8281,514.4688 L225.8281,515.8906 C225.8281,516.3125 225.7969,516.5 225.6875,516.6563 C225.5156,516.875 225.25,517.0156 224.9844,517.0156 C224.7656,517.0156 224.5313,516.9063 224.3906,516.7656 C224.25,516.6406 224.2188,516.5156 224.1563,516.1094 C224.0625,515.7031 223.8906,515.4844 223.4063,515.2031 C222.9375,514.9531 222.3281,514.7969 221.75,514.7969 C220.0156,514.7969 218.7656,516.1094 218.7656,517.8906 L218.7656,518.9844 C218.7656,520.6875 220.0625,521.7813 222.1094,521.7813 C222.875,521.7813 223.5625,521.6563 223.9844,521.3906 C224.1719,521.2969 224.1719,521.2969 224.625,520.8125 C224.8125,520.625 225.0156,520.5469 225.2344,520.5469 C225.7031,520.5469 226.0938,520.9375 226.0938,521.3906 C226.0938,521.7813 225.7656,522.2344 225.1875,522.6406 C224.4375,523.1875 223.2813,523.4844 222.0625,523.4844 C219.1719,523.4844 217.0625,521.5938 217.0625,519.0156 L217.0625,517.8906 C217.0625,515.1719 219.0625,513.0938 221.6875,513.0938 C222.5625,513.0938 223.1563,513.2344 224.0938,513.6719 Z "/><text fill="#000000" font-family="sans-serif" font-size="12" lengthAdjust="spacingAndGlyphs" textLength="135" x="235.75" y="521.7">ErrorResponseException</text><line style="stroke: #A80036; stroke-width: 1.5;" x1="207.75" x2="372.75" y1="534" y2="534"/><line style="stroke: #A80036; stroke-width: 1.5;" x1="207.75" x2="372.75" y1="542" y2="542"/><rect fill="#FEFECE" filter="url(#f1)" height="48" style="stroke: #A80036; stroke-width: 1.5;" width="212" x="396.5" y="394"/><ellipse cx="411.5" cy="410" fill="#ADD1B2" rx="11" ry="11" style="stroke: #A80036; stroke-width: 1.0;"/><path d="M413.8438,405.6719 L414.0156,405.75 C414.2344,405.4375 414.4375,405.3438 414.7344,405.3438 C415.0313,405.3438 415.3125,405.4844 415.4688,405.75 C415.5625,405.9063 415.5781,406.0313 415.5781,406.4688 L415.5781,407.8906 C415.5781,408.3125 415.5469,408.5 415.4375,408.6563 C415.2656,408.875 415,409.0156 414.7344,409.0156 C414.5156,409.0156 414.2813,408.9063 414.1406,408.7656 C414,408.6406 413.9688,408.5156 413.9063,408.1094 C413.8125,407.7031 413.6406,407.4844 413.1563,407.2031 C412.6875,406.9531 412.0781,406.7969 411.5,406.7969 C409.7656,406.7969 408.5156,408.1094 408.5156,409.8906 L408.5156,410.9844 C408.5156,412.6875 409.8125,413.7813 411.8594,413.7813 C412.625,413.7813 413.3125,413.6563 413.7344,413.3906 C413.9219,413.2969 413.9219,413.2969 414.375,412.8125 C414.5625,412.625 414.7656,412.5469 414.9844,412.5469 C415.4531,412.5469 415.8438,412.9375 415.8438,413.3906 C415.8438,413.7813 415.5156,414.2344 414.9375,414.6406 C414.1875,415.1875 413.0313,415.4844 411.8125,415.4844 C408.9219,415.4844 406.8125,413.5938 406.8125,411.0156 L406.8125,409.8906 C406.8125,407.1719 408.8125,405.0938 411.4375,405.0938 C412.3125,405.0938 412.9063,405.2344 413.8438,405.6719 Z "/><text fill="#000000" font-family="sans-serif" font-size="12" lengthAdjust="spacingAndGlyphs" textLength="180" x="425.5" y="413.7">ConcurrentModificationException</text><line style="stroke: #A80036; stroke-width: 1.5;" x1="397.5" x2="607.5" y1="426" y2="426"/><line style="stroke: #A80036; stroke-width: 1.5;" x1="397.5" x2="607.5" y1="434" y2="434"/><rect fill="#FEFECE" filter="url(#f1)" height="48" style="stroke: #A80036; stroke-width: 1.5;" width="139" x="643.75" y="394"/><ellipse cx="658.75" cy="410" fill="#ADD1B2" rx="11" ry="11" style="stroke: #A80036; stroke-width: 1.0;"/><path d="M661.0938,405.6719 L661.2656,405.75 C661.4844,405.4375 661.6875,405.3438 661.9844,405.3438 C662.2813,405.3438 662.5625,405.4844 662.7188,405.75 C662.8125,405.9063 662.8281,406.0313 662.8281,406.4688 L662.8281,407.8906 C662.8281,408.3125 662.7969,408.5 662.6875,408.6563 C662.5156,408.875 662.25,409.0156 661.9844,409.0156 C661.7656,409.0156 661.5313,408.9063 661.3906,408.7656 C661.25,408.6406 661.2188,408.5156 661.1563,408.1094 C661.0625,407.7031 660.8906,407.4844 660.4063,407.2031 C659.9375,406.9531 659.3281,406.7969 658.75,406.7969 C657.0156,406.7969 655.7656,408.1094 655.7656,409.8906 L655.7656,410.9844 C655.7656,412.6875 657.0625,413.7813 659.1094,413.7813 C659.875,413.7813 660.5625,413.6563 660.9844,413.3906 C661.1719,413.2969 661.1719,413.2969 661.625,412.8125 C661.8125,412.625 662.0156,412.5469 662.2344,412.5469 C662.7031,412.5469 663.0938,412.9375 663.0938,413.3906 C663.0938,413.7813 662.7656,414.2344 662.1875,414.6406 C661.4375,415.1875 660.2813,415.4844 659.0625,415.4844 C656.1719,415.4844 654.0625,413.5938 654.0625,411.0156 L654.0625,409.8906 C654.0625,407.1719 656.0625,405.0938 658.6875,405.0938 C659.5625,405.0938 660.1563,405.2344 661.0938,405.6719 Z "/><text fill="#000000" font-family="sans-serif" font-size="12" lengthAdjust="spacingAndGlyphs" textLength="107" x="672.75" y="413.7">NotFoundException</text><line style="stroke: #A80036; stroke-width: 1.5;" x1="644.75" x2="781.75" y1="426" y2="426"/><line style="stroke: #A80036; stroke-width: 1.5;" x1="644.75" x2="781.75" y1="434" y2="434"/><rect fill="#FEFECE" filter="url(#f1)" height="48" style="stroke: #A80036; stroke-width: 1.5;" width="214" x="818.5" y="394"/><ellipse cx="833.5" cy="410" fill="#ADD1B2" rx="11" ry="11" style="stroke: #A80036; stroke-width: 1.0;"/><path d="M835.8438,405.6719 L836.0156,405.75 C836.2344,405.4375 836.4375,405.3438 836.7344,405.3438 C837.0313,405.3438 837.3125,405.4844 837.4688,405.75 C837.5625,405.9063 837.5781,406.0313 837.5781,406.4688 L837.5781,407.8906 C837.5781,408.3125 837.5469,408.5 837.4375,408.6563 C837.2656,408.875 837,409.0156 836.7344,409.0156 C836.5156,409.0156 836.2813,408.9063 836.1406,408.7656 C836,408.6406 835.9688,408.5156 835.9063,408.1094 C835.8125,407.7031 835.6406,407.4844 835.1563,407.2031 C834.6875,406.9531 834.0781,406.7969 833.5,406.7969 C831.7656,406.7969 830.5156,408.1094 830.5156,409.8906 L830.5156,410.9844 C830.5156,412.6875 831.8125,413.7813 833.8594,413.7813 C834.625,413.7813 835.3125,413.6563 835.7344,413.3906 C835.9219,413.2969 835.9219,413.2969 836.375,412.8125 C836.5625,412.625 836.7656,412.5469 836.9844,412.5469 C837.4531,412.5469 837.8438,412.9375 837.8438,413.3906 C837.8438,413.7813 837.5156,414.2344 836.9375,414.6406 C836.1875,415.1875 835.0313,415.4844 833.8125,415.4844 C830.9219,415.4844 828.8125,413.5938 828.8125,411.0156 L828.8125,409.8906 C828.8125,407.1719 830.8125,405.0938 833.4375,405.0938 C834.3125,405.0938 834.9063,405.2344 835.8438,405.6719 Z "/><text fill="#000000" font-family="sans-serif" font-size="12" lengthAdjust="spacingAndGlyphs" textLength="182" x="847.5" y="413.7">RequestEntityTooLargeException</text><line style="stroke: #A80036; stroke-width: 1.5;" x1="819.5" x2="1031.5" y1="426" y2="426"/><line style="stroke: #A80036; stroke-width: 1.5;" x1="819.5" x2="1031.5" y1="434" y2="434"/><rect fill="#FEFECE" filter="url(#f1)" height="48" style="stroke: #A80036; stroke-width: 1.5;" width="159" x="1066.75" y="394"/><ellipse cx="1081.75" cy="410" fill="#ADD1B2" rx="11" ry="11" style="stroke: #A80036; stroke-width: 1.0;"/><path d="M1084.0938,405.6719 L1084.2656,405.75 C1084.4844,405.4375 1084.6875,405.3438 1084.9844,405.3438 C1085.2813,405.3438 1085.5625,405.4844 1085.7188,405.75 C1085.8125,405.9063 1085.8281,406.0313 1085.8281,406.4688 L1085.8281,407.8906 C1085.8281,408.3125 1085.7969,408.5 1085.6875,408.6563 C1085.5156,408.875 1085.25,409.0156 1084.9844,409.0156 C1084.7656,409.0156 1084.5313,408.9063 1084.3906,408.7656 C1084.25,408.6406 1084.2188,408.5156 1084.1563,408.1094 C1084.0625,407.7031 1083.8906,407.4844 1083.4063,407.2031 C1082.9375,406.9531 1082.3281,406.7969 1081.75,406.7969 C1080.0156,406.7969 1078.7656,408.1094 1078.7656,409.8906 L1078.7656,410.9844 C1078.7656,412.6875 1080.0625,413.7813 1082.1094,413.7813 C1082.875,413.7813 1083.5625,413.6563 1083.9844,413.3906 C1084.1719,413.2969 1084.1719,413.2969 1084.625,412.8125 C1084.8125,412.625 1085.0156,412.5469 1085.2344,412.5469 C1085.7031,412.5469 1086.0938,412.9375 1086.0938,413.3906 C1086.0938,413.7813 1085.7656,414.2344 1085.1875,414.6406 C1084.4375,415.1875 1083.2813,415.4844 1082.0625,415.4844 C1079.1719,415.4844 1077.0625,413.5938 1077.0625,411.0156 L1077.0625,409.8906 C1077.0625,407.1719 1079.0625,405.0938 1081.6875,405.0938 C1082.5625,405.0938 1083.1563,405.2344 1084.0938,405.6719 Z "/><text fill="#000000" font-family="sans-serif" font-size="12" lengthAdjust="spacingAndGlyphs" textLength="127" x="1095.75" y="413.7">UnauthorizedException</text><line style="stroke: #A80036; stroke-width: 1.5;" x1="1067.75" x2="1224.75" y1="426" y2="426"/><line style="stroke: #A80036; stroke-width: 1.5;" x1="1067.75" x2="1224.75" y1="434" y2="434"/><rect fill="#FEFECE" filter="url(#f1)" height="48" style="stroke: #A80036; stroke-width: 1.5;" width="216" x="927" y="502"/><ellipse cx="942" cy="518" fill="#ADD1B2" rx="11" ry="11" style="stroke: #A80036; stroke-width: 1.0;"/><path d="M944.3438,513.6719 L944.5156,513.75 C944.7344,513.4375 944.9375,513.3438 945.2344,513.3438 C945.5313,513.3438 945.8125,513.4844 945.9688,513.75 C946.0625,513.9063 946.0781,514.0313 946.0781,514.4688 L946.0781,515.8906 C946.0781,516.3125 946.0469,516.5 945.9375,516.6563 C945.7656,516.875 945.5,517.0156 945.2344,517.0156 C945.0156,517.0156 944.7813,516.9063 944.6406,516.7656 C944.5,516.6406 944.4688,516.5156 944.4063,516.1094 C944.3125,515.7031 944.1406,515.4844 943.6563,515.2031 C943.1875,514.9531 942.5781,514.7969 942,514.7969 C940.2656,514.7969 939.0156,516.1094 939.0156,517.8906 L939.0156,518.9844 C939.0156,520.6875 940.3125,521.7813 942.3594,521.7813 C943.125,521.7813 943.8125,521.6563 944.2344,521.3906 C944.4219,521.2969 944.4219,521.2969 944.875,520.8125 C945.0625,520.625 945.2656,520.5469 945.4844,520.5469 C945.9531,520.5469 946.3438,520.9375 946.3438,521.3906 C946.3438,521.7813 946.0156,522.2344 945.4375,522.6406 C944.6875,523.1875 943.5313,523.4844 942.3125,523.4844 C939.4219,523.4844 937.3125,521.5938 937.3125,519.0156 L937.3125,517.8906 C937.3125,515.1719 939.3125,513.0938 941.9375,513.0938 C942.8125,513.0938 943.4063,513.2344 944.3438,513.6719 Z "/><text fill="#000000" font-family="sans-serif" font-size="12" lengthAdjust="spacingAndGlyphs" textLength="184" x="956" y="521.7">InvalidClientCredentialsException</text><line style="stroke: #A80036; stroke-width: 1.5;" x1="928" x2="1142" y1="534" y2="534"/><line style="stroke: #A80036; stroke-width: 1.5;" x1="928" x2="1142" y1="542" y2="542"/><rect fill="#FEFECE" filter="url(#f1)" height="48" style="stroke: #A80036; stroke-width: 1.5;" width="155" x="1178.75" y="502"/><ellipse cx="1193.75" cy="518" fill="#ADD1B2" rx="11" ry="11" style="stroke: #A80036; stroke-width: 1.0;"/><path d="M1196.0938,513.6719 L1196.2656,513.75 C1196.4844,513.4375 1196.6875,513.3438 1196.9844,513.3438 C1197.2813,513.3438 1197.5625,513.4844 1197.7188,513.75 C1197.8125,513.9063 1197.8281,514.0313 1197.8281,514.4688 L1197.8281,515.8906 C1197.8281,516.3125 1197.7969,516.5 1197.6875,516.6563 C1197.5156,516.875 1197.25,517.0156 1196.9844,517.0156 C1196.7656,517.0156 1196.5313,516.9063 1196.3906,516.7656 C1196.25,516.6406 1196.2188,516.5156 1196.1563,516.1094 C1196.0625,515.7031 1195.8906,515.4844 1195.4063,515.2031 C1194.9375,514.9531 1194.3281,514.7969 1193.75,514.7969 C1192.0156,514.7969 1190.7656,516.1094 1190.7656,517.8906 L1190.7656,518.9844 C1190.7656,520.6875 1192.0625,521.7813 1194.1094,521.7813 C1194.875,521.7813 1195.5625,521.6563 1195.9844,521.3906 C1196.1719,521.2969 1196.1719,521.2969 1196.625,520.8125 C1196.8125,520.625 1197.0156,520.5469 1197.2344,520.5469 C1197.7031,520.5469 1198.0938,520.9375 1198.0938,521.3906 C1198.0938,521.7813 1197.7656,522.2344 1197.1875,522.6406 C1196.4375,523.1875 1195.2813,523.4844 1194.0625,523.4844 C1191.1719,523.4844 1189.0625,521.5938 1189.0625,519.0156 L1189.0625,517.8906 C1189.0625,515.1719 1191.0625,513.0938 1193.6875,513.0938 C1194.5625,513.0938 1195.1563,513.2344 1196.0938,513.6719 Z "/><text fill="#000000" font-family="sans-serif" font-size="12" lengthAdjust="spacingAndGlyphs" textLength="123" x="1207.75" y="521.7">InvalidTokenException</text><line style="stroke: #A80036; stroke-width: 1.5;" x1="1179.75" x2="1332.75" y1="534" y2="534"/><line style="stroke: #A80036; stroke-width: 1.5;" x1="1179.75" x2="1332.75" y1="542" y2="542"/><rect fill="#FEFECE" filter="url(#f1)" height="48" style="stroke: #A80036; stroke-width: 1.5;" width="148" x="1467" y="286"/><ellipse cx="1482" cy="302" fill="#ADD1B2" rx="11" ry="11" style="stroke: #A80036; stroke-width: 1.0;"/><path d="M1484.3438,297.6719 L1484.5156,297.75 C1484.7344,297.4375 1484.9375,297.3438 1485.2344,297.3438 C1485.5313,297.3438 1485.8125,297.4844 1485.9688,297.75 C1486.0625,297.9063 1486.0781,298.0313 1486.0781,298.4688 L1486.0781,299.8906 C1486.0781,300.3125 1486.0469,300.5 1485.9375,300.6563 C1485.7656,300.875 1485.5,301.0156 1485.2344,301.0156 C1485.0156,301.0156 1484.7813,300.9063 1484.6406,300.7656 C1484.5,300.6406 1484.4688,300.5156 1484.4063,300.1094 C1484.3125,299.7031 1484.1406,299.4844 1483.6563,299.2031 C1483.1875,298.9531 1482.5781,298.7969 1482,298.7969 C1480.2656,298.7969 1479.0156,300.1094 1479.0156,301.8906 L1479.0156,302.9844 C1479.0156,304.6875 1480.3125,305.7813 1482.3594,305.7813 C1483.125,305.7813 1483.8125,305.6563 1484.2344,305.3906 C1484.4219,305.2969 1484.4219,305.2969 1484.875,304.8125 C1485.0625,304.625 1485.2656,304.5469 1485.4844,304.5469 C1485.9531,304.5469 1486.3438,304.9375 1486.3438,305.3906 C1486.3438,305.7813 1486.0156,306.2344 1485.4375,306.6406 C1484.6875,307.1875 1483.5313,307.4844 1482.3125,307.4844 C1479.4219,307.4844 1477.3125,305.5938 1477.3125,303.0156 L1477.3125,301.8906 C1477.3125,299.1719 1479.3125,297.0938 1481.9375,297.0938 C1482.8125,297.0938 1483.4063,297.2344 1484.3438,297.6719 Z "/><text fill="#000000" font-family="sans-serif" font-size="12" lengthAdjust="spacingAndGlyphs" textLength="116" x="1496" y="305.7">ServerErrorException</text><line style="stroke: #A80036; stroke-width: 1.5;" x1="1468" x2="1614" y1="318" y2="318"/><line style="stroke: #A80036; stroke-width: 1.5;" x1="1468" x2="1614" y1="326" y2="326"/><rect fill="#FEFECE" filter="url(#f1)" height="48" style="stroke: #A80036; stroke-width: 1.5;" width="156" x="1261" y="394"/><ellipse cx="1276" cy="410" fill="#ADD1B2" rx="11" ry="11" style="stroke: #A80036; stroke-width: 1.0;"/><path d="M1278.3438,405.6719 L1278.5156,405.75 C1278.7344,405.4375 1278.9375,405.3438 1279.2344,405.3438 C1279.5313,405.3438 1279.8125,405.4844 1279.9688,405.75 C1280.0625,405.9063 1280.0781,406.0313 1280.0781,406.4688 L1280.0781,407.8906 C1280.0781,408.3125 1280.0469,408.5 1279.9375,408.6563 C1279.7656,408.875 1279.5,409.0156 1279.2344,409.0156 C1279.0156,409.0156 1278.7813,408.9063 1278.6406,408.7656 C1278.5,408.6406 1278.4688,408.5156 1278.4063,408.1094 C1278.3125,407.7031 1278.1406,407.4844 1277.6563,407.2031 C1277.1875,406.9531 1276.5781,406.7969 1276,406.7969 C1274.2656,406.7969 1273.0156,408.1094 1273.0156,409.8906 L1273.0156,410.9844 C1273.0156,412.6875 1274.3125,413.7813 1276.3594,413.7813 C1277.125,413.7813 1277.8125,413.6563 1278.2344,413.3906 C1278.4219,413.2969 1278.4219,413.2969 1278.875,412.8125 C1279.0625,412.625 1279.2656,412.5469 1279.4844,412.5469 C1279.9531,412.5469 1280.3438,412.9375 1280.3438,413.3906 C1280.3438,413.7813 1280.0156,414.2344 1279.4375,414.6406 C1278.6875,415.1875 1277.5313,415.4844 1276.3125,415.4844 C1273.4219,415.4844 1271.3125,413.5938 1271.3125,411.0156 L1271.3125,409.8906 C1271.3125,407.1719 1273.3125,405.0938 1275.9375,405.0938 C1276.8125,405.0938 1277.4063,405.2344 1278.3438,405.6719 Z "/><text fill="#000000" font-family="sans-serif" font-size="12" lengthAdjust="spacingAndGlyphs" textLength="124" x="1290" y="413.7">BadGatewayException</text><line style="stroke: #A80036; stroke-width: 1.5;" x1="1262" x2="1416" y1="426" y2="426"/><line style="stroke: #A80036; stroke-width: 1.5;" x1="1262" x2="1416" y1="434" y2="434"/><rect fill="#FEFECE" filter="url(#f1)" height="48" style="stroke: #A80036; stroke-width: 1.5;" width="178" x="1452.5" y="394"/><ellipse cx="1467.5" cy="410" fill="#ADD1B2" rx="11" ry="11" style="stroke: #A80036; stroke-width: 1.0;"/><path d="M1469.8438,405.6719 L1470.0156,405.75 C1470.2344,405.4375 1470.4375,405.3438 1470.7344,405.3438 C1471.0313,405.3438 1471.3125,405.4844 1471.4688,405.75 C1471.5625,405.9063 1471.5781,406.0313 1471.5781,406.4688 L1471.5781,407.8906 C1471.5781,408.3125 1471.5469,408.5 1471.4375,408.6563 C1471.2656,408.875 1471,409.0156 1470.7344,409.0156 C1470.5156,409.0156 1470.2813,408.9063 1470.1406,408.7656 C1470,408.6406 1469.9688,408.5156 1469.9063,408.1094 C1469.8125,407.7031 1469.6406,407.4844 1469.1563,407.2031 C1468.6875,406.9531 1468.0781,406.7969 1467.5,406.7969 C1465.7656,406.7969 1464.5156,408.1094 1464.5156,409.8906 L1464.5156,410.9844 C1464.5156,412.6875 1465.8125,413.7813 1467.8594,413.7813 C1468.625,413.7813 1469.3125,413.6563 1469.7344,413.3906 C1469.9219,413.2969 1469.9219,413.2969 1470.375,412.8125 C1470.5625,412.625 1470.7656,412.5469 1470.9844,412.5469 C1471.4531,412.5469 1471.8438,412.9375 1471.8438,413.3906 C1471.8438,413.7813 1471.5156,414.2344 1470.9375,414.6406 C1470.1875,415.1875 1469.0313,415.4844 1467.8125,415.4844 C1464.9219,415.4844 1462.8125,413.5938 1462.8125,411.0156 L1462.8125,409.8906 C1462.8125,407.1719 1464.8125,405.0938 1467.4375,405.0938 C1468.3125,405.0938 1468.9063,405.2344 1469.8438,405.6719 Z "/><text fill="#000000" font-family="sans-serif" font-size="12" lengthAdjust="spacingAndGlyphs" textLength="146" x="1481.5" y="413.7">GatewayTimeoutException</text><line style="stroke: #A80036; stroke-width: 1.5;" x1="1453.5" x2="1629.5" y1="426" y2="426"/><line style="stroke: #A80036; stroke-width: 1.5;" x1="1453.5" x2="1629.5" y1="434" y2="434"/><rect fill="#FEFECE" filter="url(#f1)" height="48" style="stroke: #A80036; stroke-width: 1.5;" width="189" x="1665.75" y="394"/><ellipse cx="1680.75" cy="410" fill="#ADD1B2" rx="11" ry="11" style="stroke: #A80036; stroke-width: 1.0;"/><path d="M1683.0938,405.6719 L1683.2656,405.75 C1683.4844,405.4375 1683.6875,405.3438 1683.9844,405.3438 C1684.2813,405.3438 1684.5625,405.4844 1684.7188,405.75 C1684.8125,405.9063 1684.8281,406.0313 1684.8281,406.4688 L1684.8281,407.8906 C1684.8281,408.3125 1684.7969,408.5 1684.6875,408.6563 C1684.5156,408.875 1684.25,409.0156 1683.9844,409.0156 C1683.7656,409.0156 1683.5313,408.9063 1683.3906,408.7656 C1683.25,408.6406 1683.2188,408.5156 1683.1563,408.1094 C1683.0625,407.7031 1682.8906,407.4844 1682.4063,407.2031 C1681.9375,406.9531 1681.3281,406.7969 1680.75,406.7969 C1679.0156,406.7969 1677.7656,408.1094 1677.7656,409.8906 L1677.7656,410.9844 C1677.7656,412.6875 1679.0625,413.7813 1681.1094,413.7813 C1681.875,413.7813 1682.5625,413.6563 1682.9844,413.3906 C1683.1719,413.2969 1683.1719,413.2969 1683.625,412.8125 C1683.8125,412.625 1684.0156,412.5469 1684.2344,412.5469 C1684.7031,412.5469 1685.0938,412.9375 1685.0938,413.3906 C1685.0938,413.7813 1684.7656,414.2344 1684.1875,414.6406 C1683.4375,415.1875 1682.2813,415.4844 1681.0625,415.4844 C1678.1719,415.4844 1676.0625,413.5938 1676.0625,411.0156 L1676.0625,409.8906 C1676.0625,407.1719 1678.0625,405.0938 1680.6875,405.0938 C1681.5625,405.0938 1682.1563,405.2344 1683.0938,405.6719 Z "/><text fill="#000000" font-family="sans-serif" font-size="12" lengthAdjust="spacingAndGlyphs" textLength="157" x="1694.75" y="413.7">InternalServerErrorException</text><line style="stroke: #A80036; stroke-width: 1.5;" x1="1666.75" x2="1853.75" y1="426" y2="426"/><line style="stroke: #A80036; stroke-width: 1.5;" x1="1666.75" x2="1853.75" y1="434" y2="434"/><rect fill="#FEFECE" filter="url(#f1)" height="48" style="stroke: #A80036; stroke-width: 1.5;" width="191" x="1889.75" y="394"/><ellipse cx="1904.75" cy="410" fill="#ADD1B2" rx="11" ry="11" style="stroke: #A80036; stroke-width: 1.0;"/><path d="M1907.0938,405.6719 L1907.2656,405.75 C1907.4844,405.4375 1907.6875,405.3438 1907.9844,405.3438 C1908.2813,405.3438 1908.5625,405.4844 1908.7188,405.75 C1908.8125,405.9063 1908.8281,406.0313 1908.8281,406.4688 L1908.8281,407.8906 C1908.8281,408.3125 1908.7969,408.5 1908.6875,408.6563 C1908.5156,408.875 1908.25,409.0156 1907.9844,409.0156 C1907.7656,409.0156 1907.5313,408.9063 1907.3906,408.7656 C1907.25,408.6406 1907.2188,408.5156 1907.1563,408.1094 C1907.0625,407.7031 1906.8906,407.4844 1906.4063,407.2031 C1905.9375,406.9531 1905.3281,406.7969 1904.75,406.7969 C1903.0156,406.7969 1901.7656,408.1094 1901.7656,409.8906 L1901.7656,410.9844 C1901.7656,412.6875 1903.0625,413.7813 1905.1094,413.7813 C1905.875,413.7813 1906.5625,413.6563 1906.9844,413.3906 C1907.1719,413.2969 1907.1719,413.2969 1907.625,412.8125 C1907.8125,412.625 1908.0156,412.5469 1908.2344,412.5469 C1908.7031,412.5469 1909.0938,412.9375 1909.0938,413.3906 C1909.0938,413.7813 1908.7656,414.2344 1908.1875,414.6406 C1907.4375,415.1875 1906.2813,415.4844 1905.0625,415.4844 C1902.1719,415.4844 1900.0625,413.5938 1900.0625,411.0156 L1900.0625,409.8906 C1900.0625,407.1719 1902.0625,405.0938 1904.6875,405.0938 C1905.5625,405.0938 1906.1563,405.2344 1907.0938,405.6719 Z "/><text fill="#000000" font-family="sans-serif" font-size="12" lengthAdjust="spacingAndGlyphs" textLength="159" x="1918.75" y="413.7">ServiceUnavailableException</text><line style="stroke: #A80036; stroke-width: 1.5;" x1="1890.75" x2="2079.75" y1="426" y2="426"/><line style="stroke: #A80036; stroke-width: 1.5;" x1="1890.75" x2="2079.75" y1="434" y2="434"/><rect fill="#FEFECE" filter="url(#f1)" height="48" style="stroke: #A80036; stroke-width: 1.5;" width="168" x="427.5" y="178"/><ellipse cx="442.5" cy="194" fill="#ADD1B2" rx="11" ry="11" style="stroke: #A80036; stroke-width: 1.0;"/><path d="M444.8438,189.6719 L445.0156,189.75 C445.2344,189.4375 445.4375,189.3438 445.7344,189.3438 C446.0313,189.3438 446.3125,189.4844 446.4688,189.75 C446.5625,189.9063 446.5781,190.0313 446.5781,190.4688 L446.5781,191.8906 C446.5781,192.3125 446.5469,192.5 446.4375,192.6563 C446.2656,192.875 446,193.0156 445.7344,193.0156 C445.5156,193.0156 445.2813,192.9063 445.1406,192.7656 C445,192.6406 444.9688,192.5156 444.9063,192.1094 C444.8125,191.7031 444.6406,191.4844 444.1563,191.2031 C443.6875,190.9531 443.0781,190.7969 442.5,190.7969 C440.7656,190.7969 439.5156,192.1094 439.5156,193.8906 L439.5156,194.9844 C439.5156,196.6875 440.8125,197.7813 442.8594,197.7813 C443.625,197.7813 444.3125,197.6563 444.7344,197.3906 C444.9219,197.2969 444.9219,197.2969 445.375,196.8125 C445.5625,196.625 445.7656,196.5469 445.9844,196.5469 C446.4531,196.5469 446.8438,196.9375 446.8438,197.3906 C446.8438,197.7813 446.5156,198.2344 445.9375,198.6406 C445.1875,199.1875 444.0313,199.4844 442.8125,199.4844 C439.9219,199.4844 437.8125,197.5938 437.8125,195.0156 L437.8125,193.8906 C437.8125,191.1719 439.8125,189.0938 442.4375,189.0938 C443.3125,189.0938 443.9063,189.2344 444.8438,189.6719 Z "/><text fill="#000000" font-family="sans-serif" font-size="12" lengthAdjust="spacingAndGlyphs" textLength="136" x="456.5" y="197.7">SphereTimeoutException</text><line style="stroke: #A80036; stroke-width: 1.5;" x1="428.5" x2="594.5" y1="210" y2="210"/><line style="stroke: #A80036; stroke-width: 1.5;" x1="428.5" x2="594.5" y1="218" y2="218"/><path d="M530.178,81.683 C443.33,83.838 303.387,94.521 191,137 C165.887,146.492 140.842,163.771 122.776,177.984 " fill="none" style="stroke: #A80036; stroke-width: 1.0;"/><polygon fill="none" points="530.141,74.683,550.266,81.314,530.398,88.68,530.141,74.683" style="stroke: #A80036; stroke-width: 1.0;"/><path d="M693.151,99.335 C730.385,108.516 774.674,121.192 813,137 C840.095,148.176 868.812,164.505 890.516,177.872 " fill="none" style="stroke: #A80036; stroke-width: 1.0;"/><polygon fill="none" points="691.385,106.11,673.555,94.661,694.633,92.492,691.385,106.11" style="stroke: #A80036; stroke-width: 1.0;"/><path d="M644.888,120.749 C660.887,139.6 679.584,161.628 693.336,177.832 " fill="none" style="stroke: #A80036; stroke-width: 1.0;"/><polygon fill="none" points="639.319,125.005,631.714,105.227,649.992,115.946,639.319,125.005" style="stroke: #A80036; stroke-width: 1.0;"/><path d="M713,246.024 C713,259.579 713,274.038 713,285.678 " fill="none" style="stroke: #A80036; stroke-width: 1.0;"/><polygon fill="none" points="706,246,713,226,720,246,706,246" style="stroke: #A80036; stroke-width: 1.0;"/><path d="M621.212,333.68 C543.554,352.868 433.561,380.046 360.57,398.081 " fill="none" style="stroke: #A80036; stroke-width: 1.0;"/><polygon fill="none" points="619.616,326.863,640.711,328.862,622.974,340.455,619.616,326.863" style="stroke: #A80036; stroke-width: 1.0;"/><path d="M286.435,462.024 C287.203,475.579 288.021,490.0381 288.68,501.6784 " fill="none" style="stroke: #A80036; stroke-width: 1.0;"/><polygon fill="none" points="279.443,462.364,285.302,442,293.421,461.573,279.443,462.364" style="stroke: #A80036; stroke-width: 1.0;"/><path d="M648.901,343.201 C616.371,359.543 577.6,379.021 548.058,393.862 " fill="none" style="stroke: #A80036; stroke-width: 1.0;"/><polygon fill="none" points="646.202,336.724,667.216,334,652.487,349.234,646.202,336.724" style="stroke: #A80036; stroke-width: 1.0;"/><path d="M713,354.024 C713,367.579 713,382.038 713,393.678 " fill="none" style="stroke: #A80036; stroke-width: 1.0;"/><polygon fill="none" points="706,354,713,334,720,354,706,354" style="stroke: #A80036; stroke-width: 1.0;"/><path d="M776.945,342.972 C809.722,359.361 848.903,378.952 878.723,393.862 " fill="none" style="stroke: #A80036; stroke-width: 1.0;"/><polygon fill="none" points="773.759,349.206,759.001,334,780.02,336.684,773.759,349.206" style="stroke: #A80036; stroke-width: 1.0;"/><path d="M804.983,333.518 C882.683,352.539 992.799,379.496 1066.68,397.582 " fill="none" style="stroke: #A80036; stroke-width: 1.0;"/><polygon fill="none" points="803.236,340.297,785.474,328.742,806.565,326.699,803.236,340.297" style="stroke: #A80036; stroke-width: 1.0;"/><path d="M1106.96,456.28 C1091.14,471.391 1073.35,488.3752 1059.42,501.6784 " fill="none" style="stroke: #A80036; stroke-width: 1.0;"/><polygon fill="none" points="1102.62,450.751,1121.91,442,1112.28,460.876,1102.62,450.751" style="stroke: #A80036; stroke-width: 1.0;"/><path d="M1184.69,456.28 C1200.37,471.391 1217.99,488.3752 1231.8,501.6784 " fill="none" style="stroke: #A80036; stroke-width: 1.0;"/><polygon fill="none" points="1179.41,460.919,1169.87,442,1189.13,450.838,1179.41,460.919" style="stroke: #A80036; stroke-width: 1.0;"/><path d="M772.167,234.762 C785.591,240.762 800.02,246.307 814,250 C935.742,282.159 1307.08,299.959 1466.74,306.302 " fill="none" style="stroke: #A80036; stroke-width: 1.0;"/><polygon fill="none" points="769.063,241.037,754.012,226.123,775.079,228.396,769.063,241.037" style="stroke: #A80036; stroke-width: 1.0;"/><path d="M1479.2,343.431 C1448.15,359.725 1411.24,379.09 1383.09,393.862 " fill="none" style="stroke: #A80036; stroke-width: 1.0;"/><polygon fill="none" points="1476.21,337.095,1497.17,334,1482.71,349.492,1476.21,337.095" style="stroke: #A80036; stroke-width: 1.0;"/><path d="M1541,354.024 C1541,367.579 1541,382.038 1541,393.678 " fill="none" style="stroke: #A80036; stroke-width: 1.0;"/><polygon fill="none" points="1534,354,1541,334,1548,354,1534,354" style="stroke: #A80036; stroke-width: 1.0;"/><path d="M1606.58,342.744 C1640.54,359.179 1681.25,378.882 1712.2,393.862 " fill="none" style="stroke: #A80036; stroke-width: 1.0;"/><polygon fill="none" points="1603.47,349.015,1588.52,334,1609.57,336.413,1603.47,349.015" style="stroke: #A80036; stroke-width: 1.0;"/><path d="M1635.12,333.47 C1709.98,351.342 1814.28,376.243 1889.5,394.201 " fill="none" style="stroke: #A80036; stroke-width: 1.0;"/><polygon fill="none" points="1633.14,340.195,1615.32,328.742,1636.39,326.578,1633.14,340.195" style="stroke: #A80036; stroke-width: 1.0;"/><path d="M579.112,120.749 C563.113,139.6 544.416,161.628 530.664,177.832 " fill="none" style="stroke: #A80036; stroke-width: 1.0;"/><polygon fill="none" points="574.008,115.946,592.286,105.227,584.681,125.005,574.008,115.946" style="stroke: #A80036; stroke-width: 1.0;"/></g></svg>