<?xml version="1.0" encoding="UTF-8" standalone="yes"?><svg xmlns="http://www.w3.org/2000/svg" xmlns:xlink="http://www.w3.org/1999/xlink" height="579pt" style="width:2018px;height:579px;" version="1.1" viewBox="0 0 2018 579" width="2018pt"><defs><filter height="300%" id="f1" width="300%" x="-1" y="-1"><feGaussianBlur result="blurOut" stdDeviation="2.0"/><feColorMatrix in="blurOut" result="blurOut2" type="matrix" values="0 0 0 0 0 0 0 0 0 0 0 0 0 0 0 0 0 0 .4 0"/><feOffset dx="4.0" dy="4.0" in="blurOut2" result="blurOut3"/><feBlend in="SourceGraphic" in2="blurOut3" mode="normal"/></filter></defs><g><polygon fill="#FFFFFF" filter="url(#f1)" points="570,24,746,24,753,46.2969,757,46.2969,757,124,570,124,570,24" style="stroke: #000000; stroke-width: 2.0;"/><line style="stroke: #000000; stroke-width: 2.0;" x1="570" x2="753" y1="46.2969" y2="46.2969"/><text fill="#000000" font-family="sans-serif" font-size="14" font-weight="bold" lengthAdjust="spacingAndGlyphs" textLength="170" x="573" y="39.9951">io.sphere.sdk.models</text><polygon fill="#FFFFFF" filter="url(#f1)" points="22,148,174,148,181,170.2969,185,170.2969,185,248,22,248,22,148" style="stroke: #000000; stroke-width: 2.0;"/><line style="stroke: #000000; stroke-width: 2.0;" x1="22" x2="181" y1="170.2969" y2="170.2969"/><text fill="#000000" font-family="sans-serif" font-size="14" font-weight="bold" lengthAdjust="spacingAndGlyphs" textLength="146" x="25" y="163.9951">io.sphere.sdk.json</text><polygon fill="#FFFFFF" filter="url(#f1)" points="209,148,371,148,378,170.2969,2011,170.2969,2011,572,209,572,209,148" style="stroke: #000000; stroke-width: 2.0;"/><line style="stroke: #000000; stroke-width: 2.0;" x1="209" x2="378" y1="170.2969" y2="170.2969"/><text fill="#000000" font-family="sans-serif" font-size="14" font-weight="bold" lengthAdjust="spacingAndGlyphs" textLength="156" x="212" y="163.9951">io.sphere.sdk.client</text><rect fill="#FEFECE" filter="url(#f1)" height="48" style="stroke: #A80036; stroke-width: 1.5;" width="138" x="594" y="60"/><ellipse cx="609" cy="76" fill="#ADD1B2" rx="11" ry="11" style="stroke: #A80036; stroke-width: 1.0;"/><path d="M611.9688,81.6406 Q611.3906,81.9375 610.75,82.0859 Q610.1094,82.2344 609.4063,82.2344 Q606.9063,82.2344 605.5859,80.5859 Q604.2656,78.9375 604.2656,75.8125 Q604.2656,72.6875 605.5859,71.0313 Q606.9063,69.375 609.4063,69.375 Q610.1094,69.375 610.7578,69.5313 Q611.4063,69.6875 611.9688,69.9844 L611.9688,72.7031 Q611.3438,72.125 610.75,71.8516 Q610.1563,71.5781 609.5313,71.5781 Q608.1875,71.5781 607.5,72.6484 Q606.8125,73.7188 606.8125,75.8125 Q606.8125,77.9063 607.5,78.9766 Q608.1875,80.0469 609.5313,80.0469 Q610.1563,80.0469 610.75,79.7734 Q611.3438,79.5 611.9688,78.9219 L611.9688,81.6406 Z "/><text fill="#000000" font-family="sans-serif" font-size="12" lengthAdjust="spacingAndGlyphs" textLength="106" x="623" y="80.1543">SphereException</text><line style="stroke: #A80036; stroke-width: 1.5;" x1="595" x2="731" y1="92" y2="92"/><line style="stroke: #A80036; stroke-width: 1.5;" x1="595" x2="731" y1="100" y2="100"/><rect fill="#FEFECE" filter="url(#f1)" height="48" style="stroke: #A80036; stroke-width: 1.5;" width="119" x="49.75" y="184"/><ellipse cx="64.75" cy="200" fill="#ADD1B2" rx="11" ry="11" style="stroke: #A80036; stroke-width: 1.0;"/><path d="M67.7188,205.6406 Q67.1406,205.9375 66.5,206.0859 Q65.8594,206.2344 65.1563,206.2344 Q62.6563,206.2344 61.3359,204.5859 Q60.0156,202.9375 60.0156,199.8125 Q60.0156,196.6875 61.3359,195.0313 Q62.6563,193.375 65.1563,193.375 Q65.8594,193.375 66.5078,193.5313 Q67.1563,193.6875 67.7188,193.9844 L67.7188,196.7031 Q67.0938,196.125 66.5,195.8516 Q65.9063,195.5781 65.2813,195.5781 Q63.9375,195.5781 63.25,196.6484 Q62.5625,197.7188 62.5625,199.8125 Q62.5625,201.9063 63.25,202.9766 Q63.9375,204.0469 65.2813,204.0469 Q65.9063,204.0469 66.5,203.7734 Q67.0938,203.5 67.7188,202.9219 L67.7188,205.6406 Z "/><text fill="#000000" font-family="sans-serif" font-size="12" lengthAdjust="spacingAndGlyphs" textLength="87" x="78.75" y="204.1543">JsonException</text><line style="stroke: #A80036; stroke-width: 1.5;" x1="50.75" x2="167.75" y1="216" y2="216"/><line style="stroke: #A80036; stroke-width: 1.5;" x1="50.75" x2="167.75" y1="224" y2="224"/><rect fill="#FEFECE" filter="url(#f1)" height="48" style="stroke: #A80036; stroke-width: 1.5;" width="215" x="789.75" y="184"/><ellipse cx="804.75" cy="200" fill="#ADD1B2" rx="11" ry="11" style="stroke: #A80036; stroke-width: 1.0;"/><path d="M807.7188,205.6406 Q807.1406,205.9375 806.5,206.0859 Q805.8594,206.2344 805.1563,206.2344 Q802.6563,206.2344 801.3359,204.5859 Q800.0156,202.9375 800.0156,199.8125 Q800.0156,196.6875 801.3359,195.0313 Q802.6563,193.375 805.1563,193.375 Q805.8594,193.375 806.5078,193.5313 Q807.1563,193.6875 807.7188,193.9844 L807.7188,196.7031 Q807.0938,196.125 806.5,195.8516 Q805.9063,195.5781 805.2813,195.5781 Q803.9375,195.5781 803.25,196.6484 Q802.5625,197.7188 802.5625,199.8125 Q802.5625,201.9063 803.25,202.9766 Q803.9375,204.0469 805.2813,204.0469 Q805.9063,204.0469 806.5,203.7734 Q807.0938,203.5 807.7188,202.9219 L807.7188,205.6406 Z "/><text fill="#000000" font-family="sans-serif" font-size="12" lengthAdjust="spacingAndGlyphs" textLength="183" x="818.75" y="204.1543">SphereDeprecationException</text><line style="stroke: #A80036; stroke-width: 1.5;" x1="790.75" x2="1003.75" y1="216" y2="216"/><line style="stroke: #A80036; stroke-width: 1.5;" x1="790.75" x2="1003.75" y1="224" y2="224"/><rect fill="#FEFECE" filter="url(#f1)" height="48" style="stroke: #A80036; stroke-width: 1.5;" width="183" x="571.75" y="184"/><ellipse cx="586.75" cy="200" fill="#ADD1B2" rx="11" ry="11" style="stroke: #A80036; stroke-width: 1.0;"/><path d="M589.7188,205.6406 Q589.1406,205.9375 588.5,206.0859 Q587.8594,206.2344 587.1563,206.2344 Q584.6563,206.2344 583.3359,204.5859 Q582.0156,202.9375 582.0156,199.8125 Q582.0156,196.6875 583.3359,195.0313 Q584.6563,193.375 587.1563,193.375 Q587.8594,193.375 588.5078,193.5313 Q589.1563,193.6875 589.7188,193.9844 L589.7188,196.7031 Q589.0938,196.125 588.5,195.8516 Q587.9063,195.5781 587.2813,195.5781 Q585.9375,195.5781 585.25,196.6484 Q584.5625,197.7188 584.5625,199.8125 Q584.5625,201.9063 585.25,202.9766 Q585.9375,204.0469 587.2813,204.0469 Q587.9063,204.0469 588.5,203.7734 Q589.0938,203.5 589.7188,202.9219 L589.7188,205.6406 Z "/><text fill="#000000" font-family="sans-serif" font-size="12" lengthAdjust="spacingAndGlyphs" textLength="151" x="600.75" y="204.1543">SphereServiceException</text><line style="stroke: #A80036; stroke-width: 1.5;" x1="572.75" x2="753.75" y1="216" y2="216"/><line style="stroke: #A80036; stroke-width: 1.5;" x1="572.75" x2="753.75" y1="224" y2="224"/><rect fill="#FEFECE" filter="url(#f1)" height="48" style="stroke: #A80036; stroke-width: 1.5;" width="159" x="583.75" y="292"/><ellipse cx="598.75" cy="308" fill="#ADD1B2" rx="11" ry="11" style="stroke: #A80036; stroke-width: 1.0;"/><path d="M601.7188,313.6406 Q601.1406,313.9375 600.5,314.0859 Q599.8594,314.2344 599.1563,314.2344 Q596.6563,314.2344 595.3359,312.5859 Q594.0156,310.9375 594.0156,307.8125 Q594.0156,304.6875 595.3359,303.0313 Q596.6563,301.375 599.1563,301.375 Q599.8594,301.375 600.5078,301.5313 Q601.1563,301.6875 601.7188,301.9844 L601.7188,304.7031 Q601.0938,304.125 600.5,303.8516 Q599.9063,303.5781 599.2813,303.5781 Q597.9375,303.5781 597.25,304.6484 Q596.5625,305.7188 596.5625,307.8125 Q596.5625,309.9063 597.25,310.9766 Q597.9375,312.0469 599.2813,312.0469 Q599.9063,312.0469 600.5,311.7734 Q601.0938,311.5 601.7188,310.9219 L601.7188,313.6406 Z "/><text fill="#000000" font-family="sans-serif" font-size="12" lengthAdjust="spacingAndGlyphs" textLength="127" x="612.75" y="312.1543">ClientErrorException</text><line style="stroke: #A80036; stroke-width: 1.5;" x1="584.75" x2="741.75" y1="324" y2="324"/><line style="stroke: #A80036; stroke-width: 1.5;" x1="584.75" x2="741.75" y1="332" y2="332"/><rect fill="#FEFECE" filter="url(#f1)" height="48" style="stroke: #A80036; stroke-width: 1.5;" width="169" x="224.75" y="400"/><ellipse cx="239.75" cy="416" fill="#ADD1B2" rx="11" ry="11" style="stroke: #A80036; stroke-width: 1.0;"/><path d="M242.7188,421.6406 Q242.1406,421.9375 241.5,422.0859 Q240.8594,422.2344 240.1563,422.2344 Q237.6563,422.2344 236.3359,420.5859 Q235.0156,418.9375 235.0156,415.8125 Q235.0156,412.6875 236.3359,411.0313 Q237.6563,409.375 240.1563,409.375 Q240.8594,409.375 241.5078,409.5313 Q242.1563,409.6875 242.7188,409.9844 L242.7188,412.7031 Q242.0938,412.125 241.5,411.8516 Q240.9063,411.5781 240.2813,411.5781 Q238.9375,411.5781 238.25,412.6484 Q237.5625,413.7188 237.5625,415.8125 Q237.5625,417.9063 238.25,418.9766 Q238.9375,420.0469 240.2813,420.0469 Q240.9063,420.0469 241.5,419.7734 Q242.0938,419.5 242.7188,418.9219 L242.7188,421.6406 Z "/><text fill="#000000" font-family="sans-serif" font-size="12" lengthAdjust="spacingAndGlyphs" textLength="137" x="253.75" y="420.1543">BadRequestException</text><line style="stroke: #A80036; stroke-width: 1.5;" x1="225.75" x2="392.75" y1="432" y2="432"/><line style="stroke: #A80036; stroke-width: 1.5;" x1="225.75" x2="392.75" y1="440" y2="440"/><rect fill="#FEFECE" filter="url(#f1)" height="48" style="stroke: #A80036; stroke-width: 1.5;" width="186" x="225.5" y="508"/><ellipse cx="240.5" cy="524" fill="#ADD1B2" rx="11" ry="11" style="stroke: #A80036; stroke-width: 1.0;"/><path d="M243.4688,529.6406 Q242.8906,529.9375 242.25,530.0859 Q241.6094,530.2344 240.9063,530.2344 Q238.4063,530.2344 237.0859,528.5859 Q235.7656,526.9375 235.7656,523.8125 Q235.7656,520.6875 237.0859,519.0313 Q238.4063,517.375 240.9063,517.375 Q241.6094,517.375 242.2578,517.5313 Q242.9063,517.6875 243.4688,517.9844 L243.4688,520.7031 Q242.8438,520.125 242.25,519.8516 Q241.6563,519.5781 241.0313,519.5781 Q239.6875,519.5781 239,520.6484 Q238.3125,521.7188 238.3125,523.8125 Q238.3125,525.9063 239,526.9766 Q239.6875,528.0469 241.0313,528.0469 Q241.6563,528.0469 242.25,527.7734 Q242.8438,527.5 243.4688,526.9219 L243.4688,529.6406 Z "/><text fill="#000000" font-family="sans-serif" font-size="12" lengthAdjust="spacingAndGlyphs" textLength="154" x="254.5" y="528.1543">ErrorResponseException</text><line style="stroke: #A80036; stroke-width: 1.5;" x1="226.5" x2="410.5" y1="540" y2="540"/><line style="stroke: #A80036; stroke-width: 1.5;" x1="226.5" x2="410.5" y1="548" y2="548"/><rect fill="#FEFECE" filter="url(#f1)" height="48" style="stroke: #A80036; stroke-width: 1.5;" width="238" x="429" y="400"/><ellipse cx="444" cy="416" fill="#ADD1B2" rx="11" ry="11" style="stroke: #A80036; stroke-width: 1.0;"/><path d="M446.9688,421.6406 Q446.3906,421.9375 445.75,422.0859 Q445.1094,422.2344 444.4063,422.2344 Q441.9063,422.2344 440.5859,420.5859 Q439.2656,418.9375 439.2656,415.8125 Q439.2656,412.6875 440.5859,411.0313 Q441.9063,409.375 444.4063,409.375 Q445.1094,409.375 445.7578,409.5313 Q446.4063,409.6875 446.9688,409.9844 L446.9688,412.7031 Q446.3438,412.125 445.75,411.8516 Q445.1563,411.5781 444.5313,411.5781 Q443.1875,411.5781 442.5,412.6484 Q441.8125,413.7188 441.8125,415.8125 Q441.8125,417.9063 442.5,418.9766 Q443.1875,420.0469 444.5313,420.0469 Q445.1563,420.0469 445.75,419.7734 Q446.3438,419.5 446.9688,418.9219 L446.9688,421.6406 Z "/><text fill="#000000" font-family="sans-serif" font-size="12" lengthAdjust="spacingAndGlyphs" textLength="206" x="458" y="420.1543">ConcurrentModificationException</text><line style="stroke: #A80036; stroke-width: 1.5;" x1="430" x2="666" y1="432" y2="432"/><line style="stroke: #A80036; stroke-width: 1.5;" x1="430" x2="666" y1="440" y2="440"/><rect fill="#FEFECE" filter="url(#f1)" height="48" style="stroke: #A80036; stroke-width: 1.5;" width="154" x="702" y="400"/><ellipse cx="717" cy="416" fill="#ADD1B2" rx="11" ry="11" style="stroke: #A80036; stroke-width: 1.0;"/><path d="M719.9688,421.6406 Q719.3906,421.9375 718.75,422.0859 Q718.1094,422.2344 717.4063,422.2344 Q714.9063,422.2344 713.5859,420.5859 Q712.2656,418.9375 712.2656,415.8125 Q712.2656,412.6875 713.5859,411.0313 Q714.9063,409.375 717.4063,409.375 Q718.1094,409.375 718.7578,409.5313 Q719.4063,409.6875 719.9688,409.9844 L719.9688,412.7031 Q719.3438,412.125 718.75,411.8516 Q718.1563,411.5781 717.5313,411.5781 Q716.1875,411.5781 715.5,412.6484 Q714.8125,413.7188 714.8125,415.8125 Q714.8125,417.9063 715.5,418.9766 Q716.1875,420.0469 717.5313,420.0469 Q718.1563,420.0469 718.75,419.7734 Q719.3438,419.5 719.9688,418.9219 L719.9688,421.6406 Z "/><text fill="#000000" font-family="sans-serif" font-size="12" lengthAdjust="spacingAndGlyphs" textLength="122" x="731" y="420.1543">NotFoundException</text><line style="stroke: #A80036; stroke-width: 1.5;" x1="703" x2="855" y1="432" y2="432"/><line style="stroke: #A80036; stroke-width: 1.5;" x1="703" x2="855" y1="440" y2="440"/><rect fill="#FEFECE" filter="url(#f1)" height="48" style="stroke: #A80036; stroke-width: 1.5;" width="176" x="891.5" y="400"/><ellipse cx="906.5" cy="416" fill="#ADD1B2" rx="11" ry="11" style="stroke: #A80036; stroke-width: 1.0;"/><path d="M909.4688,421.6406 Q908.8906,421.9375 908.25,422.0859 Q907.6094,422.2344 906.9063,422.2344 Q904.4063,422.2344 903.0859,420.5859 Q901.7656,418.9375 901.7656,415.8125 Q901.7656,412.6875 903.0859,411.0313 Q904.4063,409.375 906.9063,409.375 Q907.6094,409.375 908.2578,409.5313 Q908.9063,409.6875 909.4688,409.9844 L909.4688,412.7031 Q908.8438,412.125 908.25,411.8516 Q907.6563,411.5781 907.0313,411.5781 Q905.6875,411.5781 905,412.6484 Q904.3125,413.7188 904.3125,415.8125 Q904.3125,417.9063 905,418.9766 Q905.6875,420.0469 907.0313,420.0469 Q907.6563,420.0469 908.25,419.7734 Q908.8438,419.5 909.4688,418.9219 L909.4688,421.6406 Z "/><text fill="#000000" font-family="sans-serif" font-size="12" lengthAdjust="spacingAndGlyphs" textLength="144" x="920.5" y="420.1543">UnauthorizedException</text><line style="stroke: #A80036; stroke-width: 1.5;" x1="892.5" x2="1066.5" y1="432" y2="432"/><line style="stroke: #A80036; stroke-width: 1.5;" x1="892.5" x2="1066.5" y1="440" y2="440"/><rect fill="#FEFECE" filter="url(#f1)" height="48" style="stroke: #A80036; stroke-width: 1.5;" width="238" x="740" y="508"/><ellipse cx="755" cy="524" fill="#ADD1B2" rx="11" ry="11" style="stroke: #A80036; stroke-width: 1.0;"/><path d="M757.9688,529.6406 Q757.3906,529.9375 756.75,530.0859 Q756.1094,530.2344 755.4063,530.2344 Q752.9063,530.2344 751.5859,528.5859 Q750.2656,526.9375 750.2656,523.8125 Q750.2656,520.6875 751.5859,519.0313 Q752.9063,517.375 755.4063,517.375 Q756.1094,517.375 756.7578,517.5313 Q757.4063,517.6875 757.9688,517.9844 L757.9688,520.7031 Q757.3438,520.125 756.75,519.8516 Q756.1563,519.5781 755.5313,519.5781 Q754.1875,519.5781 753.5,520.6484 Q752.8125,521.7188 752.8125,523.8125 Q752.8125,525.9063 753.5,526.9766 Q754.1875,528.0469 755.5313,528.0469 Q756.1563,528.0469 756.75,527.7734 Q757.3438,527.5 757.9688,526.9219 L757.9688,529.6406 Z "/><text fill="#000000" font-family="sans-serif" font-size="12" lengthAdjust="spacingAndGlyphs" textLength="206" x="769" y="528.1543">InvalidClientCredentialsException</text><line style="stroke: #A80036; stroke-width: 1.5;" x1="741" x2="977" y1="540" y2="540"/><line style="stroke: #A80036; stroke-width: 1.5;" x1="741" x2="977" y1="548" y2="548"/><rect fill="#FEFECE" filter="url(#f1)" height="48" style="stroke: #A80036; stroke-width: 1.5;" width="170" x="1013" y="508"/><ellipse cx="1028" cy="524" fill="#ADD1B2" rx="11" ry="11" style="stroke: #A80036; stroke-width: 1.0;"/><path d="M1030.9688,529.6406 Q1030.3906,529.9375 1029.75,530.0859 Q1029.1094,530.2344 1028.4063,530.2344 Q1025.9063,530.2344 1024.5859,528.5859 Q1023.2656,526.9375 1023.2656,523.8125 Q1023.2656,520.6875 1024.5859,519.0313 Q1025.9063,517.375 1028.4063,517.375 Q1029.1094,517.375 1029.7578,517.5313 Q1030.4063,517.6875 1030.9688,517.9844 L1030.9688,520.7031 Q1030.3438,520.125 1029.75,519.8516 Q1029.1563,519.5781 1028.5313,519.5781 Q1027.1875,519.5781 1026.5,520.6484 Q1025.8125,521.7188 1025.8125,523.8125 Q1025.8125,525.9063 1026.5,526.9766 Q1027.1875,528.0469 1028.5313,528.0469 Q1029.1563,528.0469 1029.75,527.7734 Q1030.3438,527.5 1030.9688,526.9219 L1030.9688,529.6406 Z "/><text fill="#000000" font-family="sans-serif" font-size="12" lengthAdjust="spacingAndGlyphs" textLength="138" x="1042" y="528.1543">InvalidTokenException</text><line style="stroke: #A80036; stroke-width: 1.5;" x1="1014" x2="1182" y1="540" y2="540"/><line style="stroke: #A80036; stroke-width: 1.5;" x1="1014" x2="1182" y1="548" y2="548"/><rect fill="#FEFECE" filter="url(#f1)" height="48" style="stroke: #A80036; stroke-width: 1.5;" width="164" x="1323" y="292"/><ellipse cx="1338" cy="308" fill="#ADD1B2" rx="11" ry="11" style="stroke: #A80036; stroke-width: 1.0;"/><path d="M1340.9688,313.6406 Q1340.3906,313.9375 1339.75,314.0859 Q1339.1094,314.2344 1338.4063,314.2344 Q1335.9063,314.2344 1334.5859,312.5859 Q1333.2656,310.9375 1333.2656,307.8125 Q1333.2656,304.6875 1334.5859,303.0313 Q1335.9063,301.375 1338.4063,301.375 Q1339.1094,301.375 1339.7578,301.5313 Q1340.4063,301.6875 1340.9688,301.9844 L1340.9688,304.7031 Q1340.3438,304.125 1339.75,303.8516 Q1339.1563,303.5781 1338.5313,303.5781 Q1337.1875,303.5781 1336.5,304.6484 Q1335.8125,305.7188 1335.8125,307.8125 Q1335.8125,309.9063 1336.5,310.9766 Q1337.1875,312.0469 1338.5313,312.0469 Q1339.1563,312.0469 1339.75,311.7734 Q1340.3438,311.5 1340.9688,310.9219 L1340.9688,313.6406 Z "/><text fill="#000000" font-family="sans-serif" font-size="12" lengthAdjust="spacingAndGlyphs" textLength="132" x="1352" y="312.1543">ServerErrorException</text><line style="stroke: #A80036; stroke-width: 1.5;" x1="1324" x2="1486" y1="324" y2="324"/><line style="stroke: #A80036; stroke-width: 1.5;" x1="1324" x2="1486" y1="332" y2="332"/><rect fill="#FEFECE" filter="url(#f1)" height="48" style="stroke: #A80036; stroke-width: 1.5;" width="170" x="1102" y="400"/><ellipse cx="1117" cy="416" fill="#ADD1B2" rx="11" ry="11" style="stroke: #A80036; stroke-width: 1.0;"/><path d="M1119.9688,421.6406 Q1119.3906,421.9375 1118.75,422.0859 Q1118.1094,422.2344 1117.4063,422.2344 Q1114.9063,422.2344 1113.5859,420.5859 Q1112.2656,418.9375 1112.2656,415.8125 Q1112.2656,412.6875 1113.5859,411.0313 Q1114.9063,409.375 1117.4063,409.375 Q1118.1094,409.375 1118.7578,409.5313 Q1119.4063,409.6875 1119.9688,409.9844 L1119.9688,412.7031 Q1119.3438,412.125 1118.75,411.8516 Q1118.1563,411.5781 1117.5313,411.5781 Q1116.1875,411.5781 1115.5,412.6484 Q1114.8125,413.7188 1114.8125,415.8125 Q1114.8125,417.9063 1115.5,418.9766 Q1116.1875,420.0469 1117.5313,420.0469 Q1118.1563,420.0469 1118.75,419.7734 Q1119.3438,419.5 1119.9688,418.9219 L1119.9688,421.6406 Z "/><text fill="#000000" font-family="sans-serif" font-size="12" lengthAdjust="spacingAndGlyphs" textLength="138" x="1131" y="420.1543">BadGatewayException</text><line style="stroke: #A80036; stroke-width: 1.5;" x1="1103" x2="1271" y1="432" y2="432"/><line style="stroke: #A80036; stroke-width: 1.5;" x1="1103" x2="1271" y1="440" y2="440"/><rect fill="#FEFECE" filter="url(#f1)" height="48" style="stroke: #A80036; stroke-width: 1.5;" width="196" x="1307.5" y="400"/><ellipse cx="1322.5" cy="416" fill="#ADD1B2" rx="11" ry="11" style="stroke: #A80036; stroke-width: 1.0;"/><path d="M1325.4688,421.6406 Q1324.8906,421.9375 1324.25,422.0859 Q1323.6094,422.2344 1322.9063,422.2344 Q1320.4063,422.2344 1319.0859,420.5859 Q1317.7656,418.9375 1317.7656,415.8125 Q1317.7656,412.6875 1319.0859,411.0313 Q1320.4063,409.375 1322.9063,409.375 Q1323.6094,409.375 1324.2578,409.5313 Q1324.9063,409.6875 1325.4688,409.9844 L1325.4688,412.7031 Q1324.8438,412.125 1324.25,411.8516 Q1323.6563,411.5781 1323.0313,411.5781 Q1321.6875,411.5781 1321,412.6484 Q1320.3125,413.7188 1320.3125,415.8125 Q1320.3125,417.9063 1321,418.9766 Q1321.6875,420.0469 1323.0313,420.0469 Q1323.6563,420.0469 1324.25,419.7734 Q1324.8438,419.5 1325.4688,418.9219 L1325.4688,421.6406 Z "/><text fill="#000000" font-family="sans-serif" font-size="12" lengthAdjust="spacingAndGlyphs" textLength="164" x="1336.5" y="420.1543">GatewayTimeoutException</text><line style="stroke: #A80036; stroke-width: 1.5;" x1="1308.5" x2="1502.5" y1="432" y2="432"/><line style="stroke: #A80036; stroke-width: 1.5;" x1="1308.5" x2="1502.5" y1="440" y2="440"/><rect fill="#FEFECE" filter="url(#f1)" height="48" style="stroke: #A80036; stroke-width: 1.5;" width="212" x="1538.5" y="400"/><ellipse cx="1553.5" cy="416" fill="#ADD1B2" rx="11" ry="11" style="stroke: #A80036; stroke-width: 1.0;"/><path d="M1556.4688,421.6406 Q1555.8906,421.9375 1555.25,422.0859 Q1554.6094,422.2344 1553.9063,422.2344 Q1551.4063,422.2344 1550.0859,420.5859 Q1548.7656,418.9375 1548.7656,415.8125 Q1548.7656,412.6875 1550.0859,411.0313 Q1551.4063,409.375 1553.9063,409.375 Q1554.6094,409.375 1555.2578,409.5313 Q1555.9063,409.6875 1556.4688,409.9844 L1556.4688,412.7031 Q1555.8438,412.125 1555.25,411.8516 Q1554.6563,411.5781 1554.0313,411.5781 Q1552.6875,411.5781 1552,412.6484 Q1551.3125,413.7188 1551.3125,415.8125 Q1551.3125,417.9063 1552,418.9766 Q1552.6875,420.0469 1554.0313,420.0469 Q1554.6563,420.0469 1555.25,419.7734 Q1555.8438,419.5 1556.4688,418.9219 L1556.4688,421.6406 Z "/><text fill="#000000" font-family="sans-serif" font-size="12" lengthAdjust="spacingAndGlyphs" textLength="180" x="1567.5" y="420.1543">InternalServerErrorException</text><line style="stroke: #A80036; stroke-width: 1.5;" x1="1539.5" x2="1749.5" y1="432" y2="432"/><line style="stroke: #A80036; stroke-width: 1.5;" x1="1539.5" x2="1749.5" y1="440" y2="440"/><rect fill="#FEFECE" filter="url(#f1)" height="48" style="stroke: #A80036; stroke-width: 1.5;" width="210" x="1785" y="400"/><ellipse cx="1800" cy="416" fill="#ADD1B2" rx="11" ry="11" style="stroke: #A80036; stroke-width: 1.0;"/><path d="M1802.9688,421.6406 Q1802.3906,421.9375 1801.75,422.0859 Q1801.1094,422.2344 1800.4063,422.2344 Q1797.9063,422.2344 1796.5859,420.5859 Q1795.2656,418.9375 1795.2656,415.8125 Q1795.2656,412.6875 1796.5859,411.0313 Q1797.9063,409.375 1800.4063,409.375 Q1801.1094,409.375 1801.7578,409.5313 Q1802.4063,409.6875 1802.9688,409.9844 L1802.9688,412.7031 Q1802.3438,412.125 1801.75,411.8516 Q1801.1563,411.5781 1800.5313,411.5781 Q1799.1875,411.5781 1798.5,412.6484 Q1797.8125,413.7188 1797.8125,415.8125 Q1797.8125,417.9063 1798.5,418.9766 Q1799.1875,420.0469 1800.5313,420.0469 Q1801.1563,420.0469 1801.75,419.7734 Q1802.3438,419.5 1802.9688,418.9219 L1802.9688,421.6406 Z "/><text fill="#000000" font-family="sans-serif" font-size="12" lengthAdjust="spacingAndGlyphs" textLength="178" x="1814" y="420.1543">ServiceUnavailableException</text><line style="stroke: #A80036; stroke-width: 1.5;" x1="1786" x2="1994" y1="432" y2="432"/><line style="stroke: #A80036; stroke-width: 1.5;" x1="1786" x2="1994" y1="440" y2="440"/><path d="M573.8,90.859 C461.07,99.116 273.904,115.908 209,140 C181.964,150.036 155.017,168.721 135.92,183.814 " fill="none" style="stroke: #A80036; stroke-width: 1.0;"/><polygon fill="none" points="573.487,83.863,593.936,89.417,574.487,97.828,573.487,83.863" style="stroke: #A80036; stroke-width: 1.0;"/><path d="M726.691,117.2 C741.276,124.638 756.695,132.555 771,140 C798.691,154.412 829.647,170.868 853.946,183.864 " fill="none" style="stroke: #A80036; stroke-width: 1.0;"/><polygon fill="none" points="723.463,123.411,708.811,108.104,729.811,110.933,723.463,123.411" style="stroke: #A80036; stroke-width: 1.0;"/><path d="M663,128.275 C663,147.008 663,168.185 663,183.852 " fill="none" style="stroke: #A80036; stroke-width: 1.0;"/><polygon fill="none" points="656,128.234,663,108.234,670,128.234,656,128.234" style="stroke: #A80036; stroke-width: 1.0;"/><path d="M663,252.024 C663,265.579 663,280.038 663,291.678 " fill="none" style="stroke: #A80036; stroke-width: 1.0;"/><polygon fill="none" points="656,252,663,232,670,252,656,252" style="stroke: #A80036; stroke-width: 1.0;"/><path d="M566.738,345.824 C509.941,362.831 439.027,384.065 385.968,399.953 " fill="none" style="stroke: #A80036; stroke-width: 1.0;"/><polygon fill="none" points="565.02,339.032,586.187,340,569.036,352.443,565.02,339.032" style="stroke: #A80036; stroke-width: 1.0;"/><path d="M312.653,468.024 C313.804,481.579 315.032,496.0381 316.02,507.6784 " fill="none" style="stroke: #A80036; stroke-width: 1.0;"/><polygon fill="none" points="305.67,468.521,310.953,448,319.62,467.336,305.67,468.521" style="stroke: #A80036; stroke-width: 1.0;"/><path d="M623.321,353.573 C606.738,368.859 587.96,386.167 573.302,399.678 " fill="none" style="stroke: #A80036; stroke-width: 1.0;"/><polygon fill="none" points="618.597,348.408,638.047,340,628.085,358.702,618.597,348.408" style="stroke: #A80036; stroke-width: 1.0;"/><path d="M703.024,353.573 C719.751,368.859 738.693,386.167 753.478,399.678 " fill="none" style="stroke: #A80036; stroke-width: 1.0;"/><polygon fill="none" points="698.212,358.659,688.17,340,707.657,348.324,698.212,358.659" style="stroke: #A80036; stroke-width: 1.0;"/><path d="M750.593,346.383 C801.009,363.294 863.448,384.239 910.294,399.953 " fill="none" style="stroke: #A80036; stroke-width: 1.0;"/><polygon fill="none" points="748.303,352.998,731.567,340,752.755,339.724,748.303,352.998" style="stroke: #A80036; stroke-width: 1.0;"/><path d="M937.862,461.338 C920.493,476.681 900.776,494.098 885.402,507.6784 " fill="none" style="stroke: #A80036; stroke-width: 1.0;"/><polygon fill="none" points="933.338,455.995,952.962,448,942.607,466.487,933.338,455.995" style="stroke: #A80036; stroke-width: 1.0;"/><path d="M1019.79,461.338 C1037.02,476.681 1056.57,494.098 1071.82,507.6784 " fill="none" style="stroke: #A80036; stroke-width: 1.0;"/><polygon fill="none" points="1015.1,466.53,1004.821,448,1024.41,456.076,1015.1,466.53" style="stroke: #A80036; stroke-width: 1.0;"/><path d="M726.298,240.252 C740.997,246.388 756.798,252.118 772,256 C965.161,305.326 1200.87,314.418 1322.92,315.496 " fill="none" style="stroke: #A80036; stroke-width: 1.0;"/><polygon fill="none" points="723.228,246.549,707.753,232.074,728.877,233.739,723.228,246.549" style="stroke: #A80036; stroke-width: 1.0;"/><path d="M1339.25,348.972 C1305.54,365.361 1265.25,384.952 1234.59,399.862 " fill="none" style="stroke: #A80036; stroke-width: 1.0;"/><polygon fill="none" points="1336.65,342.451,1357.7,340,1342.77,355.041,1336.65,342.451" style="stroke: #A80036; stroke-width: 1.0;"/><path d="M1405,360.024 C1405,373.579 1405,388.038 1405,399.678 " fill="none" style="stroke: #A80036; stroke-width: 1.0;"/><polygon fill="none" points="1398,360,1405,340,1412,360,1398,360" style="stroke: #A80036; stroke-width: 1.0;"/><path d="M1475.29,348.175 C1512.6,364.722 1557.66,384.709 1591.83,399.862 " fill="none" style="stroke: #A80036; stroke-width: 1.0;"/><polygon fill="none" points="1472.3,354.508,1456.86,340,1477.98,341.71,1472.3,354.508" style="stroke: #A80036; stroke-width: 1.0;"/><path d="M1507.01,339.295 C1588.56,357.119 1702.47,382.015 1784.84,400.017 " fill="none" style="stroke: #A80036; stroke-width: 1.0;"/><polygon fill="none" points="1505.32,346.09,1487.27,334.981,1508.31,332.413,1505.32,346.09" style="stroke: #A80036; stroke-width: 1.0;"/></g></svg>