<?xml version="1.0" encoding="UTF-8" standalone="yes"?><svg xmlns="http://www.w3.org/2000/svg" xmlns:xlink="http://www.w3.org/1999/xlink" height="579pt" style="width:2151px;height:579px;" version="1.1" viewBox="0 0 2151 579" width="2151pt"><defs><filter height="300%" id="f1" width="300%" x="-1" y="-1"><feGaussianBlur result="blurOut" stdDeviation="2.0"/><feColorMatrix in="blurOut" result="blurOut2" type="matrix" values="0 0 0 0 0 0 0 0 0 0 0 0 0 0 0 0 0 0 .4 0"/><feOffset dx="4.0" dy="4.0" in="blurOut2" result="blurOut3"/><feBlend in="SourceGraphic" in2="blurOut3" mode="normal"/></filter></defs><g><polygon fill="#FFFFFF" filter="url(#f1)" points="540,24,696,24,703,46.4883,707,46.4883,707,124,540,124,540,24" style="stroke: #000000; stroke-width: 2.0;"/><line style="stroke: #000000; stroke-width: 2.0;" x1="540" x2="703" y1="46.4883" y2="46.4883"/><text fill="#000000" font-family="sans-serif" font-size="14" font-weight="bold" lengthAdjust="spacingAndGlyphs" textLength="150" x="543" y="40.5352">io.sphere.sdk.models</text><polygon fill="#FFFFFF" filter="url(#f1)" points="22,148,156,148,163,170.4883,167,170.4883,167,248,22,248,22,148" style="stroke: #000000; stroke-width: 2.0;"/><line style="stroke: #000000; stroke-width: 2.0;" x1="22" x2="163" y1="170.4883" y2="170.4883"/><text fill="#000000" font-family="sans-serif" font-size="14" font-weight="bold" lengthAdjust="spacingAndGlyphs" textLength="128" x="25" y="164.5352">io.sphere.sdk.json</text><polygon fill="#FFFFFF" filter="url(#f1)" points="191,148,334,148,341,170.4883,2144,170.4883,2144,572,191,572,191,148" style="stroke: #000000; stroke-width: 2.0;"/><line style="stroke: #000000; stroke-width: 2.0;" x1="191" x2="341" y1="170.4883" y2="170.4883"/><text fill="#000000" font-family="sans-serif" font-size="14" font-weight="bold" lengthAdjust="spacingAndGlyphs" textLength="137" x="194" y="164.5352">io.sphere.sdk.client</text><rect fill="#FEFECE" filter="url(#f1)" height="48" style="stroke: #A80036; stroke-width: 1.5;" width="128" x="559" y="60"/><ellipse cx="574" cy="76" fill="#ADD1B2" rx="11" ry="11" style="stroke: #A80036; stroke-width: 1.0;"/><path d="M576.9731,81.6431 Q576.3921,81.9419 575.7529,82.0913 Q575.1138,82.2407 574.4082,82.2407 Q571.9014,82.2407 570.5815,80.5889 Q569.2617,78.937 569.2617,75.8159 Q569.2617,72.6865 570.5815,71.0347 Q571.9014,69.3828 574.4082,69.3828 Q575.1138,69.3828 575.7612,69.5322 Q576.4087,69.6816 576.9731,69.9805 L576.9731,72.7031 Q576.3423,72.1221 575.7488,71.8523 Q575.1553,71.5825 574.5244,71.5825 Q573.1797,71.5825 572.4949,72.6492 Q571.8101,73.7158 571.8101,75.8159 Q571.8101,77.9077 572.4949,78.9744 Q573.1797,80.041 574.5244,80.041 Q575.1553,80.041 575.7488,79.7712 Q576.3423,79.5015 576.9731,78.9204 Z "/><text fill="#000000" font-family="sans-serif" font-size="12" lengthAdjust="spacingAndGlyphs" textLength="96" x="588" y="80.5352">SphereException</text><line style="stroke: #A80036; stroke-width: 1.5;" x1="560" x2="686" y1="92" y2="92"/><line style="stroke: #A80036; stroke-width: 1.5;" x1="560" x2="686" y1="100" y2="100"/><rect fill="#FEFECE" filter="url(#f1)" height="48" style="stroke: #A80036; stroke-width: 1.5;" width="112" x="39" y="184"/><ellipse cx="54" cy="200" fill="#ADD1B2" rx="11" ry="11" style="stroke: #A80036; stroke-width: 1.0;"/><path d="M56.9731,205.6431 Q56.3921,205.9419 55.7529,206.0913 Q55.1138,206.2407 54.4082,206.2407 Q51.9014,206.2407 50.5815,204.5889 Q49.2617,202.937 49.2617,199.8159 Q49.2617,196.6865 50.5815,195.0347 Q51.9014,193.3828 54.4082,193.3828 Q55.1138,193.3828 55.7612,193.5322 Q56.4087,193.6816 56.9731,193.9805 L56.9731,196.7031 Q56.3423,196.1221 55.7488,195.8523 Q55.1553,195.5825 54.5244,195.5825 Q53.1797,195.5825 52.4949,196.6492 Q51.8101,197.7158 51.8101,199.8159 Q51.8101,201.9077 52.4949,202.9744 Q53.1797,204.041 54.5244,204.041 Q55.1553,204.041 55.7488,203.7712 Q56.3423,203.5015 56.9731,202.9204 Z "/><text fill="#000000" font-family="sans-serif" font-size="12" lengthAdjust="spacingAndGlyphs" textLength="80" x="68" y="204.5352">JsonException</text><line style="stroke: #A80036; stroke-width: 1.5;" x1="40" x2="150" y1="216" y2="216"/><line style="stroke: #A80036; stroke-width: 1.5;" x1="40" x2="150" y1="224" y2="224"/><rect fill="#FEFECE" filter="url(#f1)" height="48" style="stroke: #A80036; stroke-width: 1.5;" width="198" x="846" y="184"/><ellipse cx="861" cy="200" fill="#ADD1B2" rx="11" ry="11" style="stroke: #A80036; stroke-width: 1.0;"/><path d="M863.9731,205.6431 Q863.3921,205.9419 862.7529,206.0913 Q862.1138,206.2407 861.4082,206.2407 Q858.9014,206.2407 857.5815,204.5889 Q856.2617,202.937 856.2617,199.8159 Q856.2617,196.6865 857.5815,195.0347 Q858.9014,193.3828 861.4082,193.3828 Q862.1138,193.3828 862.7612,193.5322 Q863.4087,193.6816 863.9731,193.9805 L863.9731,196.7031 Q863.3423,196.1221 862.7488,195.8523 Q862.1553,195.5825 861.5244,195.5825 Q860.1797,195.5825 859.4949,196.6492 Q858.8101,197.7158 858.8101,199.8159 Q858.8101,201.9077 859.4949,202.9744 Q860.1797,204.041 861.5244,204.041 Q862.1553,204.041 862.7488,203.7712 Q863.3423,203.5015 863.9731,202.9204 Z "/><text fill="#000000" font-family="sans-serif" font-size="12" lengthAdjust="spacingAndGlyphs" textLength="166" x="875" y="204.5352">SphereDeprecationException</text><line style="stroke: #A80036; stroke-width: 1.5;" x1="847" x2="1043" y1="216" y2="216"/><line style="stroke: #A80036; stroke-width: 1.5;" x1="847" x2="1043" y1="224" y2="224"/><rect fill="#FEFECE" filter="url(#f1)" height="48" style="stroke: #A80036; stroke-width: 1.5;" width="168" x="643" y="184"/><ellipse cx="658" cy="200" fill="#ADD1B2" rx="11" ry="11" style="stroke: #A80036; stroke-width: 1.0;"/><path d="M660.9731,205.6431 Q660.3921,205.9419 659.7529,206.0913 Q659.1138,206.2407 658.4082,206.2407 Q655.9014,206.2407 654.5815,204.5889 Q653.2617,202.937 653.2617,199.8159 Q653.2617,196.6865 654.5815,195.0347 Q655.9014,193.3828 658.4082,193.3828 Q659.1138,193.3828 659.7612,193.5322 Q660.4087,193.6816 660.9731,193.9805 L660.9731,196.7031 Q660.3423,196.1221 659.7488,195.8523 Q659.1553,195.5825 658.5244,195.5825 Q657.1797,195.5825 656.4949,196.6492 Q655.8101,197.7158 655.8101,199.8159 Q655.8101,201.9077 656.4949,202.9744 Q657.1797,204.041 658.5244,204.041 Q659.1553,204.041 659.7488,203.7712 Q660.3423,203.5015 660.9731,202.9204 Z "/><text fill="#000000" font-family="sans-serif" font-size="12" lengthAdjust="spacingAndGlyphs" textLength="136" x="672" y="204.5352">SphereServiceException</text><line style="stroke: #A80036; stroke-width: 1.5;" x1="644" x2="810" y1="216" y2="216"/><line style="stroke: #A80036; stroke-width: 1.5;" x1="644" x2="810" y1="224" y2="224"/><rect fill="#FEFECE" filter="url(#f1)" height="48" style="stroke: #A80036; stroke-width: 1.5;" width="149" x="652.75" y="292"/><ellipse cx="667.75" cy="308" fill="#ADD1B2" rx="11" ry="11" style="stroke: #A80036; stroke-width: 1.0;"/><path d="M670.7231,313.6431 Q670.1421,313.9419 669.5029,314.0913 Q668.8638,314.2407 668.1582,314.2407 Q665.6514,314.2407 664.3315,312.5889 Q663.0117,310.937 663.0117,307.8159 Q663.0117,304.6865 664.3315,303.0347 Q665.6514,301.3828 668.1582,301.3828 Q668.8638,301.3828 669.5112,301.5322 Q670.1587,301.6816 670.7231,301.9805 L670.7231,304.7031 Q670.0923,304.1221 669.4988,303.8523 Q668.9053,303.5825 668.2744,303.5825 Q666.9297,303.5825 666.2449,304.6492 Q665.5601,305.7158 665.5601,307.8159 Q665.5601,309.9077 666.2449,310.9744 Q666.9297,312.041 668.2744,312.041 Q668.9053,312.041 669.4988,311.7712 Q670.0923,311.5015 670.7231,310.9204 Z "/><text fill="#000000" font-family="sans-serif" font-size="12" lengthAdjust="spacingAndGlyphs" textLength="117" x="681.75" y="312.5352">ClientErrorException</text><line style="stroke: #A80036; stroke-width: 1.5;" x1="653.75" x2="800.75" y1="324" y2="324"/><line style="stroke: #A80036; stroke-width: 1.5;" x1="653.75" x2="800.75" y1="332" y2="332"/><rect fill="#FEFECE" filter="url(#f1)" height="48" style="stroke: #A80036; stroke-width: 1.5;" width="157" x="207.75" y="400"/><ellipse cx="222.75" cy="416" fill="#ADD1B2" rx="11" ry="11" style="stroke: #A80036; stroke-width: 1.0;"/><path d="M225.7231,421.6431 Q225.1421,421.9419 224.5029,422.0913 Q223.8638,422.2407 223.1582,422.2407 Q220.6514,422.2407 219.3315,420.5889 Q218.0117,418.937 218.0117,415.8159 Q218.0117,412.6865 219.3315,411.0347 Q220.6514,409.3828 223.1582,409.3828 Q223.8638,409.3828 224.5112,409.5322 Q225.1587,409.6816 225.7231,409.9805 L225.7231,412.7031 Q225.0923,412.1221 224.4988,411.8523 Q223.9053,411.5825 223.2744,411.5825 Q221.9297,411.5825 221.2449,412.6492 Q220.5601,413.7158 220.5601,415.8159 Q220.5601,417.9077 221.2449,418.9744 Q221.9297,420.041 223.2744,420.041 Q223.9053,420.041 224.4988,419.7712 Q225.0923,419.5015 225.7231,418.9204 Z "/><text fill="#000000" font-family="sans-serif" font-size="12" lengthAdjust="spacingAndGlyphs" textLength="125" x="236.75" y="420.5352">BadRequestException</text><line style="stroke: #A80036; stroke-width: 1.5;" x1="208.75" x2="363.75" y1="432" y2="432"/><line style="stroke: #A80036; stroke-width: 1.5;" x1="208.75" x2="363.75" y1="440" y2="440"/><rect fill="#FEFECE" filter="url(#f1)" height="48" style="stroke: #A80036; stroke-width: 1.5;" width="173" x="207.75" y="508"/><ellipse cx="222.75" cy="524" fill="#ADD1B2" rx="11" ry="11" style="stroke: #A80036; stroke-width: 1.0;"/><path d="M225.7231,529.6431 Q225.1421,529.9419 224.5029,530.0913 Q223.8638,530.2407 223.1582,530.2407 Q220.6514,530.2407 219.3315,528.5889 Q218.0117,526.937 218.0117,523.8159 Q218.0117,520.6865 219.3315,519.0347 Q220.6514,517.3828 223.1582,517.3828 Q223.8638,517.3828 224.5112,517.5322 Q225.1587,517.6816 225.7231,517.9805 L225.7231,520.7031 Q225.0923,520.1221 224.4988,519.8523 Q223.9053,519.5825 223.2744,519.5825 Q221.9297,519.5825 221.2449,520.6492 Q220.5601,521.7158 220.5601,523.8159 Q220.5601,525.9077 221.2449,526.9744 Q221.9297,528.041 223.2744,528.041 Q223.9053,528.041 224.4988,527.7712 Q225.0923,527.5015 225.7231,526.9204 Z "/><text fill="#000000" font-family="sans-serif" font-size="12" lengthAdjust="spacingAndGlyphs" textLength="141" x="236.75" y="528.5352">ErrorResponseException</text><line style="stroke: #A80036; stroke-width: 1.5;" x1="208.75" x2="379.75" y1="540" y2="540"/><line style="stroke: #A80036; stroke-width: 1.5;" x1="208.75" x2="379.75" y1="548" y2="548"/><rect fill="#FEFECE" filter="url(#f1)" height="48" style="stroke: #A80036; stroke-width: 1.5;" width="220" x="400" y="400"/><ellipse cx="415" cy="416" fill="#ADD1B2" rx="11" ry="11" style="stroke: #A80036; stroke-width: 1.0;"/><path d="M417.9731,421.6431 Q417.3921,421.9419 416.7529,422.0913 Q416.1138,422.2407 415.4082,422.2407 Q412.9014,422.2407 411.5815,420.5889 Q410.2617,418.937 410.2617,415.8159 Q410.2617,412.6865 411.5815,411.0347 Q412.9014,409.3828 415.4082,409.3828 Q416.1138,409.3828 416.7612,409.5322 Q417.4087,409.6816 417.9731,409.9805 L417.9731,412.7031 Q417.3423,412.1221 416.7488,411.8523 Q416.1553,411.5825 415.5244,411.5825 Q414.1797,411.5825 413.4949,412.6492 Q412.8101,413.7158 412.8101,415.8159 Q412.8101,417.9077 413.4949,418.9744 Q414.1797,420.041 415.5244,420.041 Q416.1553,420.041 416.7488,419.7712 Q417.3423,419.5015 417.9731,418.9204 Z "/><text fill="#000000" font-family="sans-serif" font-size="12" lengthAdjust="spacingAndGlyphs" textLength="188" x="429" y="420.5352">ConcurrentModificationException</text><line style="stroke: #A80036; stroke-width: 1.5;" x1="401" x2="619" y1="432" y2="432"/><line style="stroke: #A80036; stroke-width: 1.5;" x1="401" x2="619" y1="440" y2="440"/><rect fill="#FEFECE" filter="url(#f1)" height="48" style="stroke: #A80036; stroke-width: 1.5;" width="143" x="655.75" y="400"/><ellipse cx="670.75" cy="416" fill="#ADD1B2" rx="11" ry="11" style="stroke: #A80036; stroke-width: 1.0;"/><path d="M673.7231,421.6431 Q673.1421,421.9419 672.5029,422.0913 Q671.8638,422.2407 671.1582,422.2407 Q668.6514,422.2407 667.3315,420.5889 Q666.0117,418.937 666.0117,415.8159 Q666.0117,412.6865 667.3315,411.0347 Q668.6514,409.3828 671.1582,409.3828 Q671.8638,409.3828 672.5112,409.5322 Q673.1587,409.6816 673.7231,409.9805 L673.7231,412.7031 Q673.0923,412.1221 672.4988,411.8523 Q671.9053,411.5825 671.2744,411.5825 Q669.9297,411.5825 669.2449,412.6492 Q668.5601,413.7158 668.5601,415.8159 Q668.5601,417.9077 669.2449,418.9744 Q669.9297,420.041 671.2744,420.041 Q671.9053,420.041 672.4988,419.7712 Q673.0923,419.5015 673.7231,418.9204 Z "/><text fill="#000000" font-family="sans-serif" font-size="12" lengthAdjust="spacingAndGlyphs" textLength="111" x="684.75" y="420.5352">NotFoundException</text><line style="stroke: #A80036; stroke-width: 1.5;" x1="656.75" x2="797.75" y1="432" y2="432"/><line style="stroke: #A80036; stroke-width: 1.5;" x1="656.75" x2="797.75" y1="440" y2="440"/><rect fill="#FEFECE" filter="url(#f1)" height="48" style="stroke: #A80036; stroke-width: 1.5;" width="220" x="834" y="400"/><ellipse cx="849" cy="416" fill="#ADD1B2" rx="11" ry="11" style="stroke: #A80036; stroke-width: 1.0;"/><path d="M851.9731,421.6431 Q851.3921,421.9419 850.7529,422.0913 Q850.1138,422.2407 849.4082,422.2407 Q846.9014,422.2407 845.5815,420.5889 Q844.2617,418.937 844.2617,415.8159 Q844.2617,412.6865 845.5815,411.0347 Q846.9014,409.3828 849.4082,409.3828 Q850.1138,409.3828 850.7612,409.5322 Q851.4087,409.6816 851.9731,409.9805 L851.9731,412.7031 Q851.3423,412.1221 850.7488,411.8523 Q850.1553,411.5825 849.5244,411.5825 Q848.1797,411.5825 847.4949,412.6492 Q846.8101,413.7158 846.8101,415.8159 Q846.8101,417.9077 847.4949,418.9744 Q848.1797,420.041 849.5244,420.041 Q850.1553,420.041 850.7488,419.7712 Q851.3423,419.5015 851.9731,418.9204 Z "/><text fill="#000000" font-family="sans-serif" font-size="12" lengthAdjust="spacingAndGlyphs" textLength="188" x="863" y="420.5352">RequestEntityTooLargeException</text><line style="stroke: #A80036; stroke-width: 1.5;" x1="835" x2="1053" y1="432" y2="432"/><line style="stroke: #A80036; stroke-width: 1.5;" x1="835" x2="1053" y1="440" y2="440"/><rect fill="#FEFECE" filter="url(#f1)" height="48" style="stroke: #A80036; stroke-width: 1.5;" width="165" x="1089.75" y="400"/><ellipse cx="1104.75" cy="416" fill="#ADD1B2" rx="11" ry="11" style="stroke: #A80036; stroke-width: 1.0;"/><path d="M1107.7231,421.6431 Q1107.1421,421.9419 1106.5029,422.0913 Q1105.8638,422.2407 1105.1582,422.2407 Q1102.6514,422.2407 1101.3315,420.5889 Q1100.0117,418.937 1100.0117,415.8159 Q1100.0117,412.6865 1101.3315,411.0347 Q1102.6514,409.3828 1105.1582,409.3828 Q1105.8638,409.3828 1106.5112,409.5322 Q1107.1587,409.6816 1107.7231,409.9805 L1107.7231,412.7031 Q1107.0923,412.1221 1106.4988,411.8523 Q1105.9053,411.5825 1105.2744,411.5825 Q1103.9297,411.5825 1103.2449,412.6492 Q1102.5601,413.7158 1102.5601,415.8159 Q1102.5601,417.9077 1103.2449,418.9744 Q1103.9297,420.041 1105.2744,420.041 Q1105.9053,420.041 1106.4988,419.7712 Q1107.0923,419.5015 1107.7231,418.9204 Z "/><text fill="#000000" font-family="sans-serif" font-size="12" lengthAdjust="spacingAndGlyphs" textLength="133" x="1118.75" y="420.5352">UnauthorizedException</text><line style="stroke: #A80036; stroke-width: 1.5;" x1="1090.75" x2="1253.75" y1="432" y2="432"/><line style="stroke: #A80036; stroke-width: 1.5;" x1="1090.75" x2="1253.75" y1="440" y2="440"/><rect fill="#FEFECE" filter="url(#f1)" height="48" style="stroke: #A80036; stroke-width: 1.5;" width="222" x="947" y="508"/><ellipse cx="962" cy="524" fill="#ADD1B2" rx="11" ry="11" style="stroke: #A80036; stroke-width: 1.0;"/><path d="M964.9731,529.6431 Q964.3921,529.9419 963.7529,530.0913 Q963.1138,530.2407 962.4082,530.2407 Q959.9014,530.2407 958.5815,528.5889 Q957.2617,526.937 957.2617,523.8159 Q957.2617,520.6865 958.5815,519.0347 Q959.9014,517.3828 962.4082,517.3828 Q963.1138,517.3828 963.7612,517.5322 Q964.4087,517.6816 964.9731,517.9805 L964.9731,520.7031 Q964.3423,520.1221 963.7488,519.8523 Q963.1553,519.5825 962.5244,519.5825 Q961.1797,519.5825 960.4949,520.6492 Q959.8101,521.7158 959.8101,523.8159 Q959.8101,525.9077 960.4949,526.9744 Q961.1797,528.041 962.5244,528.041 Q963.1553,528.041 963.7488,527.7712 Q964.3423,527.5015 964.9731,526.9204 Z "/><text fill="#000000" font-family="sans-serif" font-size="12" lengthAdjust="spacingAndGlyphs" textLength="190" x="976" y="528.5352">InvalidClientCredentialsException</text><line style="stroke: #A80036; stroke-width: 1.5;" x1="948" x2="1168" y1="540" y2="540"/><line style="stroke: #A80036; stroke-width: 1.5;" x1="948" x2="1168" y1="548" y2="548"/><rect fill="#FEFECE" filter="url(#f1)" height="48" style="stroke: #A80036; stroke-width: 1.5;" width="161" x="1204.75" y="508"/><ellipse cx="1219.75" cy="524" fill="#ADD1B2" rx="11" ry="11" style="stroke: #A80036; stroke-width: 1.0;"/><path d="M1222.7231,529.6431 Q1222.1421,529.9419 1221.5029,530.0913 Q1220.8638,530.2407 1220.1582,530.2407 Q1217.6514,530.2407 1216.3315,528.5889 Q1215.0117,526.937 1215.0117,523.8159 Q1215.0117,520.6865 1216.3315,519.0347 Q1217.6514,517.3828 1220.1582,517.3828 Q1220.8638,517.3828 1221.5112,517.5322 Q1222.1587,517.6816 1222.7231,517.9805 L1222.7231,520.7031 Q1222.0923,520.1221 1221.4988,519.8523 Q1220.9053,519.5825 1220.2744,519.5825 Q1218.9297,519.5825 1218.2449,520.6492 Q1217.5601,521.7158 1217.5601,523.8159 Q1217.5601,525.9077 1218.2449,526.9744 Q1218.9297,528.041 1220.2744,528.041 Q1220.9053,528.041 1221.4988,527.7712 Q1222.0923,527.5015 1222.7231,526.9204 Z "/><text fill="#000000" font-family="sans-serif" font-size="12" lengthAdjust="spacingAndGlyphs" textLength="129" x="1233.75" y="528.5352">InvalidTokenException</text><line style="stroke: #A80036; stroke-width: 1.5;" x1="1205.75" x2="1364.75" y1="540" y2="540"/><line style="stroke: #A80036; stroke-width: 1.5;" x1="1205.75" x2="1364.75" y1="548" y2="548"/><rect fill="#FEFECE" filter="url(#f1)" height="48" style="stroke: #A80036; stroke-width: 1.5;" width="153" x="1499.75" y="292"/><ellipse cx="1514.75" cy="308" fill="#ADD1B2" rx="11" ry="11" style="stroke: #A80036; stroke-width: 1.0;"/><path d="M1517.7231,313.6431 Q1517.1421,313.9419 1516.5029,314.0913 Q1515.8638,314.2407 1515.1582,314.2407 Q1512.6514,314.2407 1511.3315,312.5889 Q1510.0117,310.937 1510.0117,307.8159 Q1510.0117,304.6865 1511.3315,303.0347 Q1512.6514,301.3828 1515.1582,301.3828 Q1515.8638,301.3828 1516.5112,301.5322 Q1517.1587,301.6816 1517.7231,301.9805 L1517.7231,304.7031 Q1517.0923,304.1221 1516.4988,303.8523 Q1515.9053,303.5825 1515.2744,303.5825 Q1513.9297,303.5825 1513.2449,304.6492 Q1512.5601,305.7158 1512.5601,307.8159 Q1512.5601,309.9077 1513.2449,310.9744 Q1513.9297,312.041 1515.2744,312.041 Q1515.9053,312.041 1516.4988,311.7712 Q1517.0923,311.5015 1517.7231,310.9204 Z "/><text fill="#000000" font-family="sans-serif" font-size="12" lengthAdjust="spacingAndGlyphs" textLength="121" x="1528.75" y="312.5352">ServerErrorException</text><line style="stroke: #A80036; stroke-width: 1.5;" x1="1500.75" x2="1651.75" y1="324" y2="324"/><line style="stroke: #A80036; stroke-width: 1.5;" x1="1500.75" x2="1651.75" y1="332" y2="332"/><rect fill="#FEFECE" filter="url(#f1)" height="48" style="stroke: #A80036; stroke-width: 1.5;" width="159" x="1289.75" y="400"/><ellipse cx="1304.75" cy="416" fill="#ADD1B2" rx="11" ry="11" style="stroke: #A80036; stroke-width: 1.0;"/><path d="M1307.7231,421.6431 Q1307.1421,421.9419 1306.5029,422.0913 Q1305.8638,422.2407 1305.1582,422.2407 Q1302.6514,422.2407 1301.3315,420.5889 Q1300.0117,418.937 1300.0117,415.8159 Q1300.0117,412.6865 1301.3315,411.0347 Q1302.6514,409.3828 1305.1582,409.3828 Q1305.8638,409.3828 1306.5112,409.5322 Q1307.1587,409.6816 1307.7231,409.9805 L1307.7231,412.7031 Q1307.0923,412.1221 1306.4988,411.8523 Q1305.9053,411.5825 1305.2744,411.5825 Q1303.9297,411.5825 1303.2449,412.6492 Q1302.5601,413.7158 1302.5601,415.8159 Q1302.5601,417.9077 1303.2449,418.9744 Q1303.9297,420.041 1305.2744,420.041 Q1305.9053,420.041 1306.4988,419.7712 Q1307.0923,419.5015 1307.7231,418.9204 Z "/><text fill="#000000" font-family="sans-serif" font-size="12" lengthAdjust="spacingAndGlyphs" textLength="127" x="1318.75" y="420.5352">BadGatewayException</text><line style="stroke: #A80036; stroke-width: 1.5;" x1="1290.75" x2="1447.75" y1="432" y2="432"/><line style="stroke: #A80036; stroke-width: 1.5;" x1="1290.75" x2="1447.75" y1="440" y2="440"/><rect fill="#FEFECE" filter="url(#f1)" height="48" style="stroke: #A80036; stroke-width: 1.5;" width="184" x="1484" y="400"/><ellipse cx="1499" cy="416" fill="#ADD1B2" rx="11" ry="11" style="stroke: #A80036; stroke-width: 1.0;"/><path d="M1501.9731,421.6431 Q1501.3921,421.9419 1500.7529,422.0913 Q1500.1138,422.2407 1499.4082,422.2407 Q1496.9014,422.2407 1495.5815,420.5889 Q1494.2617,418.937 1494.2617,415.8159 Q1494.2617,412.6865 1495.5815,411.0347 Q1496.9014,409.3828 1499.4082,409.3828 Q1500.1138,409.3828 1500.7612,409.5322 Q1501.4087,409.6816 1501.9731,409.9805 L1501.9731,412.7031 Q1501.3423,412.1221 1500.7488,411.8523 Q1500.1553,411.5825 1499.5244,411.5825 Q1498.1797,411.5825 1497.4949,412.6492 Q1496.8101,413.7158 1496.8101,415.8159 Q1496.8101,417.9077 1497.4949,418.9744 Q1498.1797,420.041 1499.5244,420.041 Q1500.1553,420.041 1500.7488,419.7712 Q1501.3423,419.5015 1501.9731,418.9204 Z "/><text fill="#000000" font-family="sans-serif" font-size="12" lengthAdjust="spacingAndGlyphs" textLength="152" x="1513" y="420.5352">GatewayTimeoutException</text><line style="stroke: #A80036; stroke-width: 1.5;" x1="1485" x2="1667" y1="432" y2="432"/><line style="stroke: #A80036; stroke-width: 1.5;" x1="1485" x2="1667" y1="440" y2="440"/><rect fill="#FEFECE" filter="url(#f1)" height="48" style="stroke: #A80036; stroke-width: 1.5;" width="196" x="1703" y="400"/><ellipse cx="1718" cy="416" fill="#ADD1B2" rx="11" ry="11" style="stroke: #A80036; stroke-width: 1.0;"/><path d="M1720.9731,421.6431 Q1720.3921,421.9419 1719.7529,422.0913 Q1719.1138,422.2407 1718.4082,422.2407 Q1715.9014,422.2407 1714.5815,420.5889 Q1713.2617,418.937 1713.2617,415.8159 Q1713.2617,412.6865 1714.5815,411.0347 Q1715.9014,409.3828 1718.4082,409.3828 Q1719.1138,409.3828 1719.7612,409.5322 Q1720.4087,409.6816 1720.9731,409.9805 L1720.9731,412.7031 Q1720.3423,412.1221 1719.7488,411.8523 Q1719.1553,411.5825 1718.5244,411.5825 Q1717.1797,411.5825 1716.4949,412.6492 Q1715.8101,413.7158 1715.8101,415.8159 Q1715.8101,417.9077 1716.4949,418.9744 Q1717.1797,420.041 1718.5244,420.041 Q1719.1553,420.041 1719.7488,419.7712 Q1720.3423,419.5015 1720.9731,418.9204 Z "/><text fill="#000000" font-family="sans-serif" font-size="12" lengthAdjust="spacingAndGlyphs" textLength="164" x="1732" y="420.5352">InternalServerErrorException</text><line style="stroke: #A80036; stroke-width: 1.5;" x1="1704" x2="1898" y1="432" y2="432"/><line style="stroke: #A80036; stroke-width: 1.5;" x1="1704" x2="1898" y1="440" y2="440"/><rect fill="#FEFECE" filter="url(#f1)" height="48" style="stroke: #A80036; stroke-width: 1.5;" width="194" x="1934" y="400"/><ellipse cx="1949" cy="416" fill="#ADD1B2" rx="11" ry="11" style="stroke: #A80036; stroke-width: 1.0;"/><path d="M1951.9731,421.6431 Q1951.3921,421.9419 1950.7529,422.0913 Q1950.1138,422.2407 1949.4082,422.2407 Q1946.9014,422.2407 1945.5815,420.5889 Q1944.2617,418.937 1944.2617,415.8159 Q1944.2617,412.6865 1945.5815,411.0347 Q1946.9014,409.3828 1949.4082,409.3828 Q1950.1138,409.3828 1950.7612,409.5322 Q1951.4087,409.6816 1951.9731,409.9805 L1951.9731,412.7031 Q1951.3423,412.1221 1950.7488,411.8523 Q1950.1553,411.5825 1949.5244,411.5825 Q1948.1797,411.5825 1947.4949,412.6492 Q1946.8101,413.7158 1946.8101,415.8159 Q1946.8101,417.9077 1947.4949,418.9744 Q1948.1797,420.041 1949.5244,420.041 Q1950.1553,420.041 1950.7488,419.7712 Q1951.3423,419.5015 1951.9731,418.9204 Z "/><text fill="#000000" font-family="sans-serif" font-size="12" lengthAdjust="spacingAndGlyphs" textLength="162" x="1963" y="420.5352">ServiceUnavailableException</text><line style="stroke: #A80036; stroke-width: 1.5;" x1="1935" x2="2127" y1="432" y2="432"/><line style="stroke: #A80036; stroke-width: 1.5;" x1="1935" x2="2127" y1="440" y2="440"/><rect fill="#FEFECE" filter="url(#f1)" height="48" style="stroke: #A80036; stroke-width: 1.5;" width="175" x="432.75" y="184"/><ellipse cx="447.75" cy="200" fill="#ADD1B2" rx="11" ry="11" style="stroke: #A80036; stroke-width: 1.0;"/><path d="M450.7231,205.6431 Q450.1421,205.9419 449.5029,206.0913 Q448.8638,206.2407 448.1582,206.2407 Q445.6514,206.2407 444.3315,204.5889 Q443.0117,202.937 443.0117,199.8159 Q443.0117,196.6865 444.3315,195.0347 Q445.6514,193.3828 448.1582,193.3828 Q448.8638,193.3828 449.5112,193.5322 Q450.1587,193.6816 450.7231,193.9805 L450.7231,196.7031 Q450.0923,196.1221 449.4988,195.8523 Q448.9053,195.5825 448.2744,195.5825 Q446.9297,195.5825 446.2449,196.6492 Q445.5601,197.7158 445.5601,199.8159 Q445.5601,201.9077 446.2449,202.9744 Q446.9297,204.041 448.2744,204.041 Q448.9053,204.041 449.4988,203.7712 Q450.0923,203.5015 450.7231,202.9204 Z "/><text fill="#000000" font-family="sans-serif" font-size="12" lengthAdjust="spacingAndGlyphs" textLength="143" x="461.75" y="204.5352">SphereTimeoutException</text><line style="stroke: #A80036; stroke-width: 1.5;" x1="433.75" x2="606.75" y1="216" y2="216"/><line style="stroke: #A80036; stroke-width: 1.5;" x1="433.75" x2="606.75" y1="224" y2="224"/><path d="M538.777,90.917 C431.507,99.279 252.652,116.23 191,140 C164.83,150.09 138.978,168.771 120.706,183.849 " fill="none" style="stroke: #A80036; stroke-width: 1.0;"/><polygon fill="none" points="538.423,83.923,558.897,89.383,539.487,97.883,538.423,83.923" style="stroke: #A80036; stroke-width: 1.0;"/><path d="M706.567,102.036 C744.676,111.133 789.914,123.827 829,140 C857.796,151.916 888.229,169.714 910.695,183.972 " fill="none" style="stroke: #A80036; stroke-width: 1.0;"/><polygon fill="none" points="704.99,108.856,687.073,97.543,708.134,95.213,704.99,108.856" style="stroke: #A80036; stroke-width: 1.0;"/><path d="M655.798,123.474 C672.702,143.304 692.756,166.83 707.267,183.852 " fill="none" style="stroke: #A80036; stroke-width: 1.0;"/><polygon fill="none" points="650.454,127.996,642.806,108.234,661.108,118.914,650.454,127.996" style="stroke: #A80036; stroke-width: 1.0;"/><path d="M727,252.024 C727,265.579 727,280.038 727,291.678 " fill="none" style="stroke: #A80036; stroke-width: 1.0;"/><polygon fill="none" points="720,252,727,232,734,252,720,252" style="stroke: #A80036; stroke-width: 1.0;"/><path d="M633.121,339.565 C553.132,358.791 439.516,386.1 364.336,404.171 " fill="none" style="stroke: #A80036; stroke-width: 1.0;"/><polygon fill="none" points="631.607,332.73,652.689,334.862,634.879,346.342,631.607,332.73" style="stroke: #A80036; stroke-width: 1.0;"/><path d="M289.247,468.024 C290.27,481.579 291.361,496.0381 292.24,507.6784 " fill="none" style="stroke: #A80036; stroke-width: 1.0;"/><polygon fill="none" points="282.261,468.471,287.736,448,296.221,467.417,282.261,468.471" style="stroke: #A80036; stroke-width: 1.0;"/><path d="M661.547,348.972 C627.996,365.361 587.891,384.952 557.368,399.862 " fill="none" style="stroke: #A80036; stroke-width: 1.0;"/><polygon fill="none" points="658.871,342.489,679.914,340,665.016,355.068,658.871,342.489" style="stroke: #A80036; stroke-width: 1.0;"/><path d="M727,360.024 C727,373.579 727,388.038 727,399.678 " fill="none" style="stroke: #A80036; stroke-width: 1.0;"/><polygon fill="none" points="720,360,727,340,734,360,720,360" style="stroke: #A80036; stroke-width: 1.0;"/><path d="M792.453,348.972 C826.004,365.361 866.109,384.952 896.632,399.862 " fill="none" style="stroke: #A80036; stroke-width: 1.0;"/><polygon fill="none" points="788.984,355.068,774.086,340,795.129,342.489,788.984,355.068" style="stroke: #A80036; stroke-width: 1.0;"/><path d="M820.961,339.382 C900.577,358.346 1013.61,385.271 1089.71,403.399 " fill="none" style="stroke: #A80036; stroke-width: 1.0;"/><polygon fill="none" points="819.317,346.186,801.483,334.742,822.561,332.567,819.317,346.186" style="stroke: #A80036; stroke-width: 1.0;"/><path d="M1132.41,461.809 C1116.04,477.036 1097.54,494.2366 1083.08,507.6784 " fill="none" style="stroke: #A80036; stroke-width: 1.0;"/><polygon fill="none" points="1127.85,456.493,1147.26,448,1137.38,466.746,1127.85,456.493" style="stroke: #A80036; stroke-width: 1.0;"/><path d="M1211.24,461.809 C1227.47,477.036 1245.81,494.2366 1260.14,507.6784 " fill="none" style="stroke: #A80036; stroke-width: 1.0;"/><polygon fill="none" points="1206.32,466.789,1196.52,448,1215.9,456.578,1206.32,466.789" style="stroke: #A80036; stroke-width: 1.0;"/><path d="M786.773,240.78 C800.328,246.779 814.895,252.319 829,256 C954.167,288.668 1335.68,306.186 1499.71,312.378 " fill="none" style="stroke: #A80036; stroke-width: 1.0;"/><polygon fill="none" points="783.545,246.997,768.437,232.139,789.513,234.333,783.545,246.997" style="stroke: #A80036; stroke-width: 1.0;"/><path d="M1513.12,349.201 C1481.2,365.543 1443.17,385.021 1414.19,399.862 " fill="none" style="stroke: #A80036; stroke-width: 1.0;"/><polygon fill="none" points="1510.09,342.886,1531.08,340,1516.47,355.347,1510.09,342.886" style="stroke: #A80036; stroke-width: 1.0;"/><path d="M1576,360.024 C1576,373.579 1576,388.038 1576,399.678 " fill="none" style="stroke: #A80036; stroke-width: 1.0;"/><polygon fill="none" points="1569,360,1576,340,1583,360,1569,360" style="stroke: #A80036; stroke-width: 1.0;"/><path d="M1643.38,348.744 C1678.27,365.179 1720.09,384.882 1751.89,399.862 " fill="none" style="stroke: #A80036; stroke-width: 1.0;"/><polygon fill="none" points="1639.93,354.857,1624.82,340,1645.9,342.192,1639.93,354.857" style="stroke: #A80036; stroke-width: 1.0;"/><path d="M1672.26,339.425 C1749.16,357.341 1856.47,382.341 1933.66,400.323 " fill="none" style="stroke: #A80036; stroke-width: 1.0;"/><polygon fill="none" points="1670.3,346.157,1652.41,334.802,1673.48,332.522,1670.3,346.157" style="stroke: #A80036; stroke-width: 1.0;"/><path d="M590.268,123.77 C573.578,143.538 553.843,166.914 539.543,183.852 " fill="none" style="stroke: #A80036; stroke-width: 1.0;"/><polygon fill="none" points="585.133,119.001,603.384,108.234,595.831,128.032,585.133,119.001" style="stroke: #A80036; stroke-width: 1.0;"/></g></svg>