<?xml version="1.0" encoding="UTF-8" standalone="yes"?><svg xmlns="http://www.w3.org/2000/svg" xmlns:xlink="http://www.w3.org/1999/xlink" height="579pt" style="width:2017px;height:579px;" version="1.1" viewBox="0 0 2017 579" width="2017pt"><defs><filter height="300%" id="f1" width="300%" x="-1" y="-1"><feGaussianBlur result="blurOut" stdDeviation="2.0"/><feColorMatrix in="blurOut" result="blurOut2" type="matrix" values="0 0 0 0 0 0 0 0 0 0 0 0 0 0 0 0 0 0 .4 0"/><feOffset dx="4.0" dy="4.0" in="blurOut2" result="blurOut3"/><feBlend in="SourceGraphic" in2="blurOut3" mode="normal"/></filter></defs><g><polygon fill="#FFFFFF" filter="url(#f1)" points="569,24,745,24,752,46.2969,756,46.2969,756,124,569,124,569,24" style="stroke: #000000; stroke-width: 2.0;"/><line style="stroke: #000000; stroke-width: 2.0;" x1="569" x2="752" y1="46.2969" y2="46.2969"/><text fill="#000000" font-family="sans-serif" font-size="14" font-weight="bold" lengthAdjust="spacingAndGlyphs" textLength="170" x="572" y="39.9951">io.sphere.sdk.models</text><polygon fill="#FFFFFF" filter="url(#f1)" points="22,148,174,148,181,170.2969,185,170.2969,185,248,22,248,22,148" style="stroke: #000000; stroke-width: 2.0;"/><line style="stroke: #000000; stroke-width: 2.0;" x1="22" x2="181" y1="170.2969" y2="170.2969"/><text fill="#000000" font-family="sans-serif" font-size="14" font-weight="bold" lengthAdjust="spacingAndGlyphs" textLength="146" x="25" y="163.9951">io.sphere.sdk.json</text><polygon fill="#FFFFFF" filter="url(#f1)" points="209,148,371,148,378,170.2969,2010,170.2969,2010,572,209,572,209,148" style="stroke: #000000; stroke-width: 2.0;"/><line style="stroke: #000000; stroke-width: 2.0;" x1="209" x2="378" y1="170.2969" y2="170.2969"/><text fill="#000000" font-family="sans-serif" font-size="14" font-weight="bold" lengthAdjust="spacingAndGlyphs" textLength="156" x="212" y="163.9951">io.sphere.sdk.client</text><rect fill="#FEFECE" filter="url(#f1)" height="48" style="stroke: #A80036; stroke-width: 1.5;" width="138" x="593" y="60"/><ellipse cx="608" cy="76" fill="#ADD1B2" rx="11" ry="11" style="stroke: #A80036; stroke-width: 1.0;"/><path d="M610.9688,81.6406 Q610.3906,81.9375 609.75,82.0859 Q609.1094,82.2344 608.4063,82.2344 Q605.9063,82.2344 604.5859,80.5859 Q603.2656,78.9375 603.2656,75.8125 Q603.2656,72.6875 604.5859,71.0313 Q605.9063,69.375 608.4063,69.375 Q609.1094,69.375 609.7578,69.5313 Q610.4063,69.6875 610.9688,69.9844 L610.9688,72.7031 Q610.3438,72.125 609.75,71.8516 Q609.1563,71.5781 608.5313,71.5781 Q607.1875,71.5781 606.5,72.6484 Q605.8125,73.7188 605.8125,75.8125 Q605.8125,77.9063 606.5,78.9766 Q607.1875,80.0469 608.5313,80.0469 Q609.1563,80.0469 609.75,79.7734 Q610.3438,79.5 610.9688,78.9219 L610.9688,81.6406 Z "/><text fill="#000000" font-family="sans-serif" font-size="12" lengthAdjust="spacingAndGlyphs" textLength="106" x="622" y="80.1543">SphereException</text><line style="stroke: #A80036; stroke-width: 1.5;" x1="594" x2="730" y1="92" y2="92"/><line style="stroke: #A80036; stroke-width: 1.5;" x1="594" x2="730" y1="100" y2="100"/><rect fill="#FEFECE" filter="url(#f1)" height="48" style="stroke: #A80036; stroke-width: 1.5;" width="119" x="51" y="184"/><ellipse cx="66" cy="200" fill="#ADD1B2" rx="11" ry="11" style="stroke: #A80036; stroke-width: 1.0;"/><path d="M68.9688,205.6406 Q68.3906,205.9375 67.75,206.0859 Q67.1094,206.2344 66.4063,206.2344 Q63.9063,206.2344 62.5859,204.5859 Q61.2656,202.9375 61.2656,199.8125 Q61.2656,196.6875 62.5859,195.0313 Q63.9063,193.375 66.4063,193.375 Q67.1094,193.375 67.7578,193.5313 Q68.4063,193.6875 68.9688,193.9844 L68.9688,196.7031 Q68.3438,196.125 67.75,195.8516 Q67.1563,195.5781 66.5313,195.5781 Q65.1875,195.5781 64.5,196.6484 Q63.8125,197.7188 63.8125,199.8125 Q63.8125,201.9063 64.5,202.9766 Q65.1875,204.0469 66.5313,204.0469 Q67.1563,204.0469 67.75,203.7734 Q68.3438,203.5 68.9688,202.9219 L68.9688,205.6406 Z "/><text fill="#000000" font-family="sans-serif" font-size="12" lengthAdjust="spacingAndGlyphs" textLength="87" x="80" y="204.1543">JsonException</text><line style="stroke: #A80036; stroke-width: 1.5;" x1="52" x2="169" y1="216" y2="216"/><line style="stroke: #A80036; stroke-width: 1.5;" x1="52" x2="169" y1="224" y2="224"/><rect fill="#FEFECE" filter="url(#f1)" height="48" style="stroke: #A80036; stroke-width: 1.5;" width="215" x="788" y="184"/><ellipse cx="803" cy="200" fill="#ADD1B2" rx="11" ry="11" style="stroke: #A80036; stroke-width: 1.0;"/><path d="M805.9688,205.6406 Q805.3906,205.9375 804.75,206.0859 Q804.1094,206.2344 803.4063,206.2344 Q800.9063,206.2344 799.5859,204.5859 Q798.2656,202.9375 798.2656,199.8125 Q798.2656,196.6875 799.5859,195.0313 Q800.9063,193.375 803.4063,193.375 Q804.1094,193.375 804.7578,193.5313 Q805.4063,193.6875 805.9688,193.9844 L805.9688,196.7031 Q805.3438,196.125 804.75,195.8516 Q804.1563,195.5781 803.5313,195.5781 Q802.1875,195.5781 801.5,196.6484 Q800.8125,197.7188 800.8125,199.8125 Q800.8125,201.9063 801.5,202.9766 Q802.1875,204.0469 803.5313,204.0469 Q804.1563,204.0469 804.75,203.7734 Q805.3438,203.5 805.9688,202.9219 L805.9688,205.6406 Z "/><text fill="#000000" font-family="sans-serif" font-size="12" lengthAdjust="spacingAndGlyphs" textLength="183" x="817" y="204.1543">SphereDeprecationException</text><line style="stroke: #A80036; stroke-width: 1.5;" x1="789" x2="1002" y1="216" y2="216"/><line style="stroke: #A80036; stroke-width: 1.5;" x1="789" x2="1002" y1="224" y2="224"/><rect fill="#FEFECE" filter="url(#f1)" height="48" style="stroke: #A80036; stroke-width: 1.5;" width="183" x="571" y="184"/><ellipse cx="586" cy="200" fill="#ADD1B2" rx="11" ry="11" style="stroke: #A80036; stroke-width: 1.0;"/><path d="M588.9688,205.6406 Q588.3906,205.9375 587.75,206.0859 Q587.1094,206.2344 586.4063,206.2344 Q583.9063,206.2344 582.5859,204.5859 Q581.2656,202.9375 581.2656,199.8125 Q581.2656,196.6875 582.5859,195.0313 Q583.9063,193.375 586.4063,193.375 Q587.1094,193.375 587.7578,193.5313 Q588.4063,193.6875 588.9688,193.9844 L588.9688,196.7031 Q588.3438,196.125 587.75,195.8516 Q587.1563,195.5781 586.5313,195.5781 Q585.1875,195.5781 584.5,196.6484 Q583.8125,197.7188 583.8125,199.8125 Q583.8125,201.9063 584.5,202.9766 Q585.1875,204.0469 586.5313,204.0469 Q587.1563,204.0469 587.75,203.7734 Q588.3438,203.5 588.9688,202.9219 L588.9688,205.6406 Z "/><text fill="#000000" font-family="sans-serif" font-size="12" lengthAdjust="spacingAndGlyphs" textLength="151" x="600" y="204.1543">SphereServiceException</text><line style="stroke: #A80036; stroke-width: 1.5;" x1="572" x2="753" y1="216" y2="216"/><line style="stroke: #A80036; stroke-width: 1.5;" x1="572" x2="753" y1="224" y2="224"/><rect fill="#FEFECE" filter="url(#f1)" height="48" style="stroke: #A80036; stroke-width: 1.5;" width="159" x="583" y="292"/><ellipse cx="598" cy="308" fill="#ADD1B2" rx="11" ry="11" style="stroke: #A80036; stroke-width: 1.0;"/><path d="M600.9688,313.6406 Q600.3906,313.9375 599.75,314.0859 Q599.1094,314.2344 598.4063,314.2344 Q595.9063,314.2344 594.5859,312.5859 Q593.2656,310.9375 593.2656,307.8125 Q593.2656,304.6875 594.5859,303.0313 Q595.9063,301.375 598.4063,301.375 Q599.1094,301.375 599.7578,301.5313 Q600.4063,301.6875 600.9688,301.9844 L600.9688,304.7031 Q600.3438,304.125 599.75,303.8516 Q599.1563,303.5781 598.5313,303.5781 Q597.1875,303.5781 596.5,304.6484 Q595.8125,305.7188 595.8125,307.8125 Q595.8125,309.9063 596.5,310.9766 Q597.1875,312.0469 598.5313,312.0469 Q599.1563,312.0469 599.75,311.7734 Q600.3438,311.5 600.9688,310.9219 L600.9688,313.6406 Z "/><text fill="#000000" font-family="sans-serif" font-size="12" lengthAdjust="spacingAndGlyphs" textLength="127" x="612" y="312.1543">ClientErrorException</text><line style="stroke: #A80036; stroke-width: 1.5;" x1="584" x2="741" y1="324" y2="324"/><line style="stroke: #A80036; stroke-width: 1.5;" x1="584" x2="741" y1="332" y2="332"/><rect fill="#FEFECE" filter="url(#f1)" height="48" style="stroke: #A80036; stroke-width: 1.5;" width="169" x="225" y="400"/><ellipse cx="240" cy="416" fill="#ADD1B2" rx="11" ry="11" style="stroke: #A80036; stroke-width: 1.0;"/><path d="M242.9688,421.6406 Q242.3906,421.9375 241.75,422.0859 Q241.1094,422.2344 240.4063,422.2344 Q237.9063,422.2344 236.5859,420.5859 Q235.2656,418.9375 235.2656,415.8125 Q235.2656,412.6875 236.5859,411.0313 Q237.9063,409.375 240.4063,409.375 Q241.1094,409.375 241.7578,409.5313 Q242.4063,409.6875 242.9688,409.9844 L242.9688,412.7031 Q242.3438,412.125 241.75,411.8516 Q241.1563,411.5781 240.5313,411.5781 Q239.1875,411.5781 238.5,412.6484 Q237.8125,413.7188 237.8125,415.8125 Q237.8125,417.9063 238.5,418.9766 Q239.1875,420.0469 240.5313,420.0469 Q241.1563,420.0469 241.75,419.7734 Q242.3438,419.5 242.9688,418.9219 L242.9688,421.6406 Z "/><text fill="#000000" font-family="sans-serif" font-size="12" lengthAdjust="spacingAndGlyphs" textLength="137" x="254" y="420.1543">BadRequestException</text><line style="stroke: #A80036; stroke-width: 1.5;" x1="226" x2="393" y1="432" y2="432"/><line style="stroke: #A80036; stroke-width: 1.5;" x1="226" x2="393" y1="440" y2="440"/><rect fill="#FEFECE" filter="url(#f1)" height="48" style="stroke: #A80036; stroke-width: 1.5;" width="186" x="225" y="508"/><ellipse cx="240" cy="524" fill="#ADD1B2" rx="11" ry="11" style="stroke: #A80036; stroke-width: 1.0;"/><path d="M242.9688,529.6406 Q242.3906,529.9375 241.75,530.0859 Q241.1094,530.2344 240.4063,530.2344 Q237.9063,530.2344 236.5859,528.5859 Q235.2656,526.9375 235.2656,523.8125 Q235.2656,520.6875 236.5859,519.0313 Q237.9063,517.375 240.4063,517.375 Q241.1094,517.375 241.7578,517.5313 Q242.4063,517.6875 242.9688,517.9844 L242.9688,520.7031 Q242.3438,520.125 241.75,519.8516 Q241.1563,519.5781 240.5313,519.5781 Q239.1875,519.5781 238.5,520.6484 Q237.8125,521.7188 237.8125,523.8125 Q237.8125,525.9063 238.5,526.9766 Q239.1875,528.0469 240.5313,528.0469 Q241.1563,528.0469 241.75,527.7734 Q242.3438,527.5 242.9688,526.9219 L242.9688,529.6406 Z "/><text fill="#000000" font-family="sans-serif" font-size="12" lengthAdjust="spacingAndGlyphs" textLength="154" x="254" y="528.1543">ErrorResponseException</text><line style="stroke: #A80036; stroke-width: 1.5;" x1="226" x2="410" y1="540" y2="540"/><line style="stroke: #A80036; stroke-width: 1.5;" x1="226" x2="410" y1="548" y2="548"/><rect fill="#FEFECE" filter="url(#f1)" height="48" style="stroke: #A80036; stroke-width: 1.5;" width="238" x="428" y="400"/><ellipse cx="443" cy="416" fill="#ADD1B2" rx="11" ry="11" style="stroke: #A80036; stroke-width: 1.0;"/><path d="M445.9688,421.6406 Q445.3906,421.9375 444.75,422.0859 Q444.1094,422.2344 443.4063,422.2344 Q440.9063,422.2344 439.5859,420.5859 Q438.2656,418.9375 438.2656,415.8125 Q438.2656,412.6875 439.5859,411.0313 Q440.9063,409.375 443.4063,409.375 Q444.1094,409.375 444.7578,409.5313 Q445.4063,409.6875 445.9688,409.9844 L445.9688,412.7031 Q445.3438,412.125 444.75,411.8516 Q444.1563,411.5781 443.5313,411.5781 Q442.1875,411.5781 441.5,412.6484 Q440.8125,413.7188 440.8125,415.8125 Q440.8125,417.9063 441.5,418.9766 Q442.1875,420.0469 443.5313,420.0469 Q444.1563,420.0469 444.75,419.7734 Q445.3438,419.5 445.9688,418.9219 L445.9688,421.6406 Z "/><text fill="#000000" font-family="sans-serif" font-size="12" lengthAdjust="spacingAndGlyphs" textLength="206" x="457" y="420.1543">ConcurrentModificationException</text><line style="stroke: #A80036; stroke-width: 1.5;" x1="429" x2="665" y1="432" y2="432"/><line style="stroke: #A80036; stroke-width: 1.5;" x1="429" x2="665" y1="440" y2="440"/><rect fill="#FEFECE" filter="url(#f1)" height="48" style="stroke: #A80036; stroke-width: 1.5;" width="154" x="701" y="400"/><ellipse cx="716" cy="416" fill="#ADD1B2" rx="11" ry="11" style="stroke: #A80036; stroke-width: 1.0;"/><path d="M718.9688,421.6406 Q718.3906,421.9375 717.75,422.0859 Q717.1094,422.2344 716.4063,422.2344 Q713.9063,422.2344 712.5859,420.5859 Q711.2656,418.9375 711.2656,415.8125 Q711.2656,412.6875 712.5859,411.0313 Q713.9063,409.375 716.4063,409.375 Q717.1094,409.375 717.7578,409.5313 Q718.4063,409.6875 718.9688,409.9844 L718.9688,412.7031 Q718.3438,412.125 717.75,411.8516 Q717.1563,411.5781 716.5313,411.5781 Q715.1875,411.5781 714.5,412.6484 Q713.8125,413.7188 713.8125,415.8125 Q713.8125,417.9063 714.5,418.9766 Q715.1875,420.0469 716.5313,420.0469 Q717.1563,420.0469 717.75,419.7734 Q718.3438,419.5 718.9688,418.9219 L718.9688,421.6406 Z "/><text fill="#000000" font-family="sans-serif" font-size="12" lengthAdjust="spacingAndGlyphs" textLength="122" x="730" y="420.1543">NotFoundException</text><line style="stroke: #A80036; stroke-width: 1.5;" x1="702" x2="854" y1="432" y2="432"/><line style="stroke: #A80036; stroke-width: 1.5;" x1="702" x2="854" y1="440" y2="440"/><rect fill="#FEFECE" filter="url(#f1)" height="48" style="stroke: #A80036; stroke-width: 1.5;" width="176" x="890" y="400"/><ellipse cx="905" cy="416" fill="#ADD1B2" rx="11" ry="11" style="stroke: #A80036; stroke-width: 1.0;"/><path d="M907.9688,421.6406 Q907.3906,421.9375 906.75,422.0859 Q906.1094,422.2344 905.4063,422.2344 Q902.9063,422.2344 901.5859,420.5859 Q900.2656,418.9375 900.2656,415.8125 Q900.2656,412.6875 901.5859,411.0313 Q902.9063,409.375 905.4063,409.375 Q906.1094,409.375 906.7578,409.5313 Q907.4063,409.6875 907.9688,409.9844 L907.9688,412.7031 Q907.3438,412.125 906.75,411.8516 Q906.1563,411.5781 905.5313,411.5781 Q904.1875,411.5781 903.5,412.6484 Q902.8125,413.7188 902.8125,415.8125 Q902.8125,417.9063 903.5,418.9766 Q904.1875,420.0469 905.5313,420.0469 Q906.1563,420.0469 906.75,419.7734 Q907.3438,419.5 907.9688,418.9219 L907.9688,421.6406 Z "/><text fill="#000000" font-family="sans-serif" font-size="12" lengthAdjust="spacingAndGlyphs" textLength="144" x="919" y="420.1543">UnauthorizedException</text><line style="stroke: #A80036; stroke-width: 1.5;" x1="891" x2="1065" y1="432" y2="432"/><line style="stroke: #A80036; stroke-width: 1.5;" x1="891" x2="1065" y1="440" y2="440"/><rect fill="#FEFECE" filter="url(#f1)" height="48" style="stroke: #A80036; stroke-width: 1.5;" width="238" x="739" y="508"/><ellipse cx="754" cy="524" fill="#ADD1B2" rx="11" ry="11" style="stroke: #A80036; stroke-width: 1.0;"/><path d="M756.9688,529.6406 Q756.3906,529.9375 755.75,530.0859 Q755.1094,530.2344 754.4063,530.2344 Q751.9063,530.2344 750.5859,528.5859 Q749.2656,526.9375 749.2656,523.8125 Q749.2656,520.6875 750.5859,519.0313 Q751.9063,517.375 754.4063,517.375 Q755.1094,517.375 755.7578,517.5313 Q756.4063,517.6875 756.9688,517.9844 L756.9688,520.7031 Q756.3438,520.125 755.75,519.8516 Q755.1563,519.5781 754.5313,519.5781 Q753.1875,519.5781 752.5,520.6484 Q751.8125,521.7188 751.8125,523.8125 Q751.8125,525.9063 752.5,526.9766 Q753.1875,528.0469 754.5313,528.0469 Q755.1563,528.0469 755.75,527.7734 Q756.3438,527.5 756.9688,526.9219 L756.9688,529.6406 Z "/><text fill="#000000" font-family="sans-serif" font-size="12" lengthAdjust="spacingAndGlyphs" textLength="206" x="768" y="528.1543">InvalidClientCredentialsException</text><line style="stroke: #A80036; stroke-width: 1.5;" x1="740" x2="976" y1="540" y2="540"/><line style="stroke: #A80036; stroke-width: 1.5;" x1="740" x2="976" y1="548" y2="548"/><rect fill="#FEFECE" filter="url(#f1)" height="48" style="stroke: #A80036; stroke-width: 1.5;" width="170" x="1012" y="508"/><ellipse cx="1027" cy="524" fill="#ADD1B2" rx="11" ry="11" style="stroke: #A80036; stroke-width: 1.0;"/><path d="M1029.9688,529.6406 Q1029.3906,529.9375 1028.75,530.0859 Q1028.1094,530.2344 1027.4063,530.2344 Q1024.9063,530.2344 1023.5859,528.5859 Q1022.2656,526.9375 1022.2656,523.8125 Q1022.2656,520.6875 1023.5859,519.0313 Q1024.9063,517.375 1027.4063,517.375 Q1028.1094,517.375 1028.7578,517.5313 Q1029.4063,517.6875 1029.9688,517.9844 L1029.9688,520.7031 Q1029.3438,520.125 1028.75,519.8516 Q1028.1563,519.5781 1027.5313,519.5781 Q1026.1875,519.5781 1025.5,520.6484 Q1024.8125,521.7188 1024.8125,523.8125 Q1024.8125,525.9063 1025.5,526.9766 Q1026.1875,528.0469 1027.5313,528.0469 Q1028.1563,528.0469 1028.75,527.7734 Q1029.3438,527.5 1029.9688,526.9219 L1029.9688,529.6406 Z "/><text fill="#000000" font-family="sans-serif" font-size="12" lengthAdjust="spacingAndGlyphs" textLength="138" x="1041" y="528.1543">InvalidTokenException</text><line style="stroke: #A80036; stroke-width: 1.5;" x1="1013" x2="1181" y1="540" y2="540"/><line style="stroke: #A80036; stroke-width: 1.5;" x1="1013" x2="1181" y1="548" y2="548"/><rect fill="#FEFECE" filter="url(#f1)" height="48" style="stroke: #A80036; stroke-width: 1.5;" width="164" x="1322" y="292"/><ellipse cx="1337" cy="308" fill="#ADD1B2" rx="11" ry="11" style="stroke: #A80036; stroke-width: 1.0;"/><path d="M1339.9688,313.6406 Q1339.3906,313.9375 1338.75,314.0859 Q1338.1094,314.2344 1337.4063,314.2344 Q1334.9063,314.2344 1333.5859,312.5859 Q1332.2656,310.9375 1332.2656,307.8125 Q1332.2656,304.6875 1333.5859,303.0313 Q1334.9063,301.375 1337.4063,301.375 Q1338.1094,301.375 1338.7578,301.5313 Q1339.4063,301.6875 1339.9688,301.9844 L1339.9688,304.7031 Q1339.3438,304.125 1338.75,303.8516 Q1338.1563,303.5781 1337.5313,303.5781 Q1336.1875,303.5781 1335.5,304.6484 Q1334.8125,305.7188 1334.8125,307.8125 Q1334.8125,309.9063 1335.5,310.9766 Q1336.1875,312.0469 1337.5313,312.0469 Q1338.1563,312.0469 1338.75,311.7734 Q1339.3438,311.5 1339.9688,310.9219 L1339.9688,313.6406 Z "/><text fill="#000000" font-family="sans-serif" font-size="12" lengthAdjust="spacingAndGlyphs" textLength="132" x="1351" y="312.1543">ServerErrorException</text><line style="stroke: #A80036; stroke-width: 1.5;" x1="1323" x2="1485" y1="324" y2="324"/><line style="stroke: #A80036; stroke-width: 1.5;" x1="1323" x2="1485" y1="332" y2="332"/><rect fill="#FEFECE" filter="url(#f1)" height="48" style="stroke: #A80036; stroke-width: 1.5;" width="170" x="1101" y="400"/><ellipse cx="1116" cy="416" fill="#ADD1B2" rx="11" ry="11" style="stroke: #A80036; stroke-width: 1.0;"/><path d="M1118.9688,421.6406 Q1118.3906,421.9375 1117.75,422.0859 Q1117.1094,422.2344 1116.4063,422.2344 Q1113.9063,422.2344 1112.5859,420.5859 Q1111.2656,418.9375 1111.2656,415.8125 Q1111.2656,412.6875 1112.5859,411.0313 Q1113.9063,409.375 1116.4063,409.375 Q1117.1094,409.375 1117.7578,409.5313 Q1118.4063,409.6875 1118.9688,409.9844 L1118.9688,412.7031 Q1118.3438,412.125 1117.75,411.8516 Q1117.1563,411.5781 1116.5313,411.5781 Q1115.1875,411.5781 1114.5,412.6484 Q1113.8125,413.7188 1113.8125,415.8125 Q1113.8125,417.9063 1114.5,418.9766 Q1115.1875,420.0469 1116.5313,420.0469 Q1117.1563,420.0469 1117.75,419.7734 Q1118.3438,419.5 1118.9688,418.9219 L1118.9688,421.6406 Z "/><text fill="#000000" font-family="sans-serif" font-size="12" lengthAdjust="spacingAndGlyphs" textLength="138" x="1130" y="420.1543">BadGatewayException</text><line style="stroke: #A80036; stroke-width: 1.5;" x1="1102" x2="1270" y1="432" y2="432"/><line style="stroke: #A80036; stroke-width: 1.5;" x1="1102" x2="1270" y1="440" y2="440"/><rect fill="#FEFECE" filter="url(#f1)" height="48" style="stroke: #A80036; stroke-width: 1.5;" width="196" x="1306" y="400"/><ellipse cx="1321" cy="416" fill="#ADD1B2" rx="11" ry="11" style="stroke: #A80036; stroke-width: 1.0;"/><path d="M1323.9688,421.6406 Q1323.3906,421.9375 1322.75,422.0859 Q1322.1094,422.2344 1321.4063,422.2344 Q1318.9063,422.2344 1317.5859,420.5859 Q1316.2656,418.9375 1316.2656,415.8125 Q1316.2656,412.6875 1317.5859,411.0313 Q1318.9063,409.375 1321.4063,409.375 Q1322.1094,409.375 1322.7578,409.5313 Q1323.4063,409.6875 1323.9688,409.9844 L1323.9688,412.7031 Q1323.3438,412.125 1322.75,411.8516 Q1322.1563,411.5781 1321.5313,411.5781 Q1320.1875,411.5781 1319.5,412.6484 Q1318.8125,413.7188 1318.8125,415.8125 Q1318.8125,417.9063 1319.5,418.9766 Q1320.1875,420.0469 1321.5313,420.0469 Q1322.1563,420.0469 1322.75,419.7734 Q1323.3438,419.5 1323.9688,418.9219 L1323.9688,421.6406 Z "/><text fill="#000000" font-family="sans-serif" font-size="12" lengthAdjust="spacingAndGlyphs" textLength="164" x="1335" y="420.1543">GatewayTimeoutException</text><line style="stroke: #A80036; stroke-width: 1.5;" x1="1307" x2="1501" y1="432" y2="432"/><line style="stroke: #A80036; stroke-width: 1.5;" x1="1307" x2="1501" y1="440" y2="440"/><rect fill="#FEFECE" filter="url(#f1)" height="48" style="stroke: #A80036; stroke-width: 1.5;" width="212" x="1537" y="400"/><ellipse cx="1552" cy="416" fill="#ADD1B2" rx="11" ry="11" style="stroke: #A80036; stroke-width: 1.0;"/><path d="M1554.9688,421.6406 Q1554.3906,421.9375 1553.75,422.0859 Q1553.1094,422.2344 1552.4063,422.2344 Q1549.9063,422.2344 1548.5859,420.5859 Q1547.2656,418.9375 1547.2656,415.8125 Q1547.2656,412.6875 1548.5859,411.0313 Q1549.9063,409.375 1552.4063,409.375 Q1553.1094,409.375 1553.7578,409.5313 Q1554.4063,409.6875 1554.9688,409.9844 L1554.9688,412.7031 Q1554.3438,412.125 1553.75,411.8516 Q1553.1563,411.5781 1552.5313,411.5781 Q1551.1875,411.5781 1550.5,412.6484 Q1549.8125,413.7188 1549.8125,415.8125 Q1549.8125,417.9063 1550.5,418.9766 Q1551.1875,420.0469 1552.5313,420.0469 Q1553.1563,420.0469 1553.75,419.7734 Q1554.3438,419.5 1554.9688,418.9219 L1554.9688,421.6406 Z "/><text fill="#000000" font-family="sans-serif" font-size="12" lengthAdjust="spacingAndGlyphs" textLength="180" x="1566" y="420.1543">InternalServerErrorException</text><line style="stroke: #A80036; stroke-width: 1.5;" x1="1538" x2="1748" y1="432" y2="432"/><line style="stroke: #A80036; stroke-width: 1.5;" x1="1538" x2="1748" y1="440" y2="440"/><rect fill="#FEFECE" filter="url(#f1)" height="48" style="stroke: #A80036; stroke-width: 1.5;" width="210" x="1784" y="400"/><ellipse cx="1799" cy="416" fill="#ADD1B2" rx="11" ry="11" style="stroke: #A80036; stroke-width: 1.0;"/><path d="M1801.9688,421.6406 Q1801.3906,421.9375 1800.75,422.0859 Q1800.1094,422.2344 1799.4063,422.2344 Q1796.9063,422.2344 1795.5859,420.5859 Q1794.2656,418.9375 1794.2656,415.8125 Q1794.2656,412.6875 1795.5859,411.0313 Q1796.9063,409.375 1799.4063,409.375 Q1800.1094,409.375 1800.7578,409.5313 Q1801.4063,409.6875 1801.9688,409.9844 L1801.9688,412.7031 Q1801.3438,412.125 1800.75,411.8516 Q1800.1563,411.5781 1799.5313,411.5781 Q1798.1875,411.5781 1797.5,412.6484 Q1796.8125,413.7188 1796.8125,415.8125 Q1796.8125,417.9063 1797.5,418.9766 Q1798.1875,420.0469 1799.5313,420.0469 Q1800.1563,420.0469 1800.75,419.7734 Q1801.3438,419.5 1801.9688,418.9219 L1801.9688,421.6406 Z "/><text fill="#000000" font-family="sans-serif" font-size="12" lengthAdjust="spacingAndGlyphs" textLength="178" x="1813" y="420.1543">ServiceUnavailableException</text><line style="stroke: #A80036; stroke-width: 1.5;" x1="1785" x2="1993" y1="432" y2="432"/><line style="stroke: #A80036; stroke-width: 1.5;" x1="1785" x2="1993" y1="440" y2="440"/><path d="M572.494,90.009 C459.915,98.439 273.523,115.534 209,140 C182.484,150.054 156.201,168.617 137.387,183.811 " fill="none" style="stroke: #A80036; stroke-width: 1.0;"/><polygon fill="none" points="572.152,83.015,592.61,88.536,573.175,96.978,572.152,83.015" style="stroke: #A80036; stroke-width: 1.0;"/><path d="M726.987,117.432 C741.19,124.812 756.123,132.629 770,140 C797.054,154.371 827.227,170.774 851.15,183.869 " fill="none" style="stroke: #A80036; stroke-width: 1.0;"/><polygon fill="none" points="723.425,123.47,708.887,108.055,729.865,111.039,723.425,123.47" style="stroke: #A80036; stroke-width: 1.0;"/><path d="M662,128.286 C662,147.008 662,168.082 662,183.858 " fill="none" style="stroke: #A80036; stroke-width: 1.0;"/><polygon fill="none" points="655,128.203,662,108.203,669,128.203,655,128.203" style="stroke: #A80036; stroke-width: 1.0;"/><path d="M662,252.291 C662,265.817 662,280.184 662,291.844 " fill="none" style="stroke: #A80036; stroke-width: 1.0;"/><polygon fill="none" points="655,252.237,662,232.237,669,252.237,655,252.237" style="stroke: #A80036; stroke-width: 1.0;"/><path d="M563.758,346.057 C508.148,363.071 439.542,384.061 387.54,399.971 " fill="none" style="stroke: #A80036; stroke-width: 1.0;"/><polygon fill="none" points="562.046,339.26,583.219,340.103,566.142,352.648,562.046,339.26" style="stroke: #A80036; stroke-width: 1.0;"/><path d="M312.691,468.291 C313.818,481.817 315.015,496.1835 315.987,507.8436 " fill="none" style="stroke: #A80036; stroke-width: 1.0;"/><polygon fill="none" points="305.705,468.75,311.02,448.237,319.657,467.587,305.705,468.75" style="stroke: #A80036; stroke-width: 1.0;"/><path d="M621.447,354.085 C605.239,369.306 587.059,386.379 572.722,399.844 " fill="none" style="stroke: #A80036; stroke-width: 1.0;"/><polygon fill="none" points="616.821,348.826,636.192,340.237,626.405,359.031,616.821,348.826" style="stroke: #A80036; stroke-width: 1.0;"/><path d="M702.906,354.085 C719.254,369.306 737.592,386.379 752.054,399.844 " fill="none" style="stroke: #A80036; stroke-width: 1.0;"/><polygon fill="none" points="697.901,358.989,688.033,340.237,707.441,348.742,697.901,358.989" style="stroke: #A80036; stroke-width: 1.0;"/><path d="M751.583,346.617 C801.068,363.53 861.65,384.235 907.692,399.971 " fill="none" style="stroke: #A80036; stroke-width: 1.0;"/><polygon fill="none" points="749.185,353.195,732.523,340.103,753.712,339.947,749.185,353.195" style="stroke: #A80036; stroke-width: 1.0;"/><path d="M935.945,461.849 C918.967,477.129 899.878,494.3096 884.84,507.8436 " fill="none" style="stroke: #A80036; stroke-width: 1.0;"/><polygon fill="none" points="931.521,456.414,951.07,448.237,940.887,466.82,931.521,456.414" style="stroke: #A80036; stroke-width: 1.0;"/><path d="M1019.7,461.849 C1036.54,477.129 1055.47,494.3096 1070.38,507.8436 " fill="none" style="stroke: #A80036; stroke-width: 1.0;"/><polygon fill="none" points="1014.81,466.862,1004.706,448.237,1024.22,456.495,1014.81,466.862" style="stroke: #A80036; stroke-width: 1.0;"/><path d="M725.928,240.473 C740.13,246.531 755.331,252.156 770,256 C872.137,282.765 1174.79,302.991 1321.89,311.537 " fill="none" style="stroke: #A80036; stroke-width: 1.0;"/><polygon fill="none" points="722.67,246.683,707.323,232.072,728.431,233.923,722.67,246.683" style="stroke: #A80036; stroke-width: 1.0;"/><path d="M1337.16,349.113 C1304.02,365.533 1264.72,385.001 1234.5,399.971 " fill="none" style="stroke: #A80036; stroke-width: 1.0;"/><polygon fill="none" points="1334.32,342.709,1355.35,340.103,1340.53,355.254,1334.32,342.709" style="stroke: #A80036; stroke-width: 1.0;"/><path d="M1404,360.291 C1404,373.817 1404,388.184 1404,399.844 " fill="none" style="stroke: #A80036; stroke-width: 1.0;"/><polygon fill="none" points="1397,360.237,1404,340.237,1411,360.237,1397,360.237" style="stroke: #A80036; stroke-width: 1.0;"/><path d="M1475.76,348.427 C1512.41,364.989 1556.23,384.792 1589.82,399.971 " fill="none" style="stroke: #A80036; stroke-width: 1.0;"/><polygon fill="none" points="1472.68,354.718,1457.34,340.103,1478.45,341.96,1472.68,354.718" style="stroke: #A80036; stroke-width: 1.0;"/><path d="M1506.01,338.716 C1587.56,356.876 1701.47,382.242 1783.84,400.584 " fill="none" style="stroke: #A80036; stroke-width: 1.0;"/><polygon fill="none" points="1504.27,345.501,1486.27,334.321,1507.32,331.835,1504.27,345.501" style="stroke: #A80036; stroke-width: 1.0;"/></g></svg>