<?xml version="1.0" encoding="UTF-8" standalone="yes"?><svg xmlns="http://www.w3.org/2000/svg" xmlns:xlink="http://www.w3.org/1999/xlink" height="579pt" style="width:2290px;height:579px;" version="1.1" viewBox="0 0 2290 579" width="2290pt"><defs><filter height="300%" id="f1" width="300%" x="-1" y="-1"><feGaussianBlur result="blurOut" stdDeviation="2.0"/><feColorMatrix in="blurOut" result="blurOut2" type="matrix" values="0 0 0 0 0 0 0 0 0 0 0 0 0 0 0 0 0 0 .4 0"/><feOffset dx="4.0" dy="4.0" in="blurOut2" result="blurOut3"/><feBlend in="SourceGraphic" in2="blurOut3" mode="normal"/></filter></defs><g><polygon fill="#FFFFFF" filter="url(#f1)" points="685,24,861,24,868,46.2969,872,46.2969,872,124,685,124,685,24" style="stroke: #000000; stroke-width: 2.0;"/><line style="stroke: #000000; stroke-width: 2.0;" x1="685" x2="868" y1="46.2969" y2="46.2969"/><text fill="#000000" font-family="sans-serif" font-size="14" font-weight="bold" lengthAdjust="spacingAndGlyphs" textLength="170" x="688" y="39.9951">io.sphere.sdk.models</text><polygon fill="#FFFFFF" filter="url(#f1)" points="22,148,174,148,181,170.2969,185,170.2969,185,248,22,248,22,148" style="stroke: #000000; stroke-width: 2.0;"/><line style="stroke: #000000; stroke-width: 2.0;" x1="22" x2="181" y1="170.2969" y2="170.2969"/><text fill="#000000" font-family="sans-serif" font-size="14" font-weight="bold" lengthAdjust="spacingAndGlyphs" textLength="146" x="25" y="163.9951">io.sphere.sdk.json</text><polygon fill="#FFFFFF" filter="url(#f1)" points="209,148,371,148,378,170.2969,2283,170.2969,2283,572,209,572,209,148" style="stroke: #000000; stroke-width: 2.0;"/><line style="stroke: #000000; stroke-width: 2.0;" x1="209" x2="378" y1="170.2969" y2="170.2969"/><text fill="#000000" font-family="sans-serif" font-size="14" font-weight="bold" lengthAdjust="spacingAndGlyphs" textLength="156" x="212" y="163.9951">io.sphere.sdk.client</text><rect fill="#FEFECE" filter="url(#f1)" height="48" style="stroke: #A80036; stroke-width: 1.5;" width="138" x="709" y="60"/><ellipse cx="724" cy="76" fill="#ADD1B2" rx="11" ry="11" style="stroke: #A80036; stroke-width: 1.0;"/><path d="M726.9688,81.6406 Q726.3906,81.9375 725.75,82.0859 Q725.1094,82.2344 724.4063,82.2344 Q721.9063,82.2344 720.5859,80.5859 Q719.2656,78.9375 719.2656,75.8125 Q719.2656,72.6875 720.5859,71.0313 Q721.9063,69.375 724.4063,69.375 Q725.1094,69.375 725.7578,69.5313 Q726.4063,69.6875 726.9688,69.9844 L726.9688,72.7031 Q726.3438,72.125 725.75,71.8516 Q725.1563,71.5781 724.5313,71.5781 Q723.1875,71.5781 722.5,72.6484 Q721.8125,73.7188 721.8125,75.8125 Q721.8125,77.9063 722.5,78.9766 Q723.1875,80.0469 724.5313,80.0469 Q725.1563,80.0469 725.75,79.7734 Q726.3438,79.5 726.9688,78.9219 L726.9688,81.6406 Z "/><text fill="#000000" font-family="sans-serif" font-size="12" lengthAdjust="spacingAndGlyphs" textLength="106" x="738" y="80.1543">SphereException</text><line style="stroke: #A80036; stroke-width: 1.5;" x1="710" x2="846" y1="92" y2="92"/><line style="stroke: #A80036; stroke-width: 1.5;" x1="710" x2="846" y1="100" y2="100"/><rect fill="#FEFECE" filter="url(#f1)" height="48" style="stroke: #A80036; stroke-width: 1.5;" width="119" x="51" y="184"/><ellipse cx="66" cy="200" fill="#ADD1B2" rx="11" ry="11" style="stroke: #A80036; stroke-width: 1.0;"/><path d="M68.9688,205.6406 Q68.3906,205.9375 67.75,206.0859 Q67.1094,206.2344 66.4063,206.2344 Q63.9063,206.2344 62.5859,204.5859 Q61.2656,202.9375 61.2656,199.8125 Q61.2656,196.6875 62.5859,195.0313 Q63.9063,193.375 66.4063,193.375 Q67.1094,193.375 67.7578,193.5313 Q68.4063,193.6875 68.9688,193.9844 L68.9688,196.7031 Q68.3438,196.125 67.75,195.8516 Q67.1563,195.5781 66.5313,195.5781 Q65.1875,195.5781 64.5,196.6484 Q63.8125,197.7188 63.8125,199.8125 Q63.8125,201.9063 64.5,202.9766 Q65.1875,204.0469 66.5313,204.0469 Q67.1563,204.0469 67.75,203.7734 Q68.3438,203.5 68.9688,202.9219 L68.9688,205.6406 Z "/><text fill="#000000" font-family="sans-serif" font-size="12" lengthAdjust="spacingAndGlyphs" textLength="87" x="80" y="204.1543">JsonException</text><line style="stroke: #A80036; stroke-width: 1.5;" x1="52" x2="169" y1="216" y2="216"/><line style="stroke: #A80036; stroke-width: 1.5;" x1="52" x2="169" y1="224" y2="224"/><rect fill="#FEFECE" filter="url(#f1)" height="48" style="stroke: #A80036; stroke-width: 1.5;" width="215" x="904" y="184"/><ellipse cx="919" cy="200" fill="#ADD1B2" rx="11" ry="11" style="stroke: #A80036; stroke-width: 1.0;"/><path d="M921.9688,205.6406 Q921.3906,205.9375 920.75,206.0859 Q920.1094,206.2344 919.4063,206.2344 Q916.9063,206.2344 915.5859,204.5859 Q914.2656,202.9375 914.2656,199.8125 Q914.2656,196.6875 915.5859,195.0313 Q916.9063,193.375 919.4063,193.375 Q920.1094,193.375 920.7578,193.5313 Q921.4063,193.6875 921.9688,193.9844 L921.9688,196.7031 Q921.3438,196.125 920.75,195.8516 Q920.1563,195.5781 919.5313,195.5781 Q918.1875,195.5781 917.5,196.6484 Q916.8125,197.7188 916.8125,199.8125 Q916.8125,201.9063 917.5,202.9766 Q918.1875,204.0469 919.5313,204.0469 Q920.1563,204.0469 920.75,203.7734 Q921.3438,203.5 921.9688,202.9219 L921.9688,205.6406 Z "/><text fill="#000000" font-family="sans-serif" font-size="12" lengthAdjust="spacingAndGlyphs" textLength="183" x="933" y="204.1543">SphereDeprecationException</text><line style="stroke: #A80036; stroke-width: 1.5;" x1="905" x2="1118" y1="216" y2="216"/><line style="stroke: #A80036; stroke-width: 1.5;" x1="905" x2="1118" y1="224" y2="224"/><rect fill="#FEFECE" filter="url(#f1)" height="48" style="stroke: #A80036; stroke-width: 1.5;" width="183" x="687" y="184"/><ellipse cx="702" cy="200" fill="#ADD1B2" rx="11" ry="11" style="stroke: #A80036; stroke-width: 1.0;"/><path d="M704.9688,205.6406 Q704.3906,205.9375 703.75,206.0859 Q703.1094,206.2344 702.4063,206.2344 Q699.9063,206.2344 698.5859,204.5859 Q697.2656,202.9375 697.2656,199.8125 Q697.2656,196.6875 698.5859,195.0313 Q699.9063,193.375 702.4063,193.375 Q703.1094,193.375 703.7578,193.5313 Q704.4063,193.6875 704.9688,193.9844 L704.9688,196.7031 Q704.3438,196.125 703.75,195.8516 Q703.1563,195.5781 702.5313,195.5781 Q701.1875,195.5781 700.5,196.6484 Q699.8125,197.7188 699.8125,199.8125 Q699.8125,201.9063 700.5,202.9766 Q701.1875,204.0469 702.5313,204.0469 Q703.1563,204.0469 703.75,203.7734 Q704.3438,203.5 704.9688,202.9219 L704.9688,205.6406 Z "/><text fill="#000000" font-family="sans-serif" font-size="12" lengthAdjust="spacingAndGlyphs" textLength="151" x="716" y="204.1543">SphereServiceException</text><line style="stroke: #A80036; stroke-width: 1.5;" x1="688" x2="869" y1="216" y2="216"/><line style="stroke: #A80036; stroke-width: 1.5;" x1="688" x2="869" y1="224" y2="224"/><rect fill="#FEFECE" filter="url(#f1)" height="48" style="stroke: #A80036; stroke-width: 1.5;" width="159" x="699" y="292"/><ellipse cx="714" cy="308" fill="#ADD1B2" rx="11" ry="11" style="stroke: #A80036; stroke-width: 1.0;"/><path d="M716.9688,313.6406 Q716.3906,313.9375 715.75,314.0859 Q715.1094,314.2344 714.4063,314.2344 Q711.9063,314.2344 710.5859,312.5859 Q709.2656,310.9375 709.2656,307.8125 Q709.2656,304.6875 710.5859,303.0313 Q711.9063,301.375 714.4063,301.375 Q715.1094,301.375 715.7578,301.5313 Q716.4063,301.6875 716.9688,301.9844 L716.9688,304.7031 Q716.3438,304.125 715.75,303.8516 Q715.1563,303.5781 714.5313,303.5781 Q713.1875,303.5781 712.5,304.6484 Q711.8125,305.7188 711.8125,307.8125 Q711.8125,309.9063 712.5,310.9766 Q713.1875,312.0469 714.5313,312.0469 Q715.1563,312.0469 715.75,311.7734 Q716.3438,311.5 716.9688,310.9219 L716.9688,313.6406 Z "/><text fill="#000000" font-family="sans-serif" font-size="12" lengthAdjust="spacingAndGlyphs" textLength="127" x="728" y="312.1543">ClientErrorException</text><line style="stroke: #A80036; stroke-width: 1.5;" x1="700" x2="857" y1="324" y2="324"/><line style="stroke: #A80036; stroke-width: 1.5;" x1="700" x2="857" y1="332" y2="332"/><rect fill="#FEFECE" filter="url(#f1)" height="48" style="stroke: #A80036; stroke-width: 1.5;" width="169" x="225" y="400"/><ellipse cx="240" cy="416" fill="#ADD1B2" rx="11" ry="11" style="stroke: #A80036; stroke-width: 1.0;"/><path d="M242.9688,421.6406 Q242.3906,421.9375 241.75,422.0859 Q241.1094,422.2344 240.4063,422.2344 Q237.9063,422.2344 236.5859,420.5859 Q235.2656,418.9375 235.2656,415.8125 Q235.2656,412.6875 236.5859,411.0313 Q237.9063,409.375 240.4063,409.375 Q241.1094,409.375 241.7578,409.5313 Q242.4063,409.6875 242.9688,409.9844 L242.9688,412.7031 Q242.3438,412.125 241.75,411.8516 Q241.1563,411.5781 240.5313,411.5781 Q239.1875,411.5781 238.5,412.6484 Q237.8125,413.7188 237.8125,415.8125 Q237.8125,417.9063 238.5,418.9766 Q239.1875,420.0469 240.5313,420.0469 Q241.1563,420.0469 241.75,419.7734 Q242.3438,419.5 242.9688,418.9219 L242.9688,421.6406 Z "/><text fill="#000000" font-family="sans-serif" font-size="12" lengthAdjust="spacingAndGlyphs" textLength="137" x="254" y="420.1543">BadRequestException</text><line style="stroke: #A80036; stroke-width: 1.5;" x1="226" x2="393" y1="432" y2="432"/><line style="stroke: #A80036; stroke-width: 1.5;" x1="226" x2="393" y1="440" y2="440"/><rect fill="#FEFECE" filter="url(#f1)" height="48" style="stroke: #A80036; stroke-width: 1.5;" width="186" x="225" y="508"/><ellipse cx="240" cy="524" fill="#ADD1B2" rx="11" ry="11" style="stroke: #A80036; stroke-width: 1.0;"/><path d="M242.9688,529.6406 Q242.3906,529.9375 241.75,530.0859 Q241.1094,530.2344 240.4063,530.2344 Q237.9063,530.2344 236.5859,528.5859 Q235.2656,526.9375 235.2656,523.8125 Q235.2656,520.6875 236.5859,519.0313 Q237.9063,517.375 240.4063,517.375 Q241.1094,517.375 241.7578,517.5313 Q242.4063,517.6875 242.9688,517.9844 L242.9688,520.7031 Q242.3438,520.125 241.75,519.8516 Q241.1563,519.5781 240.5313,519.5781 Q239.1875,519.5781 238.5,520.6484 Q237.8125,521.7188 237.8125,523.8125 Q237.8125,525.9063 238.5,526.9766 Q239.1875,528.0469 240.5313,528.0469 Q241.1563,528.0469 241.75,527.7734 Q242.3438,527.5 242.9688,526.9219 L242.9688,529.6406 Z "/><text fill="#000000" font-family="sans-serif" font-size="12" lengthAdjust="spacingAndGlyphs" textLength="154" x="254" y="528.1543">ErrorResponseException</text><line style="stroke: #A80036; stroke-width: 1.5;" x1="226" x2="410" y1="540" y2="540"/><line style="stroke: #A80036; stroke-width: 1.5;" x1="226" x2="410" y1="548" y2="548"/><rect fill="#FEFECE" filter="url(#f1)" height="48" style="stroke: #A80036; stroke-width: 1.5;" width="238" x="428" y="400"/><ellipse cx="443" cy="416" fill="#ADD1B2" rx="11" ry="11" style="stroke: #A80036; stroke-width: 1.0;"/><path d="M445.9688,421.6406 Q445.3906,421.9375 444.75,422.0859 Q444.1094,422.2344 443.4063,422.2344 Q440.9063,422.2344 439.5859,420.5859 Q438.2656,418.9375 438.2656,415.8125 Q438.2656,412.6875 439.5859,411.0313 Q440.9063,409.375 443.4063,409.375 Q444.1094,409.375 444.7578,409.5313 Q445.4063,409.6875 445.9688,409.9844 L445.9688,412.7031 Q445.3438,412.125 444.75,411.8516 Q444.1563,411.5781 443.5313,411.5781 Q442.1875,411.5781 441.5,412.6484 Q440.8125,413.7188 440.8125,415.8125 Q440.8125,417.9063 441.5,418.9766 Q442.1875,420.0469 443.5313,420.0469 Q444.1563,420.0469 444.75,419.7734 Q445.3438,419.5 445.9688,418.9219 L445.9688,421.6406 Z "/><text fill="#000000" font-family="sans-serif" font-size="12" lengthAdjust="spacingAndGlyphs" textLength="206" x="457" y="420.1543">ConcurrentModificationException</text><line style="stroke: #A80036; stroke-width: 1.5;" x1="429" x2="665" y1="432" y2="432"/><line style="stroke: #A80036; stroke-width: 1.5;" x1="429" x2="665" y1="440" y2="440"/><rect fill="#FEFECE" filter="url(#f1)" height="48" style="stroke: #A80036; stroke-width: 1.5;" width="154" x="701" y="400"/><ellipse cx="716" cy="416" fill="#ADD1B2" rx="11" ry="11" style="stroke: #A80036; stroke-width: 1.0;"/><path d="M718.9688,421.6406 Q718.3906,421.9375 717.75,422.0859 Q717.1094,422.2344 716.4063,422.2344 Q713.9063,422.2344 712.5859,420.5859 Q711.2656,418.9375 711.2656,415.8125 Q711.2656,412.6875 712.5859,411.0313 Q713.9063,409.375 716.4063,409.375 Q717.1094,409.375 717.7578,409.5313 Q718.4063,409.6875 718.9688,409.9844 L718.9688,412.7031 Q718.3438,412.125 717.75,411.8516 Q717.1563,411.5781 716.5313,411.5781 Q715.1875,411.5781 714.5,412.6484 Q713.8125,413.7188 713.8125,415.8125 Q713.8125,417.9063 714.5,418.9766 Q715.1875,420.0469 716.5313,420.0469 Q717.1563,420.0469 717.75,419.7734 Q718.3438,419.5 718.9688,418.9219 L718.9688,421.6406 Z "/><text fill="#000000" font-family="sans-serif" font-size="12" lengthAdjust="spacingAndGlyphs" textLength="122" x="730" y="420.1543">NotFoundException</text><line style="stroke: #A80036; stroke-width: 1.5;" x1="702" x2="854" y1="432" y2="432"/><line style="stroke: #A80036; stroke-width: 1.5;" x1="702" x2="854" y1="440" y2="440"/><rect fill="#FEFECE" filter="url(#f1)" height="48" style="stroke: #A80036; stroke-width: 1.5;" width="238" x="890" y="400"/><ellipse cx="905" cy="416" fill="#ADD1B2" rx="11" ry="11" style="stroke: #A80036; stroke-width: 1.0;"/><path d="M907.9688,421.6406 Q907.3906,421.9375 906.75,422.0859 Q906.1094,422.2344 905.4063,422.2344 Q902.9063,422.2344 901.5859,420.5859 Q900.2656,418.9375 900.2656,415.8125 Q900.2656,412.6875 901.5859,411.0313 Q902.9063,409.375 905.4063,409.375 Q906.1094,409.375 906.7578,409.5313 Q907.4063,409.6875 907.9688,409.9844 L907.9688,412.7031 Q907.3438,412.125 906.75,411.8516 Q906.1563,411.5781 905.5313,411.5781 Q904.1875,411.5781 903.5,412.6484 Q902.8125,413.7188 902.8125,415.8125 Q902.8125,417.9063 903.5,418.9766 Q904.1875,420.0469 905.5313,420.0469 Q906.1563,420.0469 906.75,419.7734 Q907.3438,419.5 907.9688,418.9219 L907.9688,421.6406 Z "/><text fill="#000000" font-family="sans-serif" font-size="12" lengthAdjust="spacingAndGlyphs" textLength="206" x="919" y="420.1543">RequestEntityTooLargeException</text><line style="stroke: #A80036; stroke-width: 1.5;" x1="891" x2="1127" y1="432" y2="432"/><line style="stroke: #A80036; stroke-width: 1.5;" x1="891" x2="1127" y1="440" y2="440"/><rect fill="#FEFECE" filter="url(#f1)" height="48" style="stroke: #A80036; stroke-width: 1.5;" width="176" x="1163" y="400"/><ellipse cx="1178" cy="416" fill="#ADD1B2" rx="11" ry="11" style="stroke: #A80036; stroke-width: 1.0;"/><path d="M1180.9688,421.6406 Q1180.3906,421.9375 1179.75,422.0859 Q1179.1094,422.2344 1178.4063,422.2344 Q1175.9063,422.2344 1174.5859,420.5859 Q1173.2656,418.9375 1173.2656,415.8125 Q1173.2656,412.6875 1174.5859,411.0313 Q1175.9063,409.375 1178.4063,409.375 Q1179.1094,409.375 1179.7578,409.5313 Q1180.4063,409.6875 1180.9688,409.9844 L1180.9688,412.7031 Q1180.3438,412.125 1179.75,411.8516 Q1179.1563,411.5781 1178.5313,411.5781 Q1177.1875,411.5781 1176.5,412.6484 Q1175.8125,413.7188 1175.8125,415.8125 Q1175.8125,417.9063 1176.5,418.9766 Q1177.1875,420.0469 1178.5313,420.0469 Q1179.1563,420.0469 1179.75,419.7734 Q1180.3438,419.5 1180.9688,418.9219 L1180.9688,421.6406 Z "/><text fill="#000000" font-family="sans-serif" font-size="12" lengthAdjust="spacingAndGlyphs" textLength="144" x="1192" y="420.1543">UnauthorizedException</text><line style="stroke: #A80036; stroke-width: 1.5;" x1="1164" x2="1338" y1="432" y2="432"/><line style="stroke: #A80036; stroke-width: 1.5;" x1="1164" x2="1338" y1="440" y2="440"/><rect fill="#FEFECE" filter="url(#f1)" height="48" style="stroke: #A80036; stroke-width: 1.5;" width="238" x="1012" y="508"/><ellipse cx="1027" cy="524" fill="#ADD1B2" rx="11" ry="11" style="stroke: #A80036; stroke-width: 1.0;"/><path d="M1029.9688,529.6406 Q1029.3906,529.9375 1028.75,530.0859 Q1028.1094,530.2344 1027.4063,530.2344 Q1024.9063,530.2344 1023.5859,528.5859 Q1022.2656,526.9375 1022.2656,523.8125 Q1022.2656,520.6875 1023.5859,519.0313 Q1024.9063,517.375 1027.4063,517.375 Q1028.1094,517.375 1028.7578,517.5313 Q1029.4063,517.6875 1029.9688,517.9844 L1029.9688,520.7031 Q1029.3438,520.125 1028.75,519.8516 Q1028.1563,519.5781 1027.5313,519.5781 Q1026.1875,519.5781 1025.5,520.6484 Q1024.8125,521.7188 1024.8125,523.8125 Q1024.8125,525.9063 1025.5,526.9766 Q1026.1875,528.0469 1027.5313,528.0469 Q1028.1563,528.0469 1028.75,527.7734 Q1029.3438,527.5 1029.9688,526.9219 L1029.9688,529.6406 Z "/><text fill="#000000" font-family="sans-serif" font-size="12" lengthAdjust="spacingAndGlyphs" textLength="206" x="1041" y="528.1543">InvalidClientCredentialsException</text><line style="stroke: #A80036; stroke-width: 1.5;" x1="1013" x2="1249" y1="540" y2="540"/><line style="stroke: #A80036; stroke-width: 1.5;" x1="1013" x2="1249" y1="548" y2="548"/><rect fill="#FEFECE" filter="url(#f1)" height="48" style="stroke: #A80036; stroke-width: 1.5;" width="170" x="1285" y="508"/><ellipse cx="1300" cy="524" fill="#ADD1B2" rx="11" ry="11" style="stroke: #A80036; stroke-width: 1.0;"/><path d="M1302.9688,529.6406 Q1302.3906,529.9375 1301.75,530.0859 Q1301.1094,530.2344 1300.4063,530.2344 Q1297.9063,530.2344 1296.5859,528.5859 Q1295.2656,526.9375 1295.2656,523.8125 Q1295.2656,520.6875 1296.5859,519.0313 Q1297.9063,517.375 1300.4063,517.375 Q1301.1094,517.375 1301.7578,517.5313 Q1302.4063,517.6875 1302.9688,517.9844 L1302.9688,520.7031 Q1302.3438,520.125 1301.75,519.8516 Q1301.1563,519.5781 1300.5313,519.5781 Q1299.1875,519.5781 1298.5,520.6484 Q1297.8125,521.7188 1297.8125,523.8125 Q1297.8125,525.9063 1298.5,526.9766 Q1299.1875,528.0469 1300.5313,528.0469 Q1301.1563,528.0469 1301.75,527.7734 Q1302.3438,527.5 1302.9688,526.9219 L1302.9688,529.6406 Z "/><text fill="#000000" font-family="sans-serif" font-size="12" lengthAdjust="spacingAndGlyphs" textLength="138" x="1314" y="528.1543">InvalidTokenException</text><line style="stroke: #A80036; stroke-width: 1.5;" x1="1286" x2="1454" y1="540" y2="540"/><line style="stroke: #A80036; stroke-width: 1.5;" x1="1286" x2="1454" y1="548" y2="548"/><rect fill="#FEFECE" filter="url(#f1)" height="48" style="stroke: #A80036; stroke-width: 1.5;" width="164" x="1595" y="292"/><ellipse cx="1610" cy="308" fill="#ADD1B2" rx="11" ry="11" style="stroke: #A80036; stroke-width: 1.0;"/><path d="M1612.9688,313.6406 Q1612.3906,313.9375 1611.75,314.0859 Q1611.1094,314.2344 1610.4063,314.2344 Q1607.9063,314.2344 1606.5859,312.5859 Q1605.2656,310.9375 1605.2656,307.8125 Q1605.2656,304.6875 1606.5859,303.0313 Q1607.9063,301.375 1610.4063,301.375 Q1611.1094,301.375 1611.7578,301.5313 Q1612.4063,301.6875 1612.9688,301.9844 L1612.9688,304.7031 Q1612.3438,304.125 1611.75,303.8516 Q1611.1563,303.5781 1610.5313,303.5781 Q1609.1875,303.5781 1608.5,304.6484 Q1607.8125,305.7188 1607.8125,307.8125 Q1607.8125,309.9063 1608.5,310.9766 Q1609.1875,312.0469 1610.5313,312.0469 Q1611.1563,312.0469 1611.75,311.7734 Q1612.3438,311.5 1612.9688,310.9219 L1612.9688,313.6406 Z "/><text fill="#000000" font-family="sans-serif" font-size="12" lengthAdjust="spacingAndGlyphs" textLength="132" x="1624" y="312.1543">ServerErrorException</text><line style="stroke: #A80036; stroke-width: 1.5;" x1="1596" x2="1758" y1="324" y2="324"/><line style="stroke: #A80036; stroke-width: 1.5;" x1="1596" x2="1758" y1="332" y2="332"/><rect fill="#FEFECE" filter="url(#f1)" height="48" style="stroke: #A80036; stroke-width: 1.5;" width="170" x="1374" y="400"/><ellipse cx="1389" cy="416" fill="#ADD1B2" rx="11" ry="11" style="stroke: #A80036; stroke-width: 1.0;"/><path d="M1391.9688,421.6406 Q1391.3906,421.9375 1390.75,422.0859 Q1390.1094,422.2344 1389.4063,422.2344 Q1386.9063,422.2344 1385.5859,420.5859 Q1384.2656,418.9375 1384.2656,415.8125 Q1384.2656,412.6875 1385.5859,411.0313 Q1386.9063,409.375 1389.4063,409.375 Q1390.1094,409.375 1390.7578,409.5313 Q1391.4063,409.6875 1391.9688,409.9844 L1391.9688,412.7031 Q1391.3438,412.125 1390.75,411.8516 Q1390.1563,411.5781 1389.5313,411.5781 Q1388.1875,411.5781 1387.5,412.6484 Q1386.8125,413.7188 1386.8125,415.8125 Q1386.8125,417.9063 1387.5,418.9766 Q1388.1875,420.0469 1389.5313,420.0469 Q1390.1563,420.0469 1390.75,419.7734 Q1391.3438,419.5 1391.9688,418.9219 L1391.9688,421.6406 Z "/><text fill="#000000" font-family="sans-serif" font-size="12" lengthAdjust="spacingAndGlyphs" textLength="138" x="1403" y="420.1543">BadGatewayException</text><line style="stroke: #A80036; stroke-width: 1.5;" x1="1375" x2="1543" y1="432" y2="432"/><line style="stroke: #A80036; stroke-width: 1.5;" x1="1375" x2="1543" y1="440" y2="440"/><rect fill="#FEFECE" filter="url(#f1)" height="48" style="stroke: #A80036; stroke-width: 1.5;" width="196" x="1579" y="400"/><ellipse cx="1594" cy="416" fill="#ADD1B2" rx="11" ry="11" style="stroke: #A80036; stroke-width: 1.0;"/><path d="M1596.9688,421.6406 Q1596.3906,421.9375 1595.75,422.0859 Q1595.1094,422.2344 1594.4063,422.2344 Q1591.9063,422.2344 1590.5859,420.5859 Q1589.2656,418.9375 1589.2656,415.8125 Q1589.2656,412.6875 1590.5859,411.0313 Q1591.9063,409.375 1594.4063,409.375 Q1595.1094,409.375 1595.7578,409.5313 Q1596.4063,409.6875 1596.9688,409.9844 L1596.9688,412.7031 Q1596.3438,412.125 1595.75,411.8516 Q1595.1563,411.5781 1594.5313,411.5781 Q1593.1875,411.5781 1592.5,412.6484 Q1591.8125,413.7188 1591.8125,415.8125 Q1591.8125,417.9063 1592.5,418.9766 Q1593.1875,420.0469 1594.5313,420.0469 Q1595.1563,420.0469 1595.75,419.7734 Q1596.3438,419.5 1596.9688,418.9219 L1596.9688,421.6406 Z "/><text fill="#000000" font-family="sans-serif" font-size="12" lengthAdjust="spacingAndGlyphs" textLength="164" x="1608" y="420.1543">GatewayTimeoutException</text><line style="stroke: #A80036; stroke-width: 1.5;" x1="1580" x2="1774" y1="432" y2="432"/><line style="stroke: #A80036; stroke-width: 1.5;" x1="1580" x2="1774" y1="440" y2="440"/><rect fill="#FEFECE" filter="url(#f1)" height="48" style="stroke: #A80036; stroke-width: 1.5;" width="212" x="1810" y="400"/><ellipse cx="1825" cy="416" fill="#ADD1B2" rx="11" ry="11" style="stroke: #A80036; stroke-width: 1.0;"/><path d="M1827.9688,421.6406 Q1827.3906,421.9375 1826.75,422.0859 Q1826.1094,422.2344 1825.4063,422.2344 Q1822.9063,422.2344 1821.5859,420.5859 Q1820.2656,418.9375 1820.2656,415.8125 Q1820.2656,412.6875 1821.5859,411.0313 Q1822.9063,409.375 1825.4063,409.375 Q1826.1094,409.375 1826.7578,409.5313 Q1827.4063,409.6875 1827.9688,409.9844 L1827.9688,412.7031 Q1827.3438,412.125 1826.75,411.8516 Q1826.1563,411.5781 1825.5313,411.5781 Q1824.1875,411.5781 1823.5,412.6484 Q1822.8125,413.7188 1822.8125,415.8125 Q1822.8125,417.9063 1823.5,418.9766 Q1824.1875,420.0469 1825.5313,420.0469 Q1826.1563,420.0469 1826.75,419.7734 Q1827.3438,419.5 1827.9688,418.9219 L1827.9688,421.6406 Z "/><text fill="#000000" font-family="sans-serif" font-size="12" lengthAdjust="spacingAndGlyphs" textLength="180" x="1839" y="420.1543">InternalServerErrorException</text><line style="stroke: #A80036; stroke-width: 1.5;" x1="1811" x2="2021" y1="432" y2="432"/><line style="stroke: #A80036; stroke-width: 1.5;" x1="1811" x2="2021" y1="440" y2="440"/><rect fill="#FEFECE" filter="url(#f1)" height="48" style="stroke: #A80036; stroke-width: 1.5;" width="210" x="2057" y="400"/><ellipse cx="2072" cy="416" fill="#ADD1B2" rx="11" ry="11" style="stroke: #A80036; stroke-width: 1.0;"/><path d="M2074.9688,421.6406 Q2074.3906,421.9375 2073.75,422.0859 Q2073.1094,422.2344 2072.4063,422.2344 Q2069.9063,422.2344 2068.5859,420.5859 Q2067.2656,418.9375 2067.2656,415.8125 Q2067.2656,412.6875 2068.5859,411.0313 Q2069.9063,409.375 2072.4063,409.375 Q2073.1094,409.375 2073.7578,409.5313 Q2074.4063,409.6875 2074.9688,409.9844 L2074.9688,412.7031 Q2074.3438,412.125 2073.75,411.8516 Q2073.1563,411.5781 2072.5313,411.5781 Q2071.1875,411.5781 2070.5,412.6484 Q2069.8125,413.7188 2069.8125,415.8125 Q2069.8125,417.9063 2070.5,418.9766 Q2071.1875,420.0469 2072.5313,420.0469 Q2073.1563,420.0469 2073.75,419.7734 Q2074.3438,419.5 2074.9688,418.9219 L2074.9688,421.6406 Z "/><text fill="#000000" font-family="sans-serif" font-size="12" lengthAdjust="spacingAndGlyphs" textLength="178" x="2086" y="420.1543">ServiceUnavailableException</text><line style="stroke: #A80036; stroke-width: 1.5;" x1="2058" x2="2266" y1="432" y2="432"/><line style="stroke: #A80036; stroke-width: 1.5;" x1="2058" x2="2266" y1="440" y2="440"/><path d="M688.764,87.362 C551.345,93.449 294.809,108.679 209,140 C182.165,149.795 155.699,168.581 136.893,183.929 " fill="none" style="stroke: #A80036; stroke-width: 1.0;"/><polygon fill="none" points="688.665,80.36,708.947,86.496,689.265,94.347,688.665,80.36" style="stroke: #A80036; stroke-width: 1.0;"/><path d="M843.829,117.458 C858.1,124.813 873.085,132.612 887,140 C913.998,154.335 944.064,170.81 967.829,183.953 " fill="none" style="stroke: #A80036; stroke-width: 1.0;"/><polygon fill="none" points="840.225,123.477,825.628,108.117,846.618,111.021,840.225,123.477" style="stroke: #A80036; stroke-width: 1.0;"/><path d="M778,128.286 C778,147.008 778,168.082 778,183.858 " fill="none" style="stroke: #A80036; stroke-width: 1.0;"/><polygon fill="none" points="771,128.203,778,108.203,785,128.203,771,128.203" style="stroke: #A80036; stroke-width: 1.0;"/><path d="M778,252.291 C778,265.817 778,280.184 778,291.844 " fill="none" style="stroke: #A80036; stroke-width: 1.0;"/><polygon fill="none" points="771,252.237,778,232.237,785,252.237,771,252.237" style="stroke: #A80036; stroke-width: 1.0;"/><path d="M679.385,338.26 C605.25,355.055 501.203,378.755 410,400 C404.471,401.288 398.773,402.622 393.032,403.972 " fill="none" style="stroke: #A80036; stroke-width: 1.0;"/><polygon fill="none" points="677.937,331.411,698.989,333.822,681.028,345.065,677.937,331.411" style="stroke: #A80036; stroke-width: 1.0;"/><path d="M312.691,468.291 C313.818,481.817 315.015,496.1835 315.987,507.8436 " fill="none" style="stroke: #A80036; stroke-width: 1.0;"/><polygon fill="none" points="305.705,468.75,311.02,448.237,319.657,467.587,305.705,468.75" style="stroke: #A80036; stroke-width: 1.0;"/><path d="M708.154,348.655 C672.829,365.171 630.713,384.862 598.396,399.971 " fill="none" style="stroke: #A80036; stroke-width: 1.0;"/><polygon fill="none" points="705.364,342.232,726.447,340.103,711.294,354.915,705.364,342.232" style="stroke: #A80036; stroke-width: 1.0;"/><path d="M778,360.291 C778,373.817 778,388.184 778,399.844 " fill="none" style="stroke: #A80036; stroke-width: 1.0;"/><polygon fill="none" points="771,360.237,778,340.237,785,360.237,771,360.237" style="stroke: #A80036; stroke-width: 1.0;"/><path d="M847.846,348.655 C883.171,365.171 925.287,384.862 957.604,399.971 " fill="none" style="stroke: #A80036; stroke-width: 1.0;"/><polygon fill="none" points="844.706,354.915,829.553,340.103,850.636,342.232,844.706,354.915" style="stroke: #A80036; stroke-width: 1.0;"/><path d="M876.918,338.571 C951.003,355.477 1054.85,379.181 1146,400 C1151.47,401.249 1157.1,402.535 1162.77,403.832 " fill="none" style="stroke: #A80036; stroke-width: 1.0;"/><polygon fill="none" points="875.266,345.374,857.324,334.1,878.38,331.725,875.266,345.374" style="stroke: #A80036; stroke-width: 1.0;"/><path d="M1208.95,461.849 C1191.97,477.129 1172.88,494.3096 1157.84,507.8436 " fill="none" style="stroke: #A80036; stroke-width: 1.0;"/><polygon fill="none" points="1204.52,456.414,1224.07,448.237,1213.89,466.82,1204.52,456.414" style="stroke: #A80036; stroke-width: 1.0;"/><path d="M1292.7,461.849 C1309.54,477.129 1328.47,494.3096 1343.38,507.8436 " fill="none" style="stroke: #A80036; stroke-width: 1.0;"/><polygon fill="none" points="1287.81,466.862,1277.71,448.237,1297.22,456.495,1287.81,466.862" style="stroke: #A80036; stroke-width: 1.0;"/><path d="M841.598,240.298 C856.188,246.488 871.868,252.212 887,256 C1019.26,289.112 1420.45,306.922 1594.72,313.273 " fill="none" style="stroke: #A80036; stroke-width: 1.0;"/><polygon fill="none" points="838.552,246.603,823.183,232.016,844.295,233.835,838.552,246.603" style="stroke: #A80036; stroke-width: 1.0;"/><path d="M1610.16,349.113 C1577.02,365.533 1537.72,385.001 1507.5,399.971 " fill="none" style="stroke: #A80036; stroke-width: 1.0;"/><polygon fill="none" points="1607.32,342.709,1628.35,340.103,1613.53,355.254,1607.32,342.709" style="stroke: #A80036; stroke-width: 1.0;"/><path d="M1677,360.291 C1677,373.817 1677,388.184 1677,399.844 " fill="none" style="stroke: #A80036; stroke-width: 1.0;"/><polygon fill="none" points="1670,360.237,1677,340.237,1684,360.237,1670,360.237" style="stroke: #A80036; stroke-width: 1.0;"/><path d="M1748.76,348.427 C1785.41,364.989 1829.23,384.792 1862.82,399.971 " fill="none" style="stroke: #A80036; stroke-width: 1.0;"/><polygon fill="none" points="1745.68,354.718,1730.34,340.103,1751.45,341.96,1745.68,354.718" style="stroke: #A80036; stroke-width: 1.0;"/><path d="M1779.01,338.716 C1860.56,356.876 1974.47,382.242 2056.84,400.584 " fill="none" style="stroke: #A80036; stroke-width: 1.0;"/><polygon fill="none" points="1777.27,345.501,1759.27,334.321,1780.32,331.835,1777.27,345.501" style="stroke: #A80036; stroke-width: 1.0;"/></g></svg>