<?xml version="1.0" encoding="UTF-8" standalone="yes"?><svg xmlns="http://www.w3.org/2000/svg" xmlns:xlink="http://www.w3.org/1999/xlink" height="579pt" style="width:1895px;height:579px;" version="1.1" viewBox="0 0 1895 579" width="1895pt"><defs><filter height="300%" id="f1" width="300%" x="-1" y="-1"><feGaussianBlur result="blurOut" stdDeviation="2.0"/><feColorMatrix in="blurOut" result="blurOut2" type="matrix" values="0 0 0 0 0 0 0 0 0 0 0 0 0 0 0 0 0 0 .4 0"/><feOffset dx="4.0" dy="4.0" in="blurOut2" result="blurOut3"/><feBlend in="SourceGraphic" in2="blurOut3" mode="normal"/></filter></defs><g><polygon fill="#FFFFFF" filter="url(#f1)" points="535,24,691,24,698,46.4883,702,46.4883,702,124,535,124,535,24" style="stroke: #000000; stroke-width: 2.0;"/><line style="stroke: #000000; stroke-width: 2.0;" x1="535" x2="698" y1="46.4883" y2="46.4883"/><text fill="#000000" font-family="sans-serif" font-size="14" font-weight="bold" lengthAdjust="spacingAndGlyphs" textLength="150" x="538" y="40.5352">io.sphere.sdk.models</text><polygon fill="#FFFFFF" filter="url(#f1)" points="22,148,156,148,163,170.4883,167,170.4883,167,248,22,248,22,148" style="stroke: #000000; stroke-width: 2.0;"/><line style="stroke: #000000; stroke-width: 2.0;" x1="22" x2="163" y1="170.4883" y2="170.4883"/><text fill="#000000" font-family="sans-serif" font-size="14" font-weight="bold" lengthAdjust="spacingAndGlyphs" textLength="128" x="25" y="164.5352">io.sphere.sdk.json</text><polygon fill="#FFFFFF" filter="url(#f1)" points="191,148,334,148,341,170.4883,1888,170.4883,1888,572,191,572,191,148" style="stroke: #000000; stroke-width: 2.0;"/><line style="stroke: #000000; stroke-width: 2.0;" x1="191" x2="341" y1="170.4883" y2="170.4883"/><text fill="#000000" font-family="sans-serif" font-size="14" font-weight="bold" lengthAdjust="spacingAndGlyphs" textLength="137" x="194" y="164.5352">io.sphere.sdk.client</text><rect fill="#FEFECE" filter="url(#f1)" height="48" style="stroke: #A80036; stroke-width: 1.5;" width="128" x="554" y="60"/><ellipse cx="569" cy="76" fill="#ADD1B2" rx="11" ry="11" style="stroke: #A80036; stroke-width: 1.0;"/><path d="M571.9731,81.6431 Q571.3921,81.9419 570.7529,82.0913 Q570.1138,82.2407 569.4082,82.2407 Q566.9014,82.2407 565.5815,80.5889 Q564.2617,78.937 564.2617,75.8159 Q564.2617,72.6865 565.5815,71.0347 Q566.9014,69.3828 569.4082,69.3828 Q570.1138,69.3828 570.7612,69.5322 Q571.4087,69.6816 571.9731,69.9805 L571.9731,72.7031 Q571.3423,72.1221 570.7488,71.8523 Q570.1553,71.5825 569.5244,71.5825 Q568.1797,71.5825 567.4949,72.6492 Q566.8101,73.7158 566.8101,75.8159 Q566.8101,77.9077 567.4949,78.9744 Q568.1797,80.041 569.5244,80.041 Q570.1553,80.041 570.7488,79.7712 Q571.3423,79.5015 571.9731,78.9204 Z "/><text fill="#000000" font-family="sans-serif" font-size="12" lengthAdjust="spacingAndGlyphs" textLength="96" x="583" y="80.5352">SphereException</text><line style="stroke: #A80036; stroke-width: 1.5;" x1="555" x2="681" y1="92" y2="92"/><line style="stroke: #A80036; stroke-width: 1.5;" x1="555" x2="681" y1="100" y2="100"/><rect fill="#FEFECE" filter="url(#f1)" height="48" style="stroke: #A80036; stroke-width: 1.5;" width="112" x="39" y="184"/><ellipse cx="54" cy="200" fill="#ADD1B2" rx="11" ry="11" style="stroke: #A80036; stroke-width: 1.0;"/><path d="M56.9731,205.6431 Q56.3921,205.9419 55.7529,206.0913 Q55.1138,206.2407 54.4082,206.2407 Q51.9014,206.2407 50.5815,204.5889 Q49.2617,202.937 49.2617,199.8159 Q49.2617,196.6865 50.5815,195.0347 Q51.9014,193.3828 54.4082,193.3828 Q55.1138,193.3828 55.7612,193.5322 Q56.4087,193.6816 56.9731,193.9805 L56.9731,196.7031 Q56.3423,196.1221 55.7488,195.8523 Q55.1553,195.5825 54.5244,195.5825 Q53.1797,195.5825 52.4949,196.6492 Q51.8101,197.7158 51.8101,199.8159 Q51.8101,201.9077 52.4949,202.9744 Q53.1797,204.041 54.5244,204.041 Q55.1553,204.041 55.7488,203.7712 Q56.3423,203.5015 56.9731,202.9204 Z "/><text fill="#000000" font-family="sans-serif" font-size="12" lengthAdjust="spacingAndGlyphs" textLength="80" x="68" y="204.5352">JsonException</text><line style="stroke: #A80036; stroke-width: 1.5;" x1="40" x2="150" y1="216" y2="216"/><line style="stroke: #A80036; stroke-width: 1.5;" x1="40" x2="150" y1="224" y2="224"/><rect fill="#FEFECE" filter="url(#f1)" height="48" style="stroke: #A80036; stroke-width: 1.5;" width="198" x="737" y="184"/><ellipse cx="752" cy="200" fill="#ADD1B2" rx="11" ry="11" style="stroke: #A80036; stroke-width: 1.0;"/><path d="M754.9731,205.6431 Q754.3921,205.9419 753.7529,206.0913 Q753.1138,206.2407 752.4082,206.2407 Q749.9014,206.2407 748.5815,204.5889 Q747.2617,202.937 747.2617,199.8159 Q747.2617,196.6865 748.5815,195.0347 Q749.9014,193.3828 752.4082,193.3828 Q753.1138,193.3828 753.7612,193.5322 Q754.4087,193.6816 754.9731,193.9805 L754.9731,196.7031 Q754.3423,196.1221 753.7488,195.8523 Q753.1553,195.5825 752.5244,195.5825 Q751.1797,195.5825 750.4949,196.6492 Q749.8101,197.7158 749.8101,199.8159 Q749.8101,201.9077 750.4949,202.9744 Q751.1797,204.041 752.5244,204.041 Q753.1553,204.041 753.7488,203.7712 Q754.3423,203.5015 754.9731,202.9204 Z "/><text fill="#000000" font-family="sans-serif" font-size="12" lengthAdjust="spacingAndGlyphs" textLength="166" x="766" y="204.5352">SphereDeprecationException</text><line style="stroke: #A80036; stroke-width: 1.5;" x1="738" x2="934" y1="216" y2="216"/><line style="stroke: #A80036; stroke-width: 1.5;" x1="738" x2="934" y1="224" y2="224"/><rect fill="#FEFECE" filter="url(#f1)" height="48" style="stroke: #A80036; stroke-width: 1.5;" width="168" x="534" y="184"/><ellipse cx="549" cy="200" fill="#ADD1B2" rx="11" ry="11" style="stroke: #A80036; stroke-width: 1.0;"/><path d="M551.9731,205.6431 Q551.3921,205.9419 550.7529,206.0913 Q550.1138,206.2407 549.4082,206.2407 Q546.9014,206.2407 545.5815,204.5889 Q544.2617,202.937 544.2617,199.8159 Q544.2617,196.6865 545.5815,195.0347 Q546.9014,193.3828 549.4082,193.3828 Q550.1138,193.3828 550.7612,193.5322 Q551.4087,193.6816 551.9731,193.9805 L551.9731,196.7031 Q551.3423,196.1221 550.7488,195.8523 Q550.1553,195.5825 549.5244,195.5825 Q548.1797,195.5825 547.4949,196.6492 Q546.8101,197.7158 546.8101,199.8159 Q546.8101,201.9077 547.4949,202.9744 Q548.1797,204.041 549.5244,204.041 Q550.1553,204.041 550.7488,203.7712 Q551.3423,203.5015 551.9731,202.9204 Z "/><text fill="#000000" font-family="sans-serif" font-size="12" lengthAdjust="spacingAndGlyphs" textLength="136" x="563" y="204.5352">SphereServiceException</text><line style="stroke: #A80036; stroke-width: 1.5;" x1="535" x2="701" y1="216" y2="216"/><line style="stroke: #A80036; stroke-width: 1.5;" x1="535" x2="701" y1="224" y2="224"/><rect fill="#FEFECE" filter="url(#f1)" height="48" style="stroke: #A80036; stroke-width: 1.5;" width="149" x="543.75" y="292"/><ellipse cx="558.75" cy="308" fill="#ADD1B2" rx="11" ry="11" style="stroke: #A80036; stroke-width: 1.0;"/><path d="M561.7231,313.6431 Q561.1421,313.9419 560.5029,314.0913 Q559.8638,314.2407 559.1582,314.2407 Q556.6514,314.2407 555.3315,312.5889 Q554.0117,310.937 554.0117,307.8159 Q554.0117,304.6865 555.3315,303.0347 Q556.6514,301.3828 559.1582,301.3828 Q559.8638,301.3828 560.5112,301.5322 Q561.1587,301.6816 561.7231,301.9805 L561.7231,304.7031 Q561.0923,304.1221 560.4988,303.8523 Q559.9053,303.5825 559.2744,303.5825 Q557.9297,303.5825 557.2449,304.6492 Q556.5601,305.7158 556.5601,307.8159 Q556.5601,309.9077 557.2449,310.9744 Q557.9297,312.041 559.2744,312.041 Q559.9053,312.041 560.4988,311.7712 Q561.0923,311.5015 561.7231,310.9204 Z "/><text fill="#000000" font-family="sans-serif" font-size="12" lengthAdjust="spacingAndGlyphs" textLength="117" x="572.75" y="312.5352">ClientErrorException</text><line style="stroke: #A80036; stroke-width: 1.5;" x1="544.75" x2="691.75" y1="324" y2="324"/><line style="stroke: #A80036; stroke-width: 1.5;" x1="544.75" x2="691.75" y1="332" y2="332"/><rect fill="#FEFECE" filter="url(#f1)" height="48" style="stroke: #A80036; stroke-width: 1.5;" width="157" x="207.75" y="400"/><ellipse cx="222.75" cy="416" fill="#ADD1B2" rx="11" ry="11" style="stroke: #A80036; stroke-width: 1.0;"/><path d="M225.7231,421.6431 Q225.1421,421.9419 224.5029,422.0913 Q223.8638,422.2407 223.1582,422.2407 Q220.6514,422.2407 219.3315,420.5889 Q218.0117,418.937 218.0117,415.8159 Q218.0117,412.6865 219.3315,411.0347 Q220.6514,409.3828 223.1582,409.3828 Q223.8638,409.3828 224.5112,409.5322 Q225.1587,409.6816 225.7231,409.9805 L225.7231,412.7031 Q225.0923,412.1221 224.4988,411.8523 Q223.9053,411.5825 223.2744,411.5825 Q221.9297,411.5825 221.2449,412.6492 Q220.5601,413.7158 220.5601,415.8159 Q220.5601,417.9077 221.2449,418.9744 Q221.9297,420.041 223.2744,420.041 Q223.9053,420.041 224.4988,419.7712 Q225.0923,419.5015 225.7231,418.9204 Z "/><text fill="#000000" font-family="sans-serif" font-size="12" lengthAdjust="spacingAndGlyphs" textLength="125" x="236.75" y="420.5352">BadRequestException</text><line style="stroke: #A80036; stroke-width: 1.5;" x1="208.75" x2="363.75" y1="432" y2="432"/><line style="stroke: #A80036; stroke-width: 1.5;" x1="208.75" x2="363.75" y1="440" y2="440"/><rect fill="#FEFECE" filter="url(#f1)" height="48" style="stroke: #A80036; stroke-width: 1.5;" width="173" x="207.75" y="508"/><ellipse cx="222.75" cy="524" fill="#ADD1B2" rx="11" ry="11" style="stroke: #A80036; stroke-width: 1.0;"/><path d="M225.7231,529.6431 Q225.1421,529.9419 224.5029,530.0913 Q223.8638,530.2407 223.1582,530.2407 Q220.6514,530.2407 219.3315,528.5889 Q218.0117,526.937 218.0117,523.8159 Q218.0117,520.6865 219.3315,519.0347 Q220.6514,517.3828 223.1582,517.3828 Q223.8638,517.3828 224.5112,517.5322 Q225.1587,517.6816 225.7231,517.9805 L225.7231,520.7031 Q225.0923,520.1221 224.4988,519.8523 Q223.9053,519.5825 223.2744,519.5825 Q221.9297,519.5825 221.2449,520.6492 Q220.5601,521.7158 220.5601,523.8159 Q220.5601,525.9077 221.2449,526.9744 Q221.9297,528.041 223.2744,528.041 Q223.9053,528.041 224.4988,527.7712 Q225.0923,527.5015 225.7231,526.9204 Z "/><text fill="#000000" font-family="sans-serif" font-size="12" lengthAdjust="spacingAndGlyphs" textLength="141" x="236.75" y="528.5352">ErrorResponseException</text><line style="stroke: #A80036; stroke-width: 1.5;" x1="208.75" x2="379.75" y1="540" y2="540"/><line style="stroke: #A80036; stroke-width: 1.5;" x1="208.75" x2="379.75" y1="548" y2="548"/><rect fill="#FEFECE" filter="url(#f1)" height="48" style="stroke: #A80036; stroke-width: 1.5;" width="220" x="400" y="400"/><ellipse cx="415" cy="416" fill="#ADD1B2" rx="11" ry="11" style="stroke: #A80036; stroke-width: 1.0;"/><path d="M417.9731,421.6431 Q417.3921,421.9419 416.7529,422.0913 Q416.1138,422.2407 415.4082,422.2407 Q412.9014,422.2407 411.5815,420.5889 Q410.2617,418.937 410.2617,415.8159 Q410.2617,412.6865 411.5815,411.0347 Q412.9014,409.3828 415.4082,409.3828 Q416.1138,409.3828 416.7612,409.5322 Q417.4087,409.6816 417.9731,409.9805 L417.9731,412.7031 Q417.3423,412.1221 416.7488,411.8523 Q416.1553,411.5825 415.5244,411.5825 Q414.1797,411.5825 413.4949,412.6492 Q412.8101,413.7158 412.8101,415.8159 Q412.8101,417.9077 413.4949,418.9744 Q414.1797,420.041 415.5244,420.041 Q416.1553,420.041 416.7488,419.7712 Q417.3423,419.5015 417.9731,418.9204 Z "/><text fill="#000000" font-family="sans-serif" font-size="12" lengthAdjust="spacingAndGlyphs" textLength="188" x="429" y="420.5352">ConcurrentModificationException</text><line style="stroke: #A80036; stroke-width: 1.5;" x1="401" x2="619" y1="432" y2="432"/><line style="stroke: #A80036; stroke-width: 1.5;" x1="401" x2="619" y1="440" y2="440"/><rect fill="#FEFECE" filter="url(#f1)" height="48" style="stroke: #A80036; stroke-width: 1.5;" width="143" x="655.75" y="400"/><ellipse cx="670.75" cy="416" fill="#ADD1B2" rx="11" ry="11" style="stroke: #A80036; stroke-width: 1.0;"/><path d="M673.7231,421.6431 Q673.1421,421.9419 672.5029,422.0913 Q671.8638,422.2407 671.1582,422.2407 Q668.6514,422.2407 667.3315,420.5889 Q666.0117,418.937 666.0117,415.8159 Q666.0117,412.6865 667.3315,411.0347 Q668.6514,409.3828 671.1582,409.3828 Q671.8638,409.3828 672.5112,409.5322 Q673.1587,409.6816 673.7231,409.9805 L673.7231,412.7031 Q673.0923,412.1221 672.4988,411.8523 Q671.9053,411.5825 671.2744,411.5825 Q669.9297,411.5825 669.2449,412.6492 Q668.5601,413.7158 668.5601,415.8159 Q668.5601,417.9077 669.2449,418.9744 Q669.9297,420.041 671.2744,420.041 Q671.9053,420.041 672.4988,419.7712 Q673.0923,419.5015 673.7231,418.9204 Z "/><text fill="#000000" font-family="sans-serif" font-size="12" lengthAdjust="spacingAndGlyphs" textLength="111" x="684.75" y="420.5352">NotFoundException</text><line style="stroke: #A80036; stroke-width: 1.5;" x1="656.75" x2="797.75" y1="432" y2="432"/><line style="stroke: #A80036; stroke-width: 1.5;" x1="656.75" x2="797.75" y1="440" y2="440"/><rect fill="#FEFECE" filter="url(#f1)" height="48" style="stroke: #A80036; stroke-width: 1.5;" width="165" x="833.75" y="400"/><ellipse cx="848.75" cy="416" fill="#ADD1B2" rx="11" ry="11" style="stroke: #A80036; stroke-width: 1.0;"/><path d="M851.7231,421.6431 Q851.1421,421.9419 850.5029,422.0913 Q849.8638,422.2407 849.1582,422.2407 Q846.6514,422.2407 845.3315,420.5889 Q844.0117,418.937 844.0117,415.8159 Q844.0117,412.6865 845.3315,411.0347 Q846.6514,409.3828 849.1582,409.3828 Q849.8638,409.3828 850.5112,409.5322 Q851.1587,409.6816 851.7231,409.9805 L851.7231,412.7031 Q851.0923,412.1221 850.4988,411.8523 Q849.9053,411.5825 849.2744,411.5825 Q847.9297,411.5825 847.2449,412.6492 Q846.5601,413.7158 846.5601,415.8159 Q846.5601,417.9077 847.2449,418.9744 Q847.9297,420.041 849.2744,420.041 Q849.9053,420.041 850.4988,419.7712 Q851.0923,419.5015 851.7231,418.9204 Z "/><text fill="#000000" font-family="sans-serif" font-size="12" lengthAdjust="spacingAndGlyphs" textLength="133" x="862.75" y="420.5352">UnauthorizedException</text><line style="stroke: #A80036; stroke-width: 1.5;" x1="834.75" x2="997.75" y1="432" y2="432"/><line style="stroke: #A80036; stroke-width: 1.5;" x1="834.75" x2="997.75" y1="440" y2="440"/><rect fill="#FEFECE" filter="url(#f1)" height="48" style="stroke: #A80036; stroke-width: 1.5;" width="222" x="691" y="508"/><ellipse cx="706" cy="524" fill="#ADD1B2" rx="11" ry="11" style="stroke: #A80036; stroke-width: 1.0;"/><path d="M708.9731,529.6431 Q708.3921,529.9419 707.7529,530.0913 Q707.1138,530.2407 706.4082,530.2407 Q703.9014,530.2407 702.5815,528.5889 Q701.2617,526.937 701.2617,523.8159 Q701.2617,520.6865 702.5815,519.0347 Q703.9014,517.3828 706.4082,517.3828 Q707.1138,517.3828 707.7612,517.5322 Q708.4087,517.6816 708.9731,517.9805 L708.9731,520.7031 Q708.3423,520.1221 707.7488,519.8523 Q707.1553,519.5825 706.5244,519.5825 Q705.1797,519.5825 704.4949,520.6492 Q703.8101,521.7158 703.8101,523.8159 Q703.8101,525.9077 704.4949,526.9744 Q705.1797,528.041 706.5244,528.041 Q707.1553,528.041 707.7488,527.7712 Q708.3423,527.5015 708.9731,526.9204 Z "/><text fill="#000000" font-family="sans-serif" font-size="12" lengthAdjust="spacingAndGlyphs" textLength="190" x="720" y="528.5352">InvalidClientCredentialsException</text><line style="stroke: #A80036; stroke-width: 1.5;" x1="692" x2="912" y1="540" y2="540"/><line style="stroke: #A80036; stroke-width: 1.5;" x1="692" x2="912" y1="548" y2="548"/><rect fill="#FEFECE" filter="url(#f1)" height="48" style="stroke: #A80036; stroke-width: 1.5;" width="161" x="948.75" y="508"/><ellipse cx="963.75" cy="524" fill="#ADD1B2" rx="11" ry="11" style="stroke: #A80036; stroke-width: 1.0;"/><path d="M966.7231,529.6431 Q966.1421,529.9419 965.5029,530.0913 Q964.8638,530.2407 964.1582,530.2407 Q961.6514,530.2407 960.3315,528.5889 Q959.0117,526.937 959.0117,523.8159 Q959.0117,520.6865 960.3315,519.0347 Q961.6514,517.3828 964.1582,517.3828 Q964.8638,517.3828 965.5112,517.5322 Q966.1587,517.6816 966.7231,517.9805 L966.7231,520.7031 Q966.0923,520.1221 965.4988,519.8523 Q964.9053,519.5825 964.2744,519.5825 Q962.9297,519.5825 962.2449,520.6492 Q961.5601,521.7158 961.5601,523.8159 Q961.5601,525.9077 962.2449,526.9744 Q962.9297,528.041 964.2744,528.041 Q964.9053,528.041 965.4988,527.7712 Q966.0923,527.5015 966.7231,526.9204 Z "/><text fill="#000000" font-family="sans-serif" font-size="12" lengthAdjust="spacingAndGlyphs" textLength="129" x="977.75" y="528.5352">InvalidTokenException</text><line style="stroke: #A80036; stroke-width: 1.5;" x1="949.75" x2="1108.75" y1="540" y2="540"/><line style="stroke: #A80036; stroke-width: 1.5;" x1="949.75" x2="1108.75" y1="548" y2="548"/><rect fill="#FEFECE" filter="url(#f1)" height="48" style="stroke: #A80036; stroke-width: 1.5;" width="153" x="1243.75" y="292"/><ellipse cx="1258.75" cy="308" fill="#ADD1B2" rx="11" ry="11" style="stroke: #A80036; stroke-width: 1.0;"/><path d="M1261.7231,313.6431 Q1261.1421,313.9419 1260.5029,314.0913 Q1259.8638,314.2407 1259.1582,314.2407 Q1256.6514,314.2407 1255.3315,312.5889 Q1254.0117,310.937 1254.0117,307.8159 Q1254.0117,304.6865 1255.3315,303.0347 Q1256.6514,301.3828 1259.1582,301.3828 Q1259.8638,301.3828 1260.5112,301.5322 Q1261.1587,301.6816 1261.7231,301.9805 L1261.7231,304.7031 Q1261.0923,304.1221 1260.4988,303.8523 Q1259.9053,303.5825 1259.2744,303.5825 Q1257.9297,303.5825 1257.2449,304.6492 Q1256.5601,305.7158 1256.5601,307.8159 Q1256.5601,309.9077 1257.2449,310.9744 Q1257.9297,312.041 1259.2744,312.041 Q1259.9053,312.041 1260.4988,311.7712 Q1261.0923,311.5015 1261.7231,310.9204 Z "/><text fill="#000000" font-family="sans-serif" font-size="12" lengthAdjust="spacingAndGlyphs" textLength="121" x="1272.75" y="312.5352">ServerErrorException</text><line style="stroke: #A80036; stroke-width: 1.5;" x1="1244.75" x2="1395.75" y1="324" y2="324"/><line style="stroke: #A80036; stroke-width: 1.5;" x1="1244.75" x2="1395.75" y1="332" y2="332"/><rect fill="#FEFECE" filter="url(#f1)" height="48" style="stroke: #A80036; stroke-width: 1.5;" width="159" x="1033.75" y="400"/><ellipse cx="1048.75" cy="416" fill="#ADD1B2" rx="11" ry="11" style="stroke: #A80036; stroke-width: 1.0;"/><path d="M1051.7231,421.6431 Q1051.1421,421.9419 1050.5029,422.0913 Q1049.8638,422.2407 1049.1582,422.2407 Q1046.6514,422.2407 1045.3315,420.5889 Q1044.0117,418.937 1044.0117,415.8159 Q1044.0117,412.6865 1045.3315,411.0347 Q1046.6514,409.3828 1049.1582,409.3828 Q1049.8638,409.3828 1050.5112,409.5322 Q1051.1587,409.6816 1051.7231,409.9805 L1051.7231,412.7031 Q1051.0923,412.1221 1050.4988,411.8523 Q1049.9053,411.5825 1049.2744,411.5825 Q1047.9297,411.5825 1047.2449,412.6492 Q1046.5601,413.7158 1046.5601,415.8159 Q1046.5601,417.9077 1047.2449,418.9744 Q1047.9297,420.041 1049.2744,420.041 Q1049.9053,420.041 1050.4988,419.7712 Q1051.0923,419.5015 1051.7231,418.9204 Z "/><text fill="#000000" font-family="sans-serif" font-size="12" lengthAdjust="spacingAndGlyphs" textLength="127" x="1062.75" y="420.5352">BadGatewayException</text><line style="stroke: #A80036; stroke-width: 1.5;" x1="1034.75" x2="1191.75" y1="432" y2="432"/><line style="stroke: #A80036; stroke-width: 1.5;" x1="1034.75" x2="1191.75" y1="440" y2="440"/><rect fill="#FEFECE" filter="url(#f1)" height="48" style="stroke: #A80036; stroke-width: 1.5;" width="184" x="1228" y="400"/><ellipse cx="1243" cy="416" fill="#ADD1B2" rx="11" ry="11" style="stroke: #A80036; stroke-width: 1.0;"/><path d="M1245.9731,421.6431 Q1245.3921,421.9419 1244.7529,422.0913 Q1244.1138,422.2407 1243.4082,422.2407 Q1240.9014,422.2407 1239.5815,420.5889 Q1238.2617,418.937 1238.2617,415.8159 Q1238.2617,412.6865 1239.5815,411.0347 Q1240.9014,409.3828 1243.4082,409.3828 Q1244.1138,409.3828 1244.7612,409.5322 Q1245.4087,409.6816 1245.9731,409.9805 L1245.9731,412.7031 Q1245.3423,412.1221 1244.7488,411.8523 Q1244.1553,411.5825 1243.5244,411.5825 Q1242.1797,411.5825 1241.4949,412.6492 Q1240.8101,413.7158 1240.8101,415.8159 Q1240.8101,417.9077 1241.4949,418.9744 Q1242.1797,420.041 1243.5244,420.041 Q1244.1553,420.041 1244.7488,419.7712 Q1245.3423,419.5015 1245.9731,418.9204 Z "/><text fill="#000000" font-family="sans-serif" font-size="12" lengthAdjust="spacingAndGlyphs" textLength="152" x="1257" y="420.5352">GatewayTimeoutException</text><line style="stroke: #A80036; stroke-width: 1.5;" x1="1229" x2="1411" y1="432" y2="432"/><line style="stroke: #A80036; stroke-width: 1.5;" x1="1229" x2="1411" y1="440" y2="440"/><rect fill="#FEFECE" filter="url(#f1)" height="48" style="stroke: #A80036; stroke-width: 1.5;" width="196" x="1447" y="400"/><ellipse cx="1462" cy="416" fill="#ADD1B2" rx="11" ry="11" style="stroke: #A80036; stroke-width: 1.0;"/><path d="M1464.9731,421.6431 Q1464.3921,421.9419 1463.7529,422.0913 Q1463.1138,422.2407 1462.4082,422.2407 Q1459.9014,422.2407 1458.5815,420.5889 Q1457.2617,418.937 1457.2617,415.8159 Q1457.2617,412.6865 1458.5815,411.0347 Q1459.9014,409.3828 1462.4082,409.3828 Q1463.1138,409.3828 1463.7612,409.5322 Q1464.4087,409.6816 1464.9731,409.9805 L1464.9731,412.7031 Q1464.3423,412.1221 1463.7488,411.8523 Q1463.1553,411.5825 1462.5244,411.5825 Q1461.1797,411.5825 1460.4949,412.6492 Q1459.8101,413.7158 1459.8101,415.8159 Q1459.8101,417.9077 1460.4949,418.9744 Q1461.1797,420.041 1462.5244,420.041 Q1463.1553,420.041 1463.7488,419.7712 Q1464.3423,419.5015 1464.9731,418.9204 Z "/><text fill="#000000" font-family="sans-serif" font-size="12" lengthAdjust="spacingAndGlyphs" textLength="164" x="1476" y="420.5352">InternalServerErrorException</text><line style="stroke: #A80036; stroke-width: 1.5;" x1="1448" x2="1642" y1="432" y2="432"/><line style="stroke: #A80036; stroke-width: 1.5;" x1="1448" x2="1642" y1="440" y2="440"/><rect fill="#FEFECE" filter="url(#f1)" height="48" style="stroke: #A80036; stroke-width: 1.5;" width="194" x="1678" y="400"/><ellipse cx="1693" cy="416" fill="#ADD1B2" rx="11" ry="11" style="stroke: #A80036; stroke-width: 1.0;"/><path d="M1695.9731,421.6431 Q1695.3921,421.9419 1694.7529,422.0913 Q1694.1138,422.2407 1693.4082,422.2407 Q1690.9014,422.2407 1689.5815,420.5889 Q1688.2617,418.937 1688.2617,415.8159 Q1688.2617,412.6865 1689.5815,411.0347 Q1690.9014,409.3828 1693.4082,409.3828 Q1694.1138,409.3828 1694.7612,409.5322 Q1695.4087,409.6816 1695.9731,409.9805 L1695.9731,412.7031 Q1695.3423,412.1221 1694.7488,411.8523 Q1694.1553,411.5825 1693.5244,411.5825 Q1692.1797,411.5825 1691.4949,412.6492 Q1690.8101,413.7158 1690.8101,415.8159 Q1690.8101,417.9077 1691.4949,418.9744 Q1692.1797,420.041 1693.5244,420.041 Q1694.1553,420.041 1694.7488,419.7712 Q1695.3423,419.5015 1695.9731,418.9204 Z "/><text fill="#000000" font-family="sans-serif" font-size="12" lengthAdjust="spacingAndGlyphs" textLength="162" x="1707" y="420.5352">ServiceUnavailableException</text><line style="stroke: #A80036; stroke-width: 1.5;" x1="1679" x2="1871" y1="432" y2="432"/><line style="stroke: #A80036; stroke-width: 1.5;" x1="1679" x2="1871" y1="440" y2="440"/><path d="M533.563,91.08 C427.406,99.55 251.706,116.544 191,140 C164.837,150.109 138.985,168.788 120.711,183.861 " fill="none" style="stroke: #A80036; stroke-width: 1.0;"/><polygon fill="none" points="533.328,84.077,553.812,89.5,534.417,98.034,533.328,84.077" style="stroke: #A80036; stroke-width: 1.0;"/><path d="M678.5,117.672 C691.868,124.967 705.937,132.704 719,140 C744.851,154.438 773.723,170.967 796.317,183.995 " fill="none" style="stroke: #A80036; stroke-width: 1.0;"/><polygon fill="none" points="675.091,123.786,660.867,108.081,681.781,111.488,675.091,123.786" style="stroke: #A80036; stroke-width: 1.0;"/><path d="M618,128.275 C618,147.008 618,168.185 618,183.852 " fill="none" style="stroke: #A80036; stroke-width: 1.0;"/><polygon fill="none" points="611,128.234,618,108.234,625,128.234,611,128.234" style="stroke: #A80036; stroke-width: 1.0;"/><path d="M618,252.024 C618,265.579 618,280.038 618,291.678 " fill="none" style="stroke: #A80036; stroke-width: 1.0;"/><polygon fill="none" points="611,252,618,232,625,252,611,252" style="stroke: #A80036; stroke-width: 1.0;"/><path d="M526.672,346.159 C473.583,363.109 407.62,384.169 358.185,399.953 " fill="none" style="stroke: #A80036; stroke-width: 1.0;"/><polygon fill="none" points="524.779,339.415,545.961,340,529.038,352.752,524.779,339.415" style="stroke: #A80036; stroke-width: 1.0;"/><path d="M289.247,468.024 C290.27,481.579 291.361,496.0381 292.24,507.6784 " fill="none" style="stroke: #A80036; stroke-width: 1.0;"/><polygon fill="none" points="282.261,468.471,287.736,448,296.221,467.417,282.261,468.471" style="stroke: #A80036; stroke-width: 1.0;"/><path d="M580.016,354.28 C564.621,369.391 547.316,386.375 533.762,399.678 " fill="none" style="stroke: #A80036; stroke-width: 1.0;"/><polygon fill="none" points="575.389,349.014,594.566,340,585.195,359.006,575.389,349.014" style="stroke: #A80036; stroke-width: 1.0;"/><path d="M656.335,354.28 C671.873,369.391 689.339,386.375 703.018,399.678 " fill="none" style="stroke: #A80036; stroke-width: 1.0;"/><polygon fill="none" points="651.109,358.962,641.651,340,660.87,348.926,651.109,358.962" style="stroke: #A80036; stroke-width: 1.0;"/><path d="M701.55,346.719 C748.927,363.571 807.323,384.343 851.208,399.953 " fill="none" style="stroke: #A80036; stroke-width: 1.0;"/><polygon fill="none" points="699.159,353.298,682.662,340,703.851,340.108,699.159,353.298" style="stroke: #A80036; stroke-width: 1.0;"/><path d="M876.413,461.809 C860.036,477.036 841.538,494.2366 827.082,507.6784 " fill="none" style="stroke: #A80036; stroke-width: 1.0;"/><polygon fill="none" points="871.85,456.493,891.264,448,881.384,466.746,871.85,456.493" style="stroke: #A80036; stroke-width: 1.0;"/><path d="M955.239,461.809 C971.473,477.036 989.809,494.2366 1004.138,507.6784 " fill="none" style="stroke: #A80036; stroke-width: 1.0;"/><polygon fill="none" points="950.317,466.789,940.519,448,959.895,456.578,950.317,466.789" style="stroke: #A80036; stroke-width: 1.0;"/><path d="M678.041,240.954 C691.226,246.824 705.337,252.267 719,256 C902.561,306.15 1127.94,314.846 1243.57,315.66 " fill="none" style="stroke: #A80036; stroke-width: 1.0;"/><polygon fill="none" points="674.627,247.083,659.546,232.198,680.618,234.429,674.627,247.083" style="stroke: #A80036; stroke-width: 1.0;"/><path d="M1257.12,349.201 C1225.2,365.543 1187.17,385.021 1158.19,399.862 " fill="none" style="stroke: #A80036; stroke-width: 1.0;"/><polygon fill="none" points="1254.09,342.886,1275.08,340,1260.47,355.347,1254.09,342.886" style="stroke: #A80036; stroke-width: 1.0;"/><path d="M1320,360.024 C1320,373.579 1320,388.038 1320,399.678 " fill="none" style="stroke: #A80036; stroke-width: 1.0;"/><polygon fill="none" points="1313,360,1320,340,1327,360,1313,360" style="stroke: #A80036; stroke-width: 1.0;"/><path d="M1387.38,348.744 C1422.27,365.179 1464.09,384.882 1495.89,399.862 " fill="none" style="stroke: #A80036; stroke-width: 1.0;"/><polygon fill="none" points="1383.93,354.857,1368.82,340,1389.9,342.192,1383.93,354.857" style="stroke: #A80036; stroke-width: 1.0;"/><path d="M1416.26,339.425 C1493.16,357.341 1600.47,382.341 1677.66,400.323 " fill="none" style="stroke: #A80036; stroke-width: 1.0;"/><polygon fill="none" points="1414.3,346.157,1396.41,334.802,1417.48,332.522,1414.3,346.157" style="stroke: #A80036; stroke-width: 1.0;"/></g></svg>