<?xml version="1.0" encoding="UTF-8" standalone="yes"?><svg xmlns="http://www.w3.org/2000/svg" xmlns:xlink="http://www.w3.org/1999/xlink" height="671pt" style="width:1830px;height:671px;" version="1.1" viewBox="0 0 1830 671" width="1830pt"><defs><filter height="300%" id="f1" width="300%" x="-1" y="-1"><feGaussianBlur result="blurOut" stdDeviation="2.0"/><feColorMatrix in="blurOut" result="blurOut2" type="matrix" values="0 0 0 0 0 0 0 0 0 0 0 0 0 0 0 0 0 0 .4 0"/><feOffset dx="4.0" dy="4.0" in="blurOut2" result="blurOut3"/><feBlend in="SourceGraphic" in2="blurOut3" mode="normal"/></filter></defs><g><polygon fill="#FFFFFF" filter="url(#f1)" points="22,24,228,24,235,46.2969,1823,46.2969,1823,664,22,664,22,24" style="stroke: #000000; stroke-width: 2.0;"/><line style="stroke: #000000; stroke-width: 2.0;" x1="22" x2="235" y1="46.2969" y2="46.2969"/><text fill="#000000" font-family="sans-serif" font-size="14" font-weight="bold" lengthAdjust="spacingAndGlyphs" textLength="200" x="25" y="39.9951">io.sphere.sdk.exceptions</text><rect fill="#FEFECE" filter="url(#f1)" height="48" style="stroke: #A80036; stroke-width: 1.5;" width="138" x="429" y="60"/><ellipse cx="444" cy="76" fill="#ADD1B2" rx="11" ry="11" style="stroke: #A80036; stroke-width: 1.0;"/><path d="M446.9688,81.6406 Q446.3906,81.9375 445.75,82.0859 Q445.1094,82.2344 444.4063,82.2344 Q441.9063,82.2344 440.5859,80.5859 Q439.2656,78.9375 439.2656,75.8125 Q439.2656,72.6875 440.5859,71.0313 Q441.9063,69.375 444.4063,69.375 Q445.1094,69.375 445.7578,69.5313 Q446.4063,69.6875 446.9688,69.9844 L446.9688,72.7031 Q446.3438,72.125 445.75,71.8516 Q445.1563,71.5781 444.5313,71.5781 Q443.1875,71.5781 442.5,72.6484 Q441.8125,73.7188 441.8125,75.8125 Q441.8125,77.9063 442.5,78.9766 Q443.1875,80.0469 444.5313,80.0469 Q445.1563,80.0469 445.75,79.7734 Q446.3438,79.5 446.9688,78.9219 L446.9688,81.6406 Z "/><text fill="#000000" font-family="sans-serif" font-size="12" lengthAdjust="spacingAndGlyphs" textLength="106" x="458" y="80.1543">SphereException</text><line style="stroke: #A80036; stroke-width: 1.5;" x1="430" x2="566" y1="92" y2="92"/><line style="stroke: #A80036; stroke-width: 1.5;" x1="430" x2="566" y1="100" y2="100"/><rect fill="#FEFECE" filter="url(#f1)" height="48" style="stroke: #A80036; stroke-width: 1.5;" width="119" x="347" y="168"/><ellipse cx="362" cy="184" fill="#ADD1B2" rx="11" ry="11" style="stroke: #A80036; stroke-width: 1.0;"/><path d="M364.9688,189.6406 Q364.3906,189.9375 363.75,190.0859 Q363.1094,190.2344 362.4063,190.2344 Q359.9063,190.2344 358.5859,188.5859 Q357.2656,186.9375 357.2656,183.8125 Q357.2656,180.6875 358.5859,179.0313 Q359.9063,177.375 362.4063,177.375 Q363.1094,177.375 363.7578,177.5313 Q364.4063,177.6875 364.9688,177.9844 L364.9688,180.7031 Q364.3438,180.125 363.75,179.8516 Q363.1563,179.5781 362.5313,179.5781 Q361.1875,179.5781 360.5,180.6484 Q359.8125,181.7188 359.8125,183.8125 Q359.8125,185.9063 360.5,186.9766 Q361.1875,188.0469 362.5313,188.0469 Q363.1563,188.0469 363.75,187.7734 Q364.3438,187.5 364.9688,186.9219 L364.9688,189.6406 Z "/><text fill="#000000" font-family="sans-serif" font-size="12" lengthAdjust="spacingAndGlyphs" textLength="87" x="376" y="188.1543">JsonException</text><line style="stroke: #A80036; stroke-width: 1.5;" x1="348" x2="465" y1="200" y2="200"/><line style="stroke: #A80036; stroke-width: 1.5;" x1="348" x2="465" y1="208" y2="208"/><rect fill="#FEFECE" filter="url(#f1)" height="48" style="stroke: #A80036; stroke-width: 1.5;" width="183" x="500" y="168"/><ellipse cx="515" cy="184" fill="#ADD1B2" rx="11" ry="11" style="stroke: #A80036; stroke-width: 1.0;"/><path d="M517.9688,189.6406 Q517.3906,189.9375 516.75,190.0859 Q516.1094,190.2344 515.4063,190.2344 Q512.9063,190.2344 511.5859,188.5859 Q510.2656,186.9375 510.2656,183.8125 Q510.2656,180.6875 511.5859,179.0313 Q512.9063,177.375 515.4063,177.375 Q516.1094,177.375 516.7578,177.5313 Q517.4063,177.6875 517.9688,177.9844 L517.9688,180.7031 Q517.3438,180.125 516.75,179.8516 Q516.1563,179.5781 515.5313,179.5781 Q514.1875,179.5781 513.5,180.6484 Q512.8125,181.7188 512.8125,183.8125 Q512.8125,185.9063 513.5,186.9766 Q514.1875,188.0469 515.5313,188.0469 Q516.1563,188.0469 516.75,187.7734 Q517.3438,187.5 517.9688,186.9219 L517.9688,189.6406 Z "/><text fill="#000000" font-family="sans-serif" font-size="12" lengthAdjust="spacingAndGlyphs" textLength="151" x="529" y="188.1543">SphereServiceException</text><line style="stroke: #A80036; stroke-width: 1.5;" x1="501" x2="682" y1="200" y2="200"/><line style="stroke: #A80036; stroke-width: 1.5;" x1="501" x2="682" y1="208" y2="208"/><rect fill="#FEFECE" filter="url(#f1)" height="48" style="stroke: #A80036; stroke-width: 1.5;" width="175" x="303" y="276"/><ellipse cx="318" cy="292" fill="#ADD1B2" rx="11" ry="11" style="stroke: #A80036; stroke-width: 1.0;"/><path d="M320.9688,297.6406 Q320.3906,297.9375 319.75,298.0859 Q319.1094,298.2344 318.4063,298.2344 Q315.9063,298.2344 314.5859,296.5859 Q313.2656,294.9375 313.2656,291.8125 Q313.2656,288.6875 314.5859,287.0313 Q315.9063,285.375 318.4063,285.375 Q319.1094,285.375 319.7578,285.5313 Q320.4063,285.6875 320.9688,285.9844 L320.9688,288.7031 Q320.3438,288.125 319.75,287.8516 Q319.1563,287.5781 318.5313,287.5781 Q317.1875,287.5781 316.5,288.6484 Q315.8125,289.7188 315.8125,291.8125 Q315.8125,293.9063 316.5,294.9766 Q317.1875,296.0469 318.5313,296.0469 Q319.1563,296.0469 319.75,295.7734 Q320.3438,295.5 320.9688,294.9219 L320.9688,297.6406 Z "/><text fill="#000000" font-family="sans-serif" font-size="12" lengthAdjust="spacingAndGlyphs" textLength="143" x="332" y="296.1543">AuthorizationException</text><line style="stroke: #A80036; stroke-width: 1.5;" x1="304" x2="477" y1="308" y2="308"/><line style="stroke: #A80036; stroke-width: 1.5;" x1="304" x2="477" y1="316" y2="316"/><rect fill="#FEFECE" filter="url(#f1)" height="48" style="stroke: #A80036; stroke-width: 1.5;" width="159" x="512" y="276"/><ellipse cx="527" cy="292" fill="#ADD1B2" rx="11" ry="11" style="stroke: #A80036; stroke-width: 1.0;"/><path d="M529.9688,297.6406 Q529.3906,297.9375 528.75,298.0859 Q528.1094,298.2344 527.4063,298.2344 Q524.9063,298.2344 523.5859,296.5859 Q522.2656,294.9375 522.2656,291.8125 Q522.2656,288.6875 523.5859,287.0313 Q524.9063,285.375 527.4063,285.375 Q528.1094,285.375 528.7578,285.5313 Q529.4063,285.6875 529.9688,285.9844 L529.9688,288.7031 Q529.3438,288.125 528.75,287.8516 Q528.1563,287.5781 527.5313,287.5781 Q526.1875,287.5781 525.5,288.6484 Q524.8125,289.7188 524.8125,291.8125 Q524.8125,293.9063 525.5,294.9766 Q526.1875,296.0469 527.5313,296.0469 Q528.1563,296.0469 528.75,295.7734 Q529.3438,295.5 529.9688,294.9219 L529.9688,297.6406 Z "/><text fill="#000000" font-family="sans-serif" font-size="12" lengthAdjust="spacingAndGlyphs" textLength="127" x="541" y="296.1543">ClientErrorException</text><line style="stroke: #A80036; stroke-width: 1.5;" x1="513" x2="670" y1="308" y2="308"/><line style="stroke: #A80036; stroke-width: 1.5;" x1="513" x2="670" y1="316" y2="316"/><rect fill="#FEFECE" filter="url(#f1)" height="48" style="stroke: #A80036; stroke-width: 1.5;" width="169" x="38" y="384"/><ellipse cx="53" cy="400" fill="#ADD1B2" rx="11" ry="11" style="stroke: #A80036; stroke-width: 1.0;"/><path d="M55.9688,405.6406 Q55.3906,405.9375 54.75,406.0859 Q54.1094,406.2344 53.4063,406.2344 Q50.9063,406.2344 49.5859,404.5859 Q48.2656,402.9375 48.2656,399.8125 Q48.2656,396.6875 49.5859,395.0313 Q50.9063,393.375 53.4063,393.375 Q54.1094,393.375 54.7578,393.5313 Q55.4063,393.6875 55.9688,393.9844 L55.9688,396.7031 Q55.3438,396.125 54.75,395.8516 Q54.1563,395.5781 53.5313,395.5781 Q52.1875,395.5781 51.5,396.6484 Q50.8125,397.7188 50.8125,399.8125 Q50.8125,401.9063 51.5,402.9766 Q52.1875,404.0469 53.5313,404.0469 Q54.1563,404.0469 54.75,403.7734 Q55.3438,403.5 55.9688,402.9219 L55.9688,405.6406 Z "/><text fill="#000000" font-family="sans-serif" font-size="12" lengthAdjust="spacingAndGlyphs" textLength="137" x="67" y="404.1543">BadRequestException</text><line style="stroke: #A80036; stroke-width: 1.5;" x1="39" x2="206" y1="416" y2="416"/><line style="stroke: #A80036; stroke-width: 1.5;" x1="39" x2="206" y1="424" y2="424"/><rect fill="#FEFECE" filter="url(#f1)" height="48" style="stroke: #A80036; stroke-width: 1.5;" width="193" x="38" y="492"/><ellipse cx="53" cy="508" fill="#ADD1B2" rx="11" ry="11" style="stroke: #A80036; stroke-width: 1.0;"/><path d="M55.9688,513.6406 Q55.3906,513.9375 54.75,514.0859 Q54.1094,514.2344 53.4063,514.2344 Q50.9063,514.2344 49.5859,512.5859 Q48.2656,510.9375 48.2656,507.8125 Q48.2656,504.6875 49.5859,503.0313 Q50.9063,501.375 53.4063,501.375 Q54.1094,501.375 54.7578,501.5313 Q55.4063,501.6875 55.9688,501.9844 L55.9688,504.7031 Q55.3438,504.125 54.75,503.8516 Q54.1563,503.5781 53.5313,503.5781 Q52.1875,503.5781 51.5,504.6484 Q50.8125,505.7188 50.8125,507.8125 Q50.8125,509.9063 51.5,510.9766 Q52.1875,512.0469 53.5313,512.0469 Q54.1563,512.0469 54.75,511.7734 Q55.3438,511.5 55.9688,510.9219 L55.9688,513.6406 Z "/><text fill="#000000" font-family="sans-serif" font-size="12" lengthAdjust="spacingAndGlyphs" textLength="161" x="67" y="512.1543">ReferenceExistsException</text><line style="stroke: #A80036; stroke-width: 1.5;" x1="39" x2="230" y1="524" y2="524"/><line style="stroke: #A80036; stroke-width: 1.5;" x1="39" x2="230" y1="532" y2="532"/><rect fill="#FEFECE" filter="url(#f1)" height="48" style="stroke: #A80036; stroke-width: 1.5;" width="307" x="265" y="492"/><ellipse cx="280" cy="508" fill="#ADD1B2" rx="11" ry="11" style="stroke: #A80036; stroke-width: 1.0;"/><path d="M282.9688,513.6406 Q282.3906,513.9375 281.75,514.0859 Q281.1094,514.2344 280.4063,514.2344 Q277.9063,514.2344 276.5859,512.5859 Q275.2656,510.9375 275.2656,507.8125 Q275.2656,504.6875 276.5859,503.0313 Q277.9063,501.375 280.4063,501.375 Q281.1094,501.375 281.7578,501.5313 Q282.4063,501.6875 282.9688,501.9844 L282.9688,504.7031 Q282.3438,504.125 281.75,503.8516 Q281.1563,503.5781 280.5313,503.5781 Q279.1875,503.5781 278.5,504.6484 Q277.8125,505.7188 277.8125,507.8125 Q277.8125,509.9063 278.5,510.9766 Q279.1875,512.0469 280.5313,512.0469 Q281.1563,512.0469 281.75,511.7734 Q282.3438,511.5 282.9688,510.9219 L282.9688,513.6406 Z "/><text fill="#000000" font-family="sans-serif" font-size="12" lengthAdjust="spacingAndGlyphs" textLength="275" x="294" y="512.1543">SphereErrorResponseBadRequestException</text><line style="stroke: #A80036; stroke-width: 1.5;" x1="266" x2="571" y1="524" y2="524"/><line style="stroke: #A80036; stroke-width: 1.5;" x1="266" x2="571" y1="532" y2="532"/><rect fill="#FEFECE" filter="url(#f1)" height="48" style="stroke: #A80036; stroke-width: 1.5;" width="190" x="323" y="600"/><ellipse cx="338" cy="616" fill="#ADD1B2" rx="11" ry="11" style="stroke: #A80036; stroke-width: 1.0;"/><path d="M340.9688,621.6406 Q340.3906,621.9375 339.75,622.0859 Q339.1094,622.2344 338.4063,622.2344 Q335.9063,622.2344 334.5859,620.5859 Q333.2656,618.9375 333.2656,615.8125 Q333.2656,612.6875 334.5859,611.0313 Q335.9063,609.375 338.4063,609.375 Q339.1094,609.375 339.7578,609.5313 Q340.4063,609.6875 340.9688,609.9844 L340.9688,612.7031 Q340.3438,612.125 339.75,611.8516 Q339.1563,611.5781 338.5313,611.5781 Q337.1875,611.5781 336.5,612.6484 Q335.8125,613.7188 335.8125,615.8125 Q335.8125,617.9063 336.5,618.9766 Q337.1875,620.0469 338.5313,620.0469 Q339.1563,620.0469 339.75,619.7734 Q340.3438,619.5 340.9688,618.9219 L340.9688,621.6406 Z "/><text fill="#000000" font-family="sans-serif" font-size="12" lengthAdjust="spacingAndGlyphs" textLength="158" x="352" y="620.1543">InvalidJsonInputException</text><line style="stroke: #A80036; stroke-width: 1.5;" x1="324" x2="512" y1="632" y2="632"/><line style="stroke: #A80036; stroke-width: 1.5;" x1="324" x2="512" y1="640" y2="640"/><rect fill="#FEFECE" filter="url(#f1)" height="48" style="stroke: #A80036; stroke-width: 1.5;" width="238" x="241" y="384"/><ellipse cx="256" cy="400" fill="#ADD1B2" rx="11" ry="11" style="stroke: #A80036; stroke-width: 1.0;"/><path d="M258.9688,405.6406 Q258.3906,405.9375 257.75,406.0859 Q257.1094,406.2344 256.4063,406.2344 Q253.9063,406.2344 252.5859,404.5859 Q251.2656,402.9375 251.2656,399.8125 Q251.2656,396.6875 252.5859,395.0313 Q253.9063,393.375 256.4063,393.375 Q257.1094,393.375 257.7578,393.5313 Q258.4063,393.6875 258.9688,393.9844 L258.9688,396.7031 Q258.3438,396.125 257.75,395.8516 Q257.1563,395.5781 256.5313,395.5781 Q255.1875,395.5781 254.5,396.6484 Q253.8125,397.7188 253.8125,399.8125 Q253.8125,401.9063 254.5,402.9766 Q255.1875,404.0469 256.5313,404.0469 Q257.1563,404.0469 257.75,403.7734 Q258.3438,403.5 258.9688,402.9219 L258.9688,405.6406 Z "/><text fill="#000000" font-family="sans-serif" font-size="12" lengthAdjust="spacingAndGlyphs" textLength="206" x="270" y="404.1543">ConcurrentModificationException</text><line style="stroke: #A80036; stroke-width: 1.5;" x1="242" x2="478" y1="416" y2="416"/><line style="stroke: #A80036; stroke-width: 1.5;" x1="242" x2="478" y1="424" y2="424"/><rect fill="#FEFECE" filter="url(#f1)" height="48" style="stroke: #A80036; stroke-width: 1.5;" width="154" x="514" y="384"/><ellipse cx="529" cy="400" fill="#ADD1B2" rx="11" ry="11" style="stroke: #A80036; stroke-width: 1.0;"/><path d="M531.9688,405.6406 Q531.3906,405.9375 530.75,406.0859 Q530.1094,406.2344 529.4063,406.2344 Q526.9063,406.2344 525.5859,404.5859 Q524.2656,402.9375 524.2656,399.8125 Q524.2656,396.6875 525.5859,395.0313 Q526.9063,393.375 529.4063,393.375 Q530.1094,393.375 530.7578,393.5313 Q531.4063,393.6875 531.9688,393.9844 L531.9688,396.7031 Q531.3438,396.125 530.75,395.8516 Q530.1563,395.5781 529.5313,395.5781 Q528.1875,395.5781 527.5,396.6484 Q526.8125,397.7188 526.8125,399.8125 Q526.8125,401.9063 527.5,402.9766 Q528.1875,404.0469 529.5313,404.0469 Q530.1563,404.0469 530.75,403.7734 Q531.3438,403.5 531.9688,402.9219 L531.9688,405.6406 Z "/><text fill="#000000" font-family="sans-serif" font-size="12" lengthAdjust="spacingAndGlyphs" textLength="122" x="543" y="404.1543">NotFoundException</text><line style="stroke: #A80036; stroke-width: 1.5;" x1="515" x2="667" y1="416" y2="416"/><line style="stroke: #A80036; stroke-width: 1.5;" x1="515" x2="667" y1="424" y2="424"/><rect fill="#FEFECE" filter="url(#f1)" height="48" style="stroke: #A80036; stroke-width: 1.5;" width="176" x="703" y="384"/><ellipse cx="718" cy="400" fill="#ADD1B2" rx="11" ry="11" style="stroke: #A80036; stroke-width: 1.0;"/><path d="M720.9688,405.6406 Q720.3906,405.9375 719.75,406.0859 Q719.1094,406.2344 718.4063,406.2344 Q715.9063,406.2344 714.5859,404.5859 Q713.2656,402.9375 713.2656,399.8125 Q713.2656,396.6875 714.5859,395.0313 Q715.9063,393.375 718.4063,393.375 Q719.1094,393.375 719.7578,393.5313 Q720.4063,393.6875 720.9688,393.9844 L720.9688,396.7031 Q720.3438,396.125 719.75,395.8516 Q719.1563,395.5781 718.5313,395.5781 Q717.1875,395.5781 716.5,396.6484 Q715.8125,397.7188 715.8125,399.8125 Q715.8125,401.9063 716.5,402.9766 Q717.1875,404.0469 718.5313,404.0469 Q719.1563,404.0469 719.75,403.7734 Q720.3438,403.5 720.9688,402.9219 L720.9688,405.6406 Z "/><text fill="#000000" font-family="sans-serif" font-size="12" lengthAdjust="spacingAndGlyphs" textLength="144" x="732" y="404.1543">UnauthorizedException</text><line style="stroke: #A80036; stroke-width: 1.5;" x1="704" x2="878" y1="416" y2="416"/><line style="stroke: #A80036; stroke-width: 1.5;" x1="704" x2="878" y1="424" y2="424"/><rect fill="#FEFECE" filter="url(#f1)" height="48" style="stroke: #A80036; stroke-width: 1.5;" width="238" x="639" y="492"/><ellipse cx="654" cy="508" fill="#ADD1B2" rx="11" ry="11" style="stroke: #A80036; stroke-width: 1.0;"/><path d="M656.9688,513.6406 Q656.3906,513.9375 655.75,514.0859 Q655.1094,514.2344 654.4063,514.2344 Q651.9063,514.2344 650.5859,512.5859 Q649.2656,510.9375 649.2656,507.8125 Q649.2656,504.6875 650.5859,503.0313 Q651.9063,501.375 654.4063,501.375 Q655.1094,501.375 655.7578,501.5313 Q656.4063,501.6875 656.9688,501.9844 L656.9688,504.7031 Q656.3438,504.125 655.75,503.8516 Q655.1563,503.5781 654.5313,503.5781 Q653.1875,503.5781 652.5,504.6484 Q651.8125,505.7188 651.8125,507.8125 Q651.8125,509.9063 652.5,510.9766 Q653.1875,512.0469 654.5313,512.0469 Q655.1563,512.0469 655.75,511.7734 Q656.3438,511.5 656.9688,510.9219 L656.9688,513.6406 Z "/><text fill="#000000" font-family="sans-serif" font-size="12" lengthAdjust="spacingAndGlyphs" textLength="206" x="668" y="512.1543">InvalidClientCredentialsException</text><line style="stroke: #A80036; stroke-width: 1.5;" x1="640" x2="876" y1="524" y2="524"/><line style="stroke: #A80036; stroke-width: 1.5;" x1="640" x2="876" y1="532" y2="532"/><rect fill="#FEFECE" filter="url(#f1)" height="48" style="stroke: #A80036; stroke-width: 1.5;" width="170" x="912" y="492"/><ellipse cx="927" cy="508" fill="#ADD1B2" rx="11" ry="11" style="stroke: #A80036; stroke-width: 1.0;"/><path d="M929.9688,513.6406 Q929.3906,513.9375 928.75,514.0859 Q928.1094,514.2344 927.4063,514.2344 Q924.9063,514.2344 923.5859,512.5859 Q922.2656,510.9375 922.2656,507.8125 Q922.2656,504.6875 923.5859,503.0313 Q924.9063,501.375 927.4063,501.375 Q928.1094,501.375 928.7578,501.5313 Q929.4063,501.6875 929.9688,501.9844 L929.9688,504.7031 Q929.3438,504.125 928.75,503.8516 Q928.1563,503.5781 927.5313,503.5781 Q926.1875,503.5781 925.5,504.6484 Q924.8125,505.7188 924.8125,507.8125 Q924.8125,509.9063 925.5,510.9766 Q926.1875,512.0469 927.5313,512.0469 Q928.1563,512.0469 928.75,511.7734 Q929.3438,511.5 929.9688,510.9219 L929.9688,513.6406 Z "/><text fill="#000000" font-family="sans-serif" font-size="12" lengthAdjust="spacingAndGlyphs" textLength="138" x="941" y="512.1543">InvalidTokenException</text><line style="stroke: #A80036; stroke-width: 1.5;" x1="913" x2="1081" y1="524" y2="524"/><line style="stroke: #A80036; stroke-width: 1.5;" x1="913" x2="1081" y1="532" y2="532"/><rect fill="#FEFECE" filter="url(#f1)" height="48" style="stroke: #A80036; stroke-width: 1.5;" width="164" x="1135" y="276"/><ellipse cx="1150" cy="292" fill="#ADD1B2" rx="11" ry="11" style="stroke: #A80036; stroke-width: 1.0;"/><path d="M1152.9688,297.6406 Q1152.3906,297.9375 1151.75,298.0859 Q1151.1094,298.2344 1150.4063,298.2344 Q1147.9063,298.2344 1146.5859,296.5859 Q1145.2656,294.9375 1145.2656,291.8125 Q1145.2656,288.6875 1146.5859,287.0313 Q1147.9063,285.375 1150.4063,285.375 Q1151.1094,285.375 1151.7578,285.5313 Q1152.4063,285.6875 1152.9688,285.9844 L1152.9688,288.7031 Q1152.3438,288.125 1151.75,287.8516 Q1151.1563,287.5781 1150.5313,287.5781 Q1149.1875,287.5781 1148.5,288.6484 Q1147.8125,289.7188 1147.8125,291.8125 Q1147.8125,293.9063 1148.5,294.9766 Q1149.1875,296.0469 1150.5313,296.0469 Q1151.1563,296.0469 1151.75,295.7734 Q1152.3438,295.5 1152.9688,294.9219 L1152.9688,297.6406 Z "/><text fill="#000000" font-family="sans-serif" font-size="12" lengthAdjust="spacingAndGlyphs" textLength="132" x="1164" y="296.1543">ServerErrorException</text><line style="stroke: #A80036; stroke-width: 1.5;" x1="1136" x2="1298" y1="308" y2="308"/><line style="stroke: #A80036; stroke-width: 1.5;" x1="1136" x2="1298" y1="316" y2="316"/><rect fill="#FEFECE" filter="url(#f1)" height="48" style="stroke: #A80036; stroke-width: 1.5;" width="170" x="914" y="384"/><ellipse cx="929" cy="400" fill="#ADD1B2" rx="11" ry="11" style="stroke: #A80036; stroke-width: 1.0;"/><path d="M931.9688,405.6406 Q931.3906,405.9375 930.75,406.0859 Q930.1094,406.2344 929.4063,406.2344 Q926.9063,406.2344 925.5859,404.5859 Q924.2656,402.9375 924.2656,399.8125 Q924.2656,396.6875 925.5859,395.0313 Q926.9063,393.375 929.4063,393.375 Q930.1094,393.375 930.7578,393.5313 Q931.4063,393.6875 931.9688,393.9844 L931.9688,396.7031 Q931.3438,396.125 930.75,395.8516 Q930.1563,395.5781 929.5313,395.5781 Q928.1875,395.5781 927.5,396.6484 Q926.8125,397.7188 926.8125,399.8125 Q926.8125,401.9063 927.5,402.9766 Q928.1875,404.0469 929.5313,404.0469 Q930.1563,404.0469 930.75,403.7734 Q931.3438,403.5 931.9688,402.9219 L931.9688,405.6406 Z "/><text fill="#000000" font-family="sans-serif" font-size="12" lengthAdjust="spacingAndGlyphs" textLength="138" x="943" y="404.1543">BadGatewayException</text><line style="stroke: #A80036; stroke-width: 1.5;" x1="915" x2="1083" y1="416" y2="416"/><line style="stroke: #A80036; stroke-width: 1.5;" x1="915" x2="1083" y1="424" y2="424"/><rect fill="#FEFECE" filter="url(#f1)" height="48" style="stroke: #A80036; stroke-width: 1.5;" width="196" x="1119" y="384"/><ellipse cx="1134" cy="400" fill="#ADD1B2" rx="11" ry="11" style="stroke: #A80036; stroke-width: 1.0;"/><path d="M1136.9688,405.6406 Q1136.3906,405.9375 1135.75,406.0859 Q1135.1094,406.2344 1134.4063,406.2344 Q1131.9063,406.2344 1130.5859,404.5859 Q1129.2656,402.9375 1129.2656,399.8125 Q1129.2656,396.6875 1130.5859,395.0313 Q1131.9063,393.375 1134.4063,393.375 Q1135.1094,393.375 1135.7578,393.5313 Q1136.4063,393.6875 1136.9688,393.9844 L1136.9688,396.7031 Q1136.3438,396.125 1135.75,395.8516 Q1135.1563,395.5781 1134.5313,395.5781 Q1133.1875,395.5781 1132.5,396.6484 Q1131.8125,397.7188 1131.8125,399.8125 Q1131.8125,401.9063 1132.5,402.9766 Q1133.1875,404.0469 1134.5313,404.0469 Q1135.1563,404.0469 1135.75,403.7734 Q1136.3438,403.5 1136.9688,402.9219 L1136.9688,405.6406 Z "/><text fill="#000000" font-family="sans-serif" font-size="12" lengthAdjust="spacingAndGlyphs" textLength="164" x="1148" y="404.1543">GatewayTimeoutException</text><line style="stroke: #A80036; stroke-width: 1.5;" x1="1120" x2="1314" y1="416" y2="416"/><line style="stroke: #A80036; stroke-width: 1.5;" x1="1120" x2="1314" y1="424" y2="424"/><rect fill="#FEFECE" filter="url(#f1)" height="48" style="stroke: #A80036; stroke-width: 1.5;" width="212" x="1350" y="384"/><ellipse cx="1365" cy="400" fill="#ADD1B2" rx="11" ry="11" style="stroke: #A80036; stroke-width: 1.0;"/><path d="M1367.9688,405.6406 Q1367.3906,405.9375 1366.75,406.0859 Q1366.1094,406.2344 1365.4063,406.2344 Q1362.9063,406.2344 1361.5859,404.5859 Q1360.2656,402.9375 1360.2656,399.8125 Q1360.2656,396.6875 1361.5859,395.0313 Q1362.9063,393.375 1365.4063,393.375 Q1366.1094,393.375 1366.7578,393.5313 Q1367.4063,393.6875 1367.9688,393.9844 L1367.9688,396.7031 Q1367.3438,396.125 1366.75,395.8516 Q1366.1563,395.5781 1365.5313,395.5781 Q1364.1875,395.5781 1363.5,396.6484 Q1362.8125,397.7188 1362.8125,399.8125 Q1362.8125,401.9063 1363.5,402.9766 Q1364.1875,404.0469 1365.5313,404.0469 Q1366.1563,404.0469 1366.75,403.7734 Q1367.3438,403.5 1367.9688,402.9219 L1367.9688,405.6406 Z "/><text fill="#000000" font-family="sans-serif" font-size="12" lengthAdjust="spacingAndGlyphs" textLength="180" x="1379" y="404.1543">InternalServerErrorException</text><line style="stroke: #A80036; stroke-width: 1.5;" x1="1351" x2="1561" y1="416" y2="416"/><line style="stroke: #A80036; stroke-width: 1.5;" x1="1351" x2="1561" y1="424" y2="424"/><rect fill="#FEFECE" filter="url(#f1)" height="48" style="stroke: #A80036; stroke-width: 1.5;" width="210" x="1597" y="384"/><ellipse cx="1612" cy="400" fill="#ADD1B2" rx="11" ry="11" style="stroke: #A80036; stroke-width: 1.0;"/><path d="M1614.9688,405.6406 Q1614.3906,405.9375 1613.75,406.0859 Q1613.1094,406.2344 1612.4063,406.2344 Q1609.9063,406.2344 1608.5859,404.5859 Q1607.2656,402.9375 1607.2656,399.8125 Q1607.2656,396.6875 1608.5859,395.0313 Q1609.9063,393.375 1612.4063,393.375 Q1613.1094,393.375 1613.7578,393.5313 Q1614.4063,393.6875 1614.9688,393.9844 L1614.9688,396.7031 Q1614.3438,396.125 1613.75,395.8516 Q1613.1563,395.5781 1612.5313,395.5781 Q1611.1875,395.5781 1610.5,396.6484 Q1609.8125,397.7188 1609.8125,399.8125 Q1609.8125,401.9063 1610.5,402.9766 Q1611.1875,404.0469 1612.5313,404.0469 Q1613.1563,404.0469 1613.75,403.7734 Q1614.3438,403.5 1614.9688,402.9219 L1614.9688,405.6406 Z "/><text fill="#000000" font-family="sans-serif" font-size="12" lengthAdjust="spacingAndGlyphs" textLength="178" x="1626" y="404.1543">ServiceUnavailableException</text><line style="stroke: #A80036; stroke-width: 1.5;" x1="1598" x2="1806" y1="416" y2="416"/><line style="stroke: #A80036; stroke-width: 1.5;" x1="1598" x2="1806" y1="424" y2="424"/><path d="M464.35,123.502 C451.695,138.358 437.693,154.795 426.578,167.844 " fill="none" style="stroke: #A80036; stroke-width: 1.0;"/><polygon fill="none" points="459.055,118.923,477.353,108.237,469.713,128.001,459.055,118.923" style="stroke: #A80036; stroke-width: 1.0;"/><path d="M532.016,123.502 C544.808,138.358 558.963,154.795 570.199,167.844 " fill="none" style="stroke: #A80036; stroke-width: 1.0;"/><polygon fill="none" points="526.617,127.96,518.871,108.237,537.226,118.825,526.617,127.96" style="stroke: #A80036; stroke-width: 1.0;"/><path d="M528.52,225.572 C498.139,241.895 462.323,261.14 434.721,275.971 " fill="none" style="stroke: #A80036; stroke-width: 1.0;"/><polygon fill="none" points="525.211,219.403,546.142,216.103,531.837,231.736,525.211,219.403" style="stroke: #A80036; stroke-width: 1.0;"/><path d="M591,236.291 C591,249.817 591,264.184 591,275.844 " fill="none" style="stroke: #A80036; stroke-width: 1.0;"/><polygon fill="none" points="584,236.237,591,216.237,598,236.237,584,236.237" style="stroke: #A80036; stroke-width: 1.0;"/><path d="M492.052,324.382 C370.618,352.632 337.247,357.78 223,384 C217.467,385.27 211.766,386.591 206.022,387.931 " fill="none" style="stroke: #A80036; stroke-width: 1.0;"/><polygon fill="none" points="490.829,317.479,511.897,319.743,494.016,331.111,490.829,317.479" style="stroke: #A80036; stroke-width: 1.0;"/><path d="M126.921,452.291 C128.424,465.817 130.02,480.184 131.316,491.844 " fill="none" style="stroke: #A80036; stroke-width: 1.0;"/><polygon fill="none" points="119.945,452.888,124.693,432.237,133.859,451.342,119.945,452.888" style="stroke: #A80036; stroke-width: 1.0;"/><path d="M207.146,439.067 C253.27,455.896 309.396,476.374 352.142,491.971 " fill="none" style="stroke: #A80036; stroke-width: 1.0;"/><polygon fill="none" points="204.449,445.534,188.06,432.103,209.248,432.382,204.449,445.534" style="stroke: #A80036; stroke-width: 1.0;"/><path d="M418,560.291 C418,573.817 418,588.1835 418,599.8436 " fill="none" style="stroke: #A80036; stroke-width: 1.0;"/><polygon fill="none" points="411,560.237,418,540.237,425,560.237,411,560.237" style="stroke: #A80036; stroke-width: 1.0;"/><path d="M521.154,332.655 C485.829,349.171 443.713,368.862 411.396,383.971 " fill="none" style="stroke: #A80036; stroke-width: 1.0;"/><polygon fill="none" points="518.364,326.232,539.447,324.103,524.294,338.915,518.364,326.232" style="stroke: #A80036; stroke-width: 1.0;"/><path d="M591,344.291 C591,357.817 591,372.184 591,383.844 " fill="none" style="stroke: #A80036; stroke-width: 1.0;"/><polygon fill="none" points="584,344.237,591,324.237,598,344.237,584,344.237" style="stroke: #A80036; stroke-width: 1.0;"/><path d="M653.778,333.9 C683.789,350.106 719.018,369.13 746.266,383.844 " fill="none" style="stroke: #A80036; stroke-width: 1.0;"/><polygon fill="none" points="650.156,339.9,635.884,324.237,656.808,327.581,650.156,339.9" style="stroke: #A80036; stroke-width: 1.0;"/><path d="M777.614,451.808 C773.438,465.475 768.986,480.045 765.381,491.844 " fill="none" style="stroke: #A80036; stroke-width: 1.0;"/><polygon fill="none" points="771.055,449.319,783.594,432.237,784.444,453.41,771.055,449.319" style="stroke: #A80036; stroke-width: 1.0;"/><path d="M855.035,441.572 C886.171,457.895 922.878,477.14 951.167,491.971 " fill="none" style="stroke: #A80036; stroke-width: 1.0;"/><polygon fill="none" points="851.437,447.589,836.974,432.103,857.938,435.19,851.437,447.589" style="stroke: #A80036; stroke-width: 1.0;"/><path d="M702.027,211.155 C826.067,232.555 1023.97,266.698 1134.85,285.827 " fill="none" style="stroke: #A80036; stroke-width: 1.0;"/><polygon fill="none" points="700.544,218.003,682.026,207.704,702.925,204.206,700.544,218.003" style="stroke: #A80036; stroke-width: 1.0;"/><path d="M1150.16,333.113 C1117.02,349.533 1077.72,369.001 1047.5,383.971 " fill="none" style="stroke: #A80036; stroke-width: 1.0;"/><polygon fill="none" points="1147.32,326.709,1168.35,324.103,1153.53,339.254,1147.32,326.709" style="stroke: #A80036; stroke-width: 1.0;"/><path d="M1217,344.291 C1217,357.817 1217,372.184 1217,383.844 " fill="none" style="stroke: #A80036; stroke-width: 1.0;"/><polygon fill="none" points="1210,344.237,1217,324.237,1224,344.237,1210,344.237" style="stroke: #A80036; stroke-width: 1.0;"/><path d="M1288.76,332.427 C1325.41,348.989 1369.23,368.792 1402.82,383.971 " fill="none" style="stroke: #A80036; stroke-width: 1.0;"/><polygon fill="none" points="1285.68,338.718,1270.34,324.103,1291.45,325.96,1285.68,338.718" style="stroke: #A80036; stroke-width: 1.0;"/><path d="M1319.01,322.716 C1400.56,340.876 1514.47,366.242 1596.84,384.584 " fill="none" style="stroke: #A80036; stroke-width: 1.0;"/><polygon fill="none" points="1317.27,329.501,1299.27,318.321,1320.32,315.835,1317.27,329.501" style="stroke: #A80036; stroke-width: 1.0;"/></g></svg>